<?xml version="1.0" encoding="utf-8"?>
<!-- Generator: Adobe Illustrator 17.1.0, SVG Export Plug-In . SVG Version: 6.00 Build 0)  -->
<!DOCTYPE svg PUBLIC "-//W3C//DTD SVG 1.1//EN" "http://www.w3.org/Graphics/SVG/1.1/DTD/svg11.dtd">
<svg version="1.1" id="Layer_1" xmlns="http://www.w3.org/2000/svg" xmlns:xlink="http://www.w3.org/1999/xlink" x="0px" y="0px"
	 viewBox="0 0 131.47 79.606" enable-background="new 0 0 131.47 79.606" xml:space="preserve">
<defs>
	<filter id="Adobe_OpacityMaskFilter" filterUnits="userSpaceOnUse" x="0" y="0" width="131.47" height="79.606">
		<feColorMatrix  type="matrix" values="1 0 0 0 0  0 1 0 0 0  0 0 1 0 0  0 0 0 1 0"/>
	</filter>
</defs>
<mask maskUnits="userSpaceOnUse" x="0" y="0" width="131.47" height="79.606" id="SVGID_1_">
	<g filter="url(#Adobe_OpacityMaskFilter)">
		<g>
			
				<rect x="139.865" y="14.001" transform="matrix(0.8192 0.5735 -0.5735 0.8192 73.3767 -65.8089)" fill="#F1F5CF" width="2.382" height="138.927"/>
			
				<rect x="135.692" y="11.08" transform="matrix(0.8192 0.5735 -0.5735 0.8192 70.9465 -63.9438)" fill="#F1F5CF" width="2.382" height="138.927"/>
			
				<rect x="131.519" y="8.158" transform="matrix(0.8192 0.5735 -0.5735 0.8192 68.5163 -62.0788)" fill="#F1F5CF" width="2.382" height="138.927"/>
			
				<rect x="127.346" y="5.237" transform="matrix(0.8192 0.5735 -0.5735 0.8192 66.0861 -60.2138)" fill="#F1F5CF" width="2.382" height="138.927"/>
			
				<rect x="123.173" y="2.315" transform="matrix(0.8192 0.5735 -0.5735 0.8192 63.6558 -58.3488)" fill="#F1F5CF" width="2.382" height="138.927"/>
			
				<rect x="119" y="-0.607" transform="matrix(0.8192 0.5735 -0.5735 0.8192 61.2256 -56.4838)" fill="#F1F5CF" width="2.382" height="138.927"/>
			
				<rect x="114.828" y="-3.528" transform="matrix(0.8192 0.5735 -0.5735 0.8192 58.7954 -54.6188)" fill="#F1F5CF" width="2.382" height="138.927"/>
			
				<rect x="110.655" y="-6.45" transform="matrix(0.8192 0.5735 -0.5735 0.8192 56.3652 -52.7537)" fill="#F1F5CF" width="2.382" height="138.927"/>
			
				<rect x="106.482" y="-9.372" transform="matrix(0.8192 0.5735 -0.5735 0.8192 53.935 -50.8887)" fill="#F1F5CF" width="2.382" height="138.927"/>
			
				<rect x="102.309" y="-12.293" transform="matrix(0.8192 0.5735 -0.5735 0.8192 51.5047 -49.0237)" fill="#F1F5CF" width="2.382" height="138.927"/>
			
				<rect x="98.136" y="-15.215" transform="matrix(0.8192 0.5735 -0.5735 0.8192 49.0745 -47.1587)" fill="#F1F5CF" width="2.382" height="138.927"/>
			
				<rect x="93.963" y="-18.136" transform="matrix(0.8192 0.5735 -0.5735 0.8192 46.6443 -45.2937)" fill="#F1F5CF" width="2.382" height="138.927"/>
			
				<rect x="89.79" y="-21.058" transform="matrix(0.8192 0.5735 -0.5735 0.8192 44.2141 -43.4286)" fill="#F1F5CF" width="2.382" height="138.927"/>
			
				<rect x="85.617" y="-23.98" transform="matrix(0.8192 0.5735 -0.5735 0.8192 41.7839 -41.5636)" fill="#F1F5CF" width="2.382" height="138.927"/>
			
				<rect x="81.445" y="-26.901" transform="matrix(0.8192 0.5735 -0.5735 0.8192 39.3536 -39.6986)" fill="#F1F5CF" width="2.382" height="138.927"/>
			
				<rect x="77.272" y="-29.823" transform="matrix(0.8192 0.5735 -0.5735 0.8192 36.9234 -37.8336)" fill="#F1F5CF" width="2.382" height="138.927"/>
			
				<rect x="73.099" y="-32.744" transform="matrix(0.8192 0.5735 -0.5735 0.8192 34.4932 -35.9686)" fill="#F1F5CF" width="2.382" height="138.927"/>
			
				<rect x="68.926" y="-35.666" transform="matrix(0.8192 0.5735 -0.5735 0.8192 32.063 -34.1036)" fill="#F1F5CF" width="2.382" height="138.927"/>
			
				<rect x="64.753" y="-38.588" transform="matrix(0.8192 0.5735 -0.5735 0.8192 29.6328 -32.2385)" fill="#F1F5CF" width="2.382" height="138.927"/>
			
				<rect x="60.58" y="-41.509" transform="matrix(0.8192 0.5735 -0.5735 0.8192 27.2025 -30.3735)" fill="#F1F5CF" width="2.382" height="138.927"/>
			
				<rect x="56.407" y="-44.431" transform="matrix(0.8192 0.5735 -0.5735 0.8192 24.7723 -28.5085)" fill="#F1F5CF" width="2.382" height="138.927"/>
			
				<rect x="52.235" y="-47.352" transform="matrix(0.8192 0.5735 -0.5735 0.8192 22.3421 -26.6435)" fill="#F1F5CF" width="2.382" height="138.927"/>
			
				<rect x="48.062" y="-50.274" transform="matrix(0.8192 0.5735 -0.5735 0.8192 19.9119 -24.7785)" fill="#F1F5CF" width="2.382" height="138.927"/>
			
				<rect x="43.889" y="-53.196" transform="matrix(0.8192 0.5735 -0.5735 0.8192 17.4817 -22.9135)" fill="#F1F5CF" width="2.382" height="138.927"/>
			
				<rect x="39.716" y="-56.117" transform="matrix(0.8192 0.5735 -0.5735 0.8192 15.0514 -21.0484)" fill="#F1F5CF" width="2.382" height="138.927"/>
			
				<rect x="35.543" y="-59.039" transform="matrix(0.8192 0.5735 -0.5735 0.8192 12.6212 -19.1834)" fill="#F1F5CF" width="2.382" height="138.927"/>
			
				<rect x="31.37" y="-61.961" transform="matrix(0.8192 0.5735 -0.5735 0.8192 10.191 -17.3184)" fill="#F1F5CF" width="2.382" height="138.927"/>
			
				<rect x="27.197" y="-64.882" transform="matrix(0.8192 0.5735 -0.5735 0.8192 7.7608 -15.4534)" fill="#F1F5CF" width="2.382" height="138.927"/>
			
				<rect x="23.024" y="-67.804" transform="matrix(0.8192 0.5735 -0.5735 0.8192 5.3306 -13.5884)" fill="#F1F5CF" width="2.382" height="138.927"/>
			
				<rect x="18.852" y="-70.725" transform="matrix(0.8192 0.5735 -0.5735 0.8192 2.9003 -11.7234)" fill="#F1F5CF" width="2.382" height="138.927"/>
			
				<rect x="14.679" y="-73.647" transform="matrix(0.8192 0.5735 -0.5735 0.8192 0.4701 -9.8583)" fill="#F1F5CF" width="2.382" height="138.927"/>
			
				<rect x="10.506" y="-76.569" transform="matrix(0.8192 0.5735 -0.5735 0.8192 -1.9601 -7.9933)" fill="#F1F5CF" width="2.382" height="138.927"/>
			
				<rect x="6.333" y="-79.49" transform="matrix(0.8192 0.5735 -0.5735 0.8192 -4.3903 -6.1283)" fill="#F1F5CF" width="2.382" height="138.927"/>
			
				<rect x="2.16" y="-82.412" transform="matrix(0.8192 0.5735 -0.5735 0.8192 -6.8206 -4.2633)" fill="#F1F5CF" width="2.382" height="138.927"/>
			
				<rect x="-2.013" y="-85.333" transform="matrix(0.8192 0.5735 -0.5735 0.8192 -9.2508 -2.3983)" fill="#F1F5CF" width="2.382" height="138.927"/>
			
				<rect x="-6.186" y="-88.255" transform="matrix(0.8192 0.5735 -0.5735 0.8192 -11.681 -0.5333)" fill="#F1F5CF" width="2.382" height="138.927"/>
			
				<rect x="-10.358" y="-91.177" transform="matrix(0.8192 0.5735 -0.5735 0.8192 -14.1112 1.3318)" fill="#F1F5CF" width="2.382" height="138.927"/>
		</g>
	</g>
</mask>
<path mask="url(#SVGID_1_)" fill="#F1F5CF" d="M131.457,31.197c0.297-6.671-4.87-12.32-11.541-12.617
	c-2.079-0.093-4.059,0.346-5.808,1.195c-2.879-8.109-10.438-14.076-19.563-14.483c-5.921-0.264-11.393,1.865-15.488,5.527
	c-4.05-6.205-10.923-10.44-18.89-10.795C51.035-0.383,42.88,4.411,38.555,11.782c-3.278-1.677-6.956-2.7-10.874-2.875
	C13.06,8.255,0.678,19.58,0.027,34.202S10.7,61.204,25.322,61.856c1.673,0.075,3.314-0.015,4.914-0.241
	c3.366,10.036,12.621,17.465,23.829,17.964c10.952,0.488,20.638-5.777,25.037-15.11c4.553,5.55,11.353,9.218,19.09,9.563
	c14.454,0.644,26.694-10.551,27.338-25.005c0.116-2.607-0.158-5.14-0.762-7.548C128.567,39.582,131.255,35.741,131.457,31.197z"/>
</svg>
