<?xml version="1.0" encoding="utf-8"?>
<!-- Generator: Adobe Illustrator 17.1.0, SVG Export Plug-In . SVG Version: 6.00 Build 0)  -->
<!DOCTYPE svg PUBLIC "-//W3C//DTD SVG 1.1//EN" "http://www.w3.org/Graphics/SVG/1.1/DTD/svg11.dtd">
<svg version="1.1" id="Layer_1" xmlns="http://www.w3.org/2000/svg" xmlns:xlink="http://www.w3.org/1999/xlink" x="0px" y="0px"
	 viewBox="0 0 141 285.3" enable-background="new 0 0 141 285.3" xml:space="preserve">
<g>
	<circle fill="#35140F" cx="73" cy="216" r="68"/>
	<circle fill="#4A1C14" cx="68" cy="211" r="68"/>
	<g>
		<circle fill="#66B599" cx="69" cy="213" r="55.3"/>
		<circle fill="#7ACFB2" cx="65" cy="210" r="55.3"/>
		<g>
			<path fill="#F1F5CF" d="M48.8,190.3c-12.6-1.1-23.7,8.3-24.7,20.9c-1.1,12.6,8.3,23.7,20.9,24.7c12.6,1.1,23.7-8.3,24.7-20.9
				S61.4,191.3,48.8,190.3z M48.6,208.6c-2.9-0.2-5-2.8-4.8-5.7c0.2-2.9,2.8-5,5.7-4.8s5,2.8,4.8,5.7
				C54.1,206.7,51.5,208.9,48.6,208.6z"/>
			<polygon fill="#F1F5CF" points="62.4,206.2 78.6,198.5 64.9,212.2 			"/>
			<polygon fill="#F1F5CF" points="65.6,211.1 82,208.2 62.3,214.2 			"/>
		</g>
		<g>
			<path fill="none" stroke="#F1F5CF" stroke-width="3" stroke-miterlimit="10" d="M84,192.5c0,0,13.3,6.4,4.7,18.7"/>
			<path fill="none" stroke="#F1F5CF" stroke-width="3" stroke-miterlimit="10" d="M86.1,184.5c0,0,23.1,11.2,8.1,32.5"/>
			<path fill="none" stroke="#F1F5CF" stroke-width="3" stroke-miterlimit="10" d="M88.6,176.3c0,0,33.3,16.1,11.7,46.8"/>
		</g>
	</g>
</g>
<g>
	<circle fill="#35140F" cx="73" cy="73" r="68"/>
	<circle fill="#4A1C14" cx="68" cy="68" r="68"/>
	<g>
		<circle fill="#66B599" cx="69" cy="70" r="55.3"/>
		<circle fill="#7ACFB2" cx="65" cy="67" r="55.3"/>
		<g>
			<path fill="#F1F5CF" d="M48.8,47.3c-12.6-1.1-23.7,8.3-24.7,20.9C23,80.8,32.4,91.9,45,92.9C57.6,94,68.7,84.6,69.7,72
				S61.4,48.3,48.8,47.3z M48.6,65.6c-2.9-0.2-5-2.8-4.8-5.7c0.2-2.9,2.8-5,5.7-4.8c2.9,0.2,5,2.8,4.8,5.7
				C54.1,63.7,51.5,65.9,48.6,65.6z"/>
			<polygon fill="#F1F5CF" points="62.4,63.2 78.6,55.5 64.9,69.2 			"/>
			<polygon fill="#F1F5CF" points="65.6,68.1 82,65.2 62.3,71.2 			"/>
		</g>
	</g>
</g>
</svg>
