<?xml version="1.0" encoding="utf-8"?>
<!-- Generator: Adobe Illustrator 17.1.0, SVG Export Plug-In . SVG Version: 6.00 Build 0)  -->
<!DOCTYPE svg PUBLIC "-//W3C//DTD SVG 1.1//EN" "http://www.w3.org/Graphics/SVG/1.1/DTD/svg11.dtd">
<svg version="1.1" xmlns="http://www.w3.org/2000/svg" xmlns:xlink="http://www.w3.org/1999/xlink" x="0px" y="0px"
	 viewBox="0 0 100 100" enable-background="new 0 0 100 100" xml:space="preserve">
<g id="Layer_1">
	<g>
		<circle fill="#35140F" cx="25.6" cy="75.7" r="23.8"/>
		<circle fill="#4A1C14" cx="23.8" cy="74" r="23.8"/>
		<g>
			<circle fill="#66B599" cx="24.2" cy="74.7" r="19.4"/>
			<circle fill="#7ACFB2" cx="22.8" cy="73.6" r="19.4"/>
			<g>
				<path fill="#F1F5CF" d="M17.1,66.7c-4.4-0.4-8.3,2.9-8.7,7.3c-0.4,4.4,2.9,8.3,7.3,8.7c4.4,0.4,8.3-2.9,8.7-7.3
					C24.8,70.9,21.5,67.1,17.1,66.7z M17,73.1c-1-0.1-1.8-1-1.7-2s1-1.8,2-1.7c1,0.1,1.8,1,1.7,2C19,72.5,18.1,73.2,17,73.1z"/>
				<polygon fill="#F1F5CF" points="21.9,72.3 27.5,69.6 22.7,74.4 				"/>
				<polygon fill="#F1F5CF" points="23,74 28.7,73 21.8,75.1 				"/>
			</g>
			<g>
				<path fill="none" stroke="#F1F5CF" stroke-miterlimit="10" d="M29.4,67.5c0,0,4.7,2.2,1.6,6.6"/>
				<path fill="none" stroke="#F1F5CF" stroke-miterlimit="10" d="M30.2,64.7c0,0,8.1,3.9,2.8,11.4"/>
				<path fill="none" stroke="#F1F5CF" stroke-miterlimit="10" d="M31.1,61.8c0,0,11.7,5.6,4.1,16.4"/>
			</g>
		</g>
	</g>
	<g>
		<circle fill="#35140F" cx="25.6" cy="25.6" r="23.8"/>
		<circle fill="#4A1C14" cx="23.8" cy="23.8" r="23.8"/>
		<g>
			<circle fill="#66B599" cx="24.2" cy="24.5" r="19.4"/>
			<circle fill="#7ACFB2" cx="22.8" cy="23.5" r="19.4"/>
			<g>
				<path fill="#F1F5CF" d="M17.1,16.6c-4.4-0.4-8.3,2.9-8.7,7.3c-0.4,4.4,2.9,8.3,7.3,8.7c4.4,0.4,8.3-2.9,8.7-7.3
					S21.5,16.9,17.1,16.6z M17,23c-1-0.1-1.8-1-1.7-2c0.1-1,1-1.8,2-1.7c1,0.1,1.8,1,1.7,2C19,22.3,18.1,23.1,17,23z"/>
				<polygon fill="#F1F5CF" points="21.9,22.2 27.5,19.5 22.7,24.3 				"/>
				<polygon fill="#F1F5CF" points="23,23.9 28.7,22.9 21.8,25 				"/>
			</g>
		</g>
	</g>
</g>
<g id="Layer_1_copy">
	<g>
		<circle fill="#35140F" cx="75.2" cy="75.7" r="23.8"/>
		<circle fill="#4A1C14" cx="73.4" cy="74" r="23.8"/>
		<g>
			<circle fill="#66B599" cx="73.8" cy="74.7" r="19.4"/>
			<circle fill="#7ACFB2" cx="72.9" cy="74.4" r="19.4"/>
			<g>
				<path fill="#F1F5CF" d="M66.7,66.7c-4.4-0.4-8.3,2.9-8.7,7.3c-0.4,4.4,2.9,8.3,7.3,8.7c4.4,0.4,8.3-2.9,8.7-7.3
					C74.4,70.9,71.1,67.1,66.7,66.7z M66.6,73.1c-1-0.1-1.8-1-1.7-2c0.1-1,1-1.8,2-1.7s1.8,1,1.7,2C68.5,72.5,67.6,73.2,66.6,73.1z"
					/>
				<polygon fill="#F1F5CF" points="71.5,72.3 77.1,69.6 72.3,74.4 				"/>
				<polygon fill="#F1F5CF" points="72.6,74 78.3,73 71.4,75.1 				"/>
			</g>
			<g>
				<path fill="none" stroke="#F1F5CF" stroke-miterlimit="10" d="M79,67.5c0,0,4.7,2.2,1.6,6.6"/>
				<path fill="none" stroke="#F1F5CF" stroke-miterlimit="10" d="M79.8,64.7c0,0,8.1,3.9,2.8,11.4"/>
				<path fill="none" stroke="#F1F5CF" stroke-miterlimit="10" d="M80.6,61.8c0,0,11.7,5.6,4.1,16.4"/>
			</g>
		</g>
	</g>
	<g>
		<circle fill="#35140F" cx="75.2" cy="25.6" r="23.8"/>
		<circle fill="#4A1C14" cx="73.4" cy="23.8" r="23.8"/>
		<g>
			<circle fill="#66B599" cx="73.8" cy="24.5" r="19.4"/>
			<circle fill="#7ACFB2" cx="72.9" cy="24.3" r="19.4"/>
			<g>
				<path fill="#F1F5CF" d="M66.7,16.6c-4.4-0.4-8.3,2.9-8.7,7.3c-0.4,4.4,2.9,8.3,7.3,8.7c4.4,0.4,8.3-2.9,8.7-7.3
					C74.4,20.8,71.1,16.9,66.7,16.6z M66.6,23c-1-0.1-1.8-1-1.7-2c0.1-1,1-1.8,2-1.7s1.8,1,1.7,2C68.5,22.3,67.6,23.1,66.6,23z"/>
				<polygon fill="#F1F5CF" points="71.5,22.2 77.1,19.5 72.3,24.3 				"/>
				<polygon fill="#F1F5CF" points="72.6,23.9 78.3,22.9 71.4,25 				"/>
			</g>
		</g>
	</g>
</g>
</svg>
