<?xml version="1.0" encoding="utf-8"?>
<!-- Generator: Adobe Illustrator 17.1.0, SVG Export Plug-In . SVG Version: 6.00 Build 0)  -->
<!DOCTYPE svg PUBLIC "-//W3C//DTD SVG 1.1//EN" "http://www.w3.org/Graphics/SVG/1.1/DTD/svg11.dtd">
<svg version="1.1" xmlns="http://www.w3.org/2000/svg" xmlns:xlink="http://www.w3.org/1999/xlink" x="0px" y="0px"
	 viewBox="0 0 463.8 359.4" enable-background="new 0 0 463.8 359.4" xml:space="preserve">
<g id="Layer_3">
	<rect x="-25" y="80.4" fill="#F0F3CF" width="514" height="344.9"/>
</g>
<g id="Layer_4">
	<g>
		<path fill="#086731" d="M379.7,108.1c0,0,13.4-12.4-2.1-17.4c0,0,17.2-7.9,2.3-13.9c0,0,10-13.1-2.3-17.6c0,0-20.8-7.7-24.5-31.1
			l-0.1-2c0,0.2,0,0.4-0.1,0.6c0-0.2-0.1-0.4-0.1-0.6l-0.1,2c-3.7,23.4-19.9,31.1-19.9,31.1c-12.3,4.5-2.3,17.6-2.3,17.6
			c-14.9,6,2.3,13.9,2.3,13.9c-15.5,5-2.1,17.4-2.1,17.4c-16.1,7.4,2,17.4,2,17.4c-8.2-0.5-11.1,10.8,4.2,15.8
			c7.6,2.5,13.9,1.4,18.3-0.3c4.4,1.7,10.7,2.8,18.3,0.3c15.3-5,12.4-16.3,4.2-15.8C377.7,125.4,395.8,115.4,379.7,108.1z"/>
		<polygon fill="#693D16" points="356,155.4 351.3,155.4 350.9,154.6 351.3,139.2 355.6,138.3 356,139.2 		"/>
		<rect x="351" y="138.4" fill="#7E5020" width="4" height="16"/>
		<path fill="#008C39" d="M377.4,107.2c0,0,13.4-12.4-2.1-17.4c0,0,17.2-7.9,2.3-13.9c0,0,10-13.1-2.3-17.6c0,0-18.5-7.2-22.2-30.6
			l-0.1-2c0,0.2,0,0.4-0.1,0.6c0-0.2-0.1-0.4-0.1-0.6l-0.1,2c-3.7,23.4-22.2,30.6-22.2,30.6c-12.3,4.5-2.3,17.6-2.3,17.6
			c-14.9,6,2.3,13.9,2.3,13.9c-15.5,5-2.1,17.4-2.1,17.4c-16.1,7.4,2,17.4,2,17.4c-8.2-0.5-11.1,10.8,4.2,15.8
			c7.6,2.5,13.9,1.4,18.3-0.3c4.4,1.7,10.7,2.8,18.3,0.3c15.3-5,12.4-16.3,4.2-15.8C375.5,124.5,393.5,114.5,377.4,107.2z"/>
	</g>
	<g>
		<g>
			<polygon fill="#558066" stroke="#502418" stroke-linecap="round" stroke-linejoin="round" stroke-miterlimit="10" points="
				454.4,76.9 446.6,76.9 446,70 			"/>
			<polygon fill="#DFDEBA" stroke="#502418" stroke-linecap="round" stroke-linejoin="round" stroke-miterlimit="10" points="
				423.3,56.8 445.5,65.6 445.5,197.8 423,185.7 			"/>
			<polygon fill="#C4C09D" points="423.8,67.9 444,77.5 444,69.5 423.4,61 			"/>
			<rect x="355.5" y="58.9" fill="#F6F6D6" stroke="#502418" stroke-miterlimit="10" width="68" height="127"/>
			<polygon fill="#DFDEBA" points="358,68.4 423,67.7 423,62.2 358,62.8 			"/>
			<g id="XMLID_10_">
				<g>
					<polygon fill="#752A26" points="446.5,64.3 454.4,76.4 427.5,62.1 420,50.1 					"/>
					<polygon fill="#99342F" points="430.4,14.8 446.5,64.3 420,50.1 420,50.1 411,4.4 410.9,0.5 430.4,11.1 					"/>
					<polygon fill="#B64138" points="420,50.1 427.5,62.1 351.8,63.1 363.8,50.9 420,50.1 					"/>
					<polygon fill="#B64138" points="411,4.4 420,50.1 363.8,50.9 381.2,3.9 381.2,0.6 410.9,0.5 					"/>
				</g>
				<g>
					<polygon fill="none" stroke="#502418" stroke-linejoin="round" stroke-miterlimit="10" points="427.5,62.1 351.8,63.1 
						363.8,50.9 381.2,3.9 381.2,0.6 410.9,0.5 430.4,11.1 430.4,14.8 446.5,64.3 454.4,76.4 					"/>
					<line fill="none" stroke="#502418" stroke-linejoin="round" stroke-miterlimit="10" x1="420" y1="50.1" x2="427.5" y2="62.1"/>
					<line fill="none" stroke="#502418" stroke-linejoin="round" stroke-miterlimit="10" x1="363.8" y1="50.9" x2="420" y2="50.1"/>
					<polyline fill="none" stroke="#502418" stroke-linejoin="round" stroke-miterlimit="10" points="410.9,0.5 411,4.4 420,50.1 
						420,50.1 446.5,64.3 					"/>
				</g>
			</g>
			<g id="XMLID_9_">
				<g>
					<polygon fill="#DEDEB3" points="394.2,27.9 399,33.8 395.3,33.1 389.2,25.8 					"/>
					<polygon fill="#DEDEB3" points="397.3,33.8 395.8,50.2 393.9,50.2 393.9,33.1 					"/>
					<polygon fill="#F6F6D6" points="389.2,25.8 395.3,33.1 393.9,33.1 384.4,33.1 383.1,33.1 					"/>
					<path fill="#F6F6D6" d="M393.9,50.2L393.9,50.2l-9.5,0.3V33.1h9.5V50.2z M392.7,48.8v-7.4v-7.1H389h-3.3v7.1v7.4h3.3H392.7z"/>
					<polygon fill="#ACD7C5" points="392.7,41.4 392.7,48.8 389,48.8 389,48.5 390.6,48.5 389,46.8 389,41.4 					"/>
					<rect x="389" y="34.4" fill="#ACD7C5" width="3.6" height="7.1"/>
					<polygon fill="#D4E9DF" points="389,46.8 390.6,48.5 389,48.5 					"/>
					<polygon fill="#ACD7C5" points="389,48.5 389,48.8 385.7,48.8 385.7,41.4 389,41.4 389,46.8 386,43.6 386,48.5 					"/>
					<polygon fill="#D4E9DF" points="389,46.8 389,48.5 386,48.5 386,43.6 					"/>
					<rect x="385.7" y="34.4" fill="#ACD7C5" width="3.3" height="7.1"/>
				</g>
				<g>
					
						<line fill="none" stroke="#502418" stroke-linecap="round" stroke-linejoin="round" stroke-miterlimit="10" x1="395.3" y1="33.1" x2="393.9" y2="33.1"/>
					<polyline fill="none" stroke="#502418" stroke-linecap="round" stroke-linejoin="round" stroke-miterlimit="10" points="
						384.4,33.1 383.1,33.1 389.2,25.8 					"/>
					<polyline fill="none" stroke="#502418" stroke-linecap="round" stroke-linejoin="round" stroke-miterlimit="10" points="
						393.9,33.1 384.4,33.1 384.4,50.5 393.9,50.3 393.9,50.2 					"/>
					<polygon fill="none" stroke="#502418" stroke-linecap="round" stroke-linejoin="round" stroke-miterlimit="10" points="
						389.2,25.8 394.2,27.9 399,33.8 395.3,33.1 					"/>
					<polygon fill="none" stroke="#502418" stroke-linecap="round" stroke-linejoin="round" stroke-miterlimit="10" points="
						393.9,50.2 395.8,50.2 397.3,33.8 393.9,33.1 					"/>
					<polygon fill="none" stroke="#502418" stroke-linecap="round" stroke-linejoin="round" stroke-miterlimit="10" points="
						392.7,41.4 392.7,48.8 389,48.8 385.7,48.8 385.7,41.4 385.7,34.4 389,34.4 392.7,34.4 					"/>
					<polyline fill="none" stroke="#502418" stroke-miterlimit="10" points="385.7,41.4 389,41.4 392.7,41.4 					"/>
					<polyline fill="none" stroke="#502418" stroke-miterlimit="10" points="389,34.4 389,41.4 389,46.8 389,48.5 389,48.8 					"/>
				</g>
			</g>
			<polygon fill="#752A26" points="413,1.8 417.1,4.4 416.8,7.3 438.3,58.9 421.1,49.3 413,4.4 			"/>
		</g>
		<polygon fill="#752A26" points="422.2,52.2 427.9,61.3 443.6,69.8 439,61.1 		"/>
		<path fill="#502418" d="M373.9,181.7h-0.4c-0.5,0-0.9-0.4-0.9-0.9v-53.5c0-0.5,0.4-0.9,0.9-0.9h0.4c0.5,0,0.9,0.4,0.9,0.9v53.5
			C374.8,181.3,374.4,181.7,373.9,181.7z"/>
		<path fill="#502418" d="M406.7,181.7h-0.4c-0.5,0-0.9-0.4-0.9-0.9v-53.5c0-0.5,0.4-0.9,0.9-0.9h0.4c0.5,0,0.9,0.4,0.9,0.9v53.5
			C407.6,181.3,407.2,181.7,406.7,181.7z"/>
		<path fill="#8ACAB1" stroke="#502418" stroke-miterlimit="10" d="M364.1,120.9h21.6c0,0-0.8-46.8-10.8-46.8
			C364.9,74,364.1,120.9,364.1,120.9z"/>
		<path fill="#8ACAB1" stroke="#502418" stroke-miterlimit="10" d="M395.3,120.9h21.6c0,0-0.8-46.8-10.8-46.8
			S395.3,120.9,395.3,120.9z"/>
		<path opacity="0.67" fill="#B6DCCB" d="M365.7,119.4h10.3l-9.2-15.6C366.9,103.8,366,114.4,365.7,119.4z"/>
		<path opacity="0.67" fill="#B6DCCB" d="M397.1,119.4h10.3l-9.4-15.9C398.1,103.4,397.2,112.4,397.1,119.4z"/>
	</g>
	<g>
		<g>
			<polygon fill="#558066" stroke="#502418" stroke-linecap="round" stroke-linejoin="round" stroke-miterlimit="10" points="
				342.4,72.9 337.2,72.9 336.8,68.2 			"/>
			<polygon fill="#C59711" stroke="#502418" stroke-linecap="round" stroke-linejoin="round" stroke-miterlimit="10" points="
				321.6,59.8 336.5,65.7 336.5,154 321.4,146 			"/>
			<polygon fill="#A07B1C" points="322.2,67.3 336,73.7 336,68.3 322.1,62.7 			"/>
			<rect x="277.5" y="60.9" fill="#FDD03B" stroke="#502418" stroke-miterlimit="10" width="44" height="85"/>
			<polygon fill="#E6B62B" points="278,67.6 321,67.1 321,63.4 278,63.9 			"/>
			<g id="XMLID_8_">
				<g>
					<polygon fill="#588A6F" points="337.1,64.8 342.4,72.9 324.4,63.3 319.3,55.4 					"/>
					<polygon fill="#588A6F" points="326.3,31.8 337.1,64.8 319.3,55.4 313.4,24.8 313.3,22.2 326.3,29.3 					"/>
					<polygon fill="#71B196" points="319.3,55.4 324.4,63.3 273.8,64 281.8,55.9 					"/>
					<polygon fill="#8ACAB1" points="313.4,24.8 319.3,55.4 281.8,55.9 293.5,24.5 293.5,22.3 313.3,22.2 					"/>
				</g>
				<g>
					<polygon fill="none" stroke="#502418" stroke-linejoin="round" stroke-miterlimit="10" points="324.4,63.3 273.8,64 
						281.8,55.9 293.5,24.5 293.5,22.3 313.3,22.2 326.3,29.3 326.3,31.8 337.1,64.8 342.4,72.9 					"/>
					<polyline fill="none" stroke="#502418" stroke-linejoin="round" stroke-miterlimit="10" points="281.8,55.9 319.3,55.4 
						324.4,63.3 					"/>
					<polyline fill="none" stroke="#502418" stroke-linejoin="round" stroke-miterlimit="10" points="313.3,22.2 313.4,24.8 
						319.3,55.4 337.1,64.8 					"/>
				</g>
			</g>
			<g id="XMLID_7_">
				<g>
					<polygon fill="#DEDEB3" points="302.2,40.5 305.4,44.5 302.9,44 298.8,39.1 					"/>
					<polygon fill="#DEDEB3" points="304.2,44.5 303.2,55.5 302,55.5 302,44 					"/>
					<polygon fill="#F6F6D6" points="298.8,39.1 302.9,44 302,44 295.6,44 294.7,44 					"/>
					<path fill="#F6F6D6" d="M302,55.5L302,55.5l-6.4,0.2V44h6.4V55.5z M301.1,54.5v-4.9v-4.7h-2.4h-2.2v4.7v4.9h2.2H301.1z"/>
					<polygon fill="#ACD7C5" points="301.1,49.6 301.1,54.5 298.7,54.5 298.7,54.3 299.8,54.3 298.7,53.2 298.7,49.6 					"/>
					<rect x="298.7" y="44.9" fill="#ACD7C5" width="2.4" height="4.7"/>
					<polygon fill="#D4E9DF" points="298.7,53.2 299.8,54.3 298.7,54.3 					"/>
					<polygon fill="#ACD7C5" points="298.7,54.3 298.7,54.5 296.5,54.5 296.5,49.6 298.7,49.6 298.7,53.2 296.7,51 296.7,54.3 					
						"/>
					<polygon fill="#D4E9DF" points="298.7,53.2 298.7,54.3 296.7,54.3 296.7,51 					"/>
					<rect x="296.5" y="44.9" fill="#ACD7C5" width="2.2" height="4.7"/>
				</g>
				<g>
					
						<line fill="none" stroke="#502418" stroke-linecap="round" stroke-linejoin="round" stroke-miterlimit="10" x1="302.9" y1="44" x2="302" y2="44"/>
					<polyline fill="none" stroke="#502418" stroke-linecap="round" stroke-linejoin="round" stroke-miterlimit="10" points="
						295.6,44 294.7,44 298.8,39.1 					"/>
					<polyline fill="none" stroke="#502418" stroke-linecap="round" stroke-linejoin="round" stroke-miterlimit="10" points="
						302,44 295.6,44 295.6,55.7 302,55.5 302,55.5 					"/>
					<polygon fill="none" stroke="#502418" stroke-linecap="round" stroke-linejoin="round" stroke-miterlimit="10" points="
						298.8,39.1 302.2,40.5 305.4,44.5 302.9,44 					"/>
					<polygon fill="none" stroke="#502418" stroke-linecap="round" stroke-linejoin="round" stroke-miterlimit="10" points="
						302,55.5 303.2,55.5 304.2,44.5 302,44 					"/>
					<polygon fill="none" stroke="#502418" stroke-linecap="round" stroke-linejoin="round" stroke-miterlimit="10" points="
						301.1,49.6 301.1,54.5 298.7,54.5 296.5,54.5 296.5,49.6 296.5,44.9 298.7,44.9 301.1,44.9 					"/>
					<polyline fill="none" stroke="#502418" stroke-miterlimit="10" points="296.5,49.6 298.7,49.6 301.1,49.6 					"/>
					<polyline fill="none" stroke="#502418" stroke-miterlimit="10" points="298.7,44.9 298.7,49.6 298.7,53.2 298.7,54.3 
						298.7,54.5 					"/>
				</g>
			</g>
			<polygon fill="#517B62" points="314,23.1 317.1,24.9 317,26.8 331.6,61.3 319.8,54.8 314,24.9 			"/>
		</g>
		<polygon fill="#507B64" points="320.9,56.7 324.7,62.9 335.2,68.5 332.1,62.7 		"/>
		<path fill="#502418" d="M288.6,143.3h-0.3c-0.3,0-0.6-0.3-0.6-0.6v-35.8c0-0.3,0.3-0.6,0.6-0.6h0.3c0.3,0,0.6,0.3,0.6,0.6v35.8
			C289.2,143,288.9,143.3,288.6,143.3z"/>
		<path fill="#502418" d="M310.5,143.3h-0.3c-0.3,0-0.6-0.3-0.6-0.6v-35.8c0-0.3,0.3-0.6,0.6-0.6h0.3c0.3,0,0.6,0.3,0.6,0.6v35.8
			C311.1,143,310.8,143.3,310.5,143.3z"/>
		<path fill="#8ACAB1" stroke="#502418" stroke-miterlimit="10" d="M282,102.9h14.4c0,0-0.5-31.3-7.2-31.3S282,102.9,282,102.9z"/>
		<path fill="#8ACAB1" stroke="#502418" stroke-miterlimit="10" d="M302.9,102.9h14.4c0,0-0.5-31.3-7.2-31.3
			C303.4,71.6,302.9,102.9,302.9,102.9z"/>
		<path opacity="0.67" fill="#B6DCCB" d="M283.1,101.4h6.9l-6.2-10.4C283.9,90.9,283.3,98.4,283.1,101.4z"/>
		<path opacity="0.67" fill="#B6DCCB" d="M304.1,101.4h6.9l-6.3-10.7C304.7,90.7,304.1,96.4,304.1,101.4z"/>
	</g>
	<g>
		<polygon fill="#898584" points="146,69.6 141,66.8 141,37.5 146,40.3 		"/>
		<polygon fill="#898584" points="122,69.6 117,66.8 117,37.5 122,40.3 		"/>
		<rect x="103" y="55.4" fill="#A29F9D" width="62" height="189"/>
		<rect x="103" y="37.4" fill="#A29F9D" width="15" height="34"/>
		<rect x="127" y="37.4" fill="#A29F9D" width="14" height="34"/>
		<rect x="151" y="37.4" fill="#A29F9D" width="14" height="34"/>
		<polygon fill="#898584" points="171,69.6 165,66.8 165,37.5 171,40.3 		"/>
		<polygon fill="#898584" points="310,323.3 165,244.9 165,66.6 310,144.9 		"/>
		<polygon fill="#898584" points="46,276.7 104,244.5 104,66.6 46,98.8 		"/>
	</g>
	<g>
		<g>
			<polygon fill="#558066" stroke="#502418" stroke-linecap="round" stroke-linejoin="round" stroke-miterlimit="10" points="
				93.2,106.9 87.2,106.9 86.8,101.6 			"/>
			<polygon fill="#DFDEBA" stroke="#502418" stroke-linecap="round" stroke-linejoin="round" stroke-miterlimit="10" points="
				69.6,91.8 86.5,98.6 86.5,199.3 69.3,190.1 			"/>
			<polygon fill="#C4C09D" points="70.2,100.3 86,107.7 86,101.6 70.1,95.1 			"/>
			<rect x="18.5" y="92.9" fill="#F6F6D6" stroke="#502418" stroke-miterlimit="10" width="51" height="97"/>
			<polygon fill="#DFDEBA" points="20,100.7 69,100.2 69,96 20,96.5 			"/>
			<g id="XMLID_4_">
				<g>
					<polygon fill="#752A26" points="87.2,97.6 93.2,106.8 72.7,95.9 66.9,86.8 					"/>
					<polygon fill="#99342F" points="74.9,59.9 87.2,97.6 66.9,86.8 60.1,52 60,49 74.9,57.1 					"/>
					<polygon fill="#B64138" points="66.9,86.8 72.7,95.9 15,96.6 24.1,87.4 					"/>
					<polygon fill="#B64138" points="60.1,52 66.9,86.8 24.1,87.4 37.4,51.6 37.4,49.1 60,49 					"/>
				</g>
				<g>
					<polygon fill="none" stroke="#502418" stroke-linejoin="round" stroke-miterlimit="10" points="72.7,95.9 15,96.6 24.1,87.4 
						37.4,51.6 37.4,49.1 60,49 74.9,57.1 74.9,59.9 87.2,97.6 93.2,106.8 					"/>
					<polyline fill="none" stroke="#502418" stroke-linejoin="round" stroke-miterlimit="10" points="24.1,87.4 66.9,86.8 
						72.7,95.9 					"/>
					<polyline fill="none" stroke="#502418" stroke-linejoin="round" stroke-miterlimit="10" points="60,49 60.1,52 66.9,86.8 
						87.2,97.6 					"/>
				</g>
			</g>
			<g id="XMLID_3_">
				<g>
					<polygon fill="#DEDEB3" points="47.3,69.8 51,74.3 48.2,73.8 43.5,68.3 					"/>
					<polygon fill="#DEDEB3" points="49.7,74.3 48.5,86.9 47.1,86.9 47.1,73.8 					"/>
					<polygon fill="#F6F6D6" points="43.5,68.3 48.2,73.8 47.1,73.8 39.9,73.8 38.9,73.8 					"/>
					<path fill="#F6F6D6" d="M47.1,86.9L47.1,86.9l-7.3,0.2V73.8h7.3V86.9z M46.1,85.8v-5.6v-5.4h-2.7h-2.5v5.4v5.6h2.5H46.1z"/>
					<polygon fill="#ACD7C5" points="46.1,80.2 46.1,85.8 43.4,85.8 43.4,85.6 44.6,85.6 43.4,84.3 43.4,80.2 					"/>
					<rect x="43.4" y="74.8" fill="#ACD7C5" width="2.7" height="5.4"/>
					<polygon fill="#D4E9DF" points="43.4,84.3 44.6,85.6 43.4,85.6 					"/>
					<polygon fill="#ACD7C5" points="43.4,85.6 43.4,85.8 40.9,85.8 40.9,80.2 43.4,80.2 43.4,84.3 41.1,81.8 41.1,85.6 					"/>
					<polygon fill="#D4E9DF" points="43.4,84.3 43.4,85.6 41.1,85.6 41.1,81.8 					"/>
					<rect x="40.9" y="74.8" fill="#ACD7C5" width="2.5" height="5.4"/>
				</g>
				<g>
					
						<line fill="none" stroke="#502418" stroke-linecap="round" stroke-linejoin="round" stroke-miterlimit="10" x1="48.2" y1="73.8" x2="47.1" y2="73.8"/>
					<polyline fill="none" stroke="#502418" stroke-linecap="round" stroke-linejoin="round" stroke-miterlimit="10" points="
						39.9,73.8 38.9,73.8 43.5,68.3 					"/>
					<polyline fill="none" stroke="#502418" stroke-linecap="round" stroke-linejoin="round" stroke-miterlimit="10" points="
						47.1,73.8 39.9,73.8 39.9,87.1 47.1,86.9 47.1,86.9 					"/>
					<polygon fill="none" stroke="#502418" stroke-linecap="round" stroke-linejoin="round" stroke-miterlimit="10" points="
						43.5,68.3 47.3,69.8 51,74.3 48.2,73.8 					"/>
					<polygon fill="none" stroke="#502418" stroke-linecap="round" stroke-linejoin="round" stroke-miterlimit="10" points="
						47.1,86.9 48.5,86.9 49.7,74.3 47.1,73.8 					"/>
					<polygon fill="none" stroke="#502418" stroke-linecap="round" stroke-linejoin="round" stroke-miterlimit="10" points="
						46.1,80.2 46.1,85.8 43.4,85.8 40.9,85.8 40.9,80.2 40.9,74.8 43.4,74.8 46.1,74.8 					"/>
					<polyline fill="none" stroke="#502418" stroke-miterlimit="10" points="40.9,80.2 43.4,80.2 46.1,80.2 					"/>
					<polyline fill="none" stroke="#502418" stroke-miterlimit="10" points="43.4,74.8 43.4,80.2 43.4,84.3 43.4,85.6 43.4,85.8 
											"/>
				</g>
			</g>
			<polygon fill="#752A26" points="61,50 64.4,52 64.3,54.2 80.9,93.5 67.5,86.2 61,52 			"/>
		</g>
		<polygon fill="#752A26" points="68.6,88.3 73,95.3 85,101.8 81.5,95.2 		"/>
		<path fill="#502418" d="M31.9,187h-0.3c-0.4,0-0.7-0.3-0.7-0.7v-40.8c0-0.4,0.3-0.7,0.7-0.7h0.3c0.4,0,0.7,0.3,0.7,0.7v40.8
			C32.6,186.7,32.3,187,31.9,187z"/>
		<path fill="#502418" d="M56.8,187h-0.3c-0.4,0-0.7-0.3-0.7-0.7v-40.8c0-0.4,0.3-0.7,0.7-0.7h0.3c0.4,0,0.7,0.3,0.7,0.7v40.8
			C57.5,186.7,57.2,187,56.8,187z"/>
		<path fill="#8ACAB1" stroke="#502418" stroke-miterlimit="10" d="M24.4,140.9h16.5c0,0-0.6-35.7-8.2-35.7S24.4,140.9,24.4,140.9z"
			/>
		<path fill="#8ACAB1" stroke="#502418" stroke-miterlimit="10" d="M48.2,140.9h16.5c0,0-0.6-35.7-8.2-35.7S48.2,140.9,48.2,140.9z"
			/>
		<path opacity="0.67" fill="#B6DCCB" d="M25.6,139.4h7.9l-7-11.9C26.5,127.5,25.8,135.4,25.6,139.4z"/>
		<path opacity="0.67" fill="#B6DCCB" d="M49.5,139.4h7.9l-7.1-12.1C50.3,127.2,49.6,134.4,49.5,139.4z"/>
	</g>
	<g>
		<path fill="#017B35" d="M484,166.8c0,0,15.1-14-2.4-19.6c0,0,19.4-8.9,2.6-15.7c0,0,11.3-14.8-2.6-19.9c0,0-23.5-8.7-27.6-35.1
			l-0.1-2.2c0,0.2-0.1,0.4-0.1,0.6c0-0.2-0.1-0.4-0.1-0.6l-0.1,2.2c-4.1,26.4-22.5,35.1-22.5,35.1c-13.9,5-2.6,19.9-2.6,19.9
			c-16.8,6.8,2.6,15.7,2.6,15.7c-17.5,5.6-2.4,19.6-2.4,19.6c-18.2,8.3,2.2,19.6,2.2,19.6c-9.3-0.6-12.5,12.2,4.8,17.8
			c8.6,2.8,15.7,1.6,20.7-0.4c5,1.9,12.1,3.1,20.7,0.4c17.3-5.6,14.1-18.4,4.8-17.8C481.8,186.4,502.2,175.1,484,166.8z"/>
		<polygon fill="#693D16" points="458,215.4 452,215.4 451.5,214.3 451.9,202 457.1,201 458,202 		"/>
		<rect x="452" y="201.4" fill="#7E5020" width="5" height="13"/>
		<path fill="#3EAB37" d="M481.5,165.8c0,0,15.1-14-2.4-19.6c0,0,19.4-8.9,2.6-15.7c0,0,11.3-14.8-2.6-19.9c0,0-20.9-8.2-25.1-34.6
			l-0.1-2.2c0,0.2-0.1,0.4-0.1,0.6c0-0.2-0.1-0.4-0.1-0.6l-0.1,2.2c-4.1,26.4-25.1,34.6-25.1,34.6c-13.9,5-2.6,19.9-2.6,19.9
			c-16.8,6.8,2.6,15.7,2.6,15.7c-17.5,5.6-2.4,19.6-2.4,19.6c-18.2,8.3,2.2,19.6,2.2,19.6c-9.3-0.6-12.5,12.2,4.8,17.8
			c8.6,2.8,15.7,1.6,20.7-0.4c5,1.9,12.1,3.1,20.7,0.4c17.3-5.6,14.1-18.4,4.8-17.8C479.2,185.4,499.6,174.1,481.5,165.8z"/>
	</g>
	<g>
		<path fill="#0D602C" d="M281.5,111.5c0,0,13.3-12.3-2.1-17.2c0,0,17-7.8,2.3-13.8c0,0,9.9-13.1-2.3-17.5c0,0-20.7-7.6-24.3-30.9
			l-0.1-2c0,0.2,0,0.4-0.1,0.6c0-0.2-0.1-0.4-0.1-0.6l-0.1,2C251.1,55.3,235,62.9,235,62.9c-12.2,4.4-2.3,17.5-2.3,17.5
			c-14.8,6,2.3,13.8,2.3,13.8c-15.4,5-2.1,17.2-2.1,17.2c-16,7.3,2,17.2,2,17.2c-8.1-0.5-11,10.7,4.2,15.7
			c7.5,2.5,13.8,1.4,18.2-0.3c4.4,1.7,10.6,2.8,18.2,0.3c15.2-5,12.4-16.2,4.2-15.7C279.6,128.7,297.5,118.8,281.5,111.5z"/>
		<polygon fill="#693D16" points="260,162.4 256.4,162.4 256.1,161.9 256.3,135.7 259.4,135.1 260,135.7 		"/>
		<rect x="256" y="134.4" fill="#7E5020" width="3" height="27"/>
		<path fill="#036F32" d="M279.3,110.6c0,0,13.3-12.3-2.1-17.2c0,0,17-7.8,2.3-13.8c0,0,9.9-13.1-2.3-17.5c0,0-18.4-7.2-22-30.4
			l-0.1-2c0,0.2,0,0.4-0.1,0.6c0-0.2-0.1-0.4-0.1-0.6l-0.1,2c-3.6,23.2-22,30.4-22,30.4c-12.2,4.4-2.3,17.5-2.3,17.5
			c-14.8,6,2.3,13.8,2.3,13.8c-15.4,5-2.1,17.2-2.1,17.2c-16,7.3,2,17.2,2,17.2c-8.1-0.5-11,10.7,4.2,15.7
			c7.5,2.5,13.8,1.4,18.2-0.3c4.4,1.7,10.6,2.8,18.2,0.3c15.2-5,12.4-16.2,4.2-15.7C277.3,127.8,295.3,117.9,279.3,110.6z"/>
	</g>
	<g>
		<polygon fill="#D44D2E" stroke="#502418" stroke-linecap="round" stroke-linejoin="round" stroke-miterlimit="10" points="
			285.5,138.9 279.5,138.9 279.5,137.9 284.9,137.9 		"/>
		<polygon fill="#DEDEB3" stroke="#502418" stroke-linejoin="round" stroke-miterlimit="10" points="262.5,125.5 280.5,131.4 
			280.5,221.7 262.5,212.7 		"/>
		<polyline fill="#F6F6D6" stroke="#502418" stroke-linejoin="round" stroke-miterlimit="10" points="227,126.9 264.5,126.9 
			264.5,212.9 227.1,212.9 227.3,127 		"/>
		<polygon fill="#CDCAA4" points="266,131.5 281,138.8 281,133.3 266,126.8 		"/>
		<polygon fill="#EDBE39" stroke="#502418" stroke-linejoin="round" stroke-miterlimit="10" points="247.8,82.6 265.5,92.6 
			265.5,100.5 252,93.9 247.5,91.3 247.5,85.4 		"/>
		<polygon fill="#CCA128" points="249,83.3 258.6,94.7 249,91.2 		"/>
		<polygon fill="#EDBE39" stroke="#502418" stroke-linejoin="round" stroke-miterlimit="10" points="250.2,91.6 268.5,100.7 
			268.5,108.6 255,102 250.5,99.4 250.5,93.5 		"/>
		<polygon fill="#CCA128" points="252.1,92.3 262.6,101.4 252.3,98 		"/>
		<polygon fill="#EDBE39" stroke="#502418" stroke-linejoin="round" stroke-miterlimit="10" points="255.7,98.5 273.5,107.8 
			273.5,115.8 259,109.2 253.5,106.5 253.5,100.7 		"/>
		<polygon fill="#CCA128" points="255.6,98.5 266.2,110.2 256.3,105.9 		"/>
		<polygon fill="#EDBE39" stroke="#502418" stroke-linejoin="round" stroke-miterlimit="10" points="257.2,106.5 275.5,115.9 
			275.5,123.9 262,117.3 257.5,114.6 257.5,108.8 		"/>
		<polygon fill="#CCA128" points="258.6,107.3 269,117.4 258.7,114 		"/>
		<polygon fill="#EDBE39" stroke="#502418" stroke-linejoin="round" stroke-miterlimit="10" points="262.2,114.6 279.5,124 
			279.5,131.9 265.5,125.3 260.5,122.7 260.5,116.9 		"/>
		<polygon fill="#CCA128" points="263.5,115.2 273.6,125 263.6,121.8 		"/>
		<polygon fill="#EDBE39" stroke="#502418" stroke-linejoin="round" stroke-miterlimit="10" points="267,122.2 283.5,131.6 
			283.5,137.4 266.6,128.4 		"/>
		<polygon fill="#CCA128" points="268.2,122.9 278.5,133.3 268,128.2 		"/>
		<polygon fill="#DEDEB3" points="227.1,131.4 227,125.3 264,124.2 264,131.4 		"/>
		<g>
			<rect x="225.5" y="130.9" fill="none" stroke="#502418" stroke-miterlimit="10" width="19" height="16"/>
			
				<rect x="223.4" y="136.8" transform="matrix(0.7071 0.7071 -0.7071 0.7071 166.2564 -126.6045)" fill="#502418" width="25" height="1.1"/>
			
				<rect x="223.7" y="136.5" transform="matrix(-0.7071 0.7071 -0.7071 -0.7071 500.2286 67.0051)" fill="#502418" width="25" height="1.1"/>
		</g>
		<g>
			<rect x="244.5" y="130.9" fill="none" stroke="#502418" stroke-miterlimit="10" width="20" height="16"/>
			
				<rect x="242.8" y="136.9" transform="matrix(0.7071 0.7071 -0.7071 0.7071 171.9295 -140.3005)" fill="#502418" width="25" height="1"/>
			
				<rect x="242.8" y="136.9" transform="matrix(-0.7071 0.7071 -0.7071 -0.7071 533.0099 53.9939)" fill="#502418" width="25" height="1"/>
		</g>
		<polygon fill="#FDD03B" stroke="#502418" stroke-linejoin="round" stroke-miterlimit="10" points="260.5,122.9 260.5,115.9 
			257.5,115.9 257.5,107.9 254.5,107.9 254.5,98.9 250.5,98.9 250.5,90.9 247.5,90.9 247.5,83.9 247.5,83.9 245.7,83.9 243.5,83.9 
			243.5,90.9 238.5,90.9 238.5,98.9 236.5,98.9 236.5,107.9 232.5,107.9 232.5,115.9 227.5,115.9 227.5,122.9 222.5,122.9 
			222.5,130.9 245.7,130.9 247.5,130.9 267.5,130.9 267.5,122.9 		"/>
		<g>
			<polygon fill="#E5E5C3" points="230,193.9 230,193.9 230,178.7 230,179.3 			"/>
			<polygon fill="#D2CFB1" points="230.5,179.4 229.7,178.8 242.4,178.7 242.7,179.4 			"/>
			<rect x="230" y="179.4" fill="#8ACAB1" width="12" height="15"/>
			<polygon fill="#A8D6C1" points="232,184.4 232,193.4 239.8,193.4 			"/>
			<g>
				<path fill="#502418" d="M242,180.4v12h-11v-12H242 M243,179.4h-13v14h13V179.4L243,179.4z"/>
			</g>
			<rect x="242" y="178.4" fill="#F6F6D6" width="1" height="16"/>
			<rect x="228" y="193.4" fill="#F6F6D6" width="17" height="1"/>
			<rect x="236" y="179.4" fill="#502418" width="2" height="14"/>
			<rect x="232" y="185.4" fill="#502418" width="10" height="2"/>
		</g>
		<g>
			<rect x="245" y="178.4" fill="#502418" width="15" height="33"/>
			<polygon fill="#E5E5C3" points="245,212 245,212 245,178.4 245,178.7 			"/>
			<polygon fill="#D2CFB1" points="245.8,178.4 245.1,178.4 260.6,178.4 261.3,178.4 			"/>
			<rect x="260" y="178.4" fill="#F6F6D6" width="1" height="33"/>
		</g>
	</g>
	<g>
		<polygon fill="#DFDEBA" points="221,299.4 338,363 338,274.6 219.4,209.8 		"/>
		<polygon fill="#55514F" points="231,167.2 210.3,167.1 209.1,152.7 		"/>
		<polygon fill="#C4C09D" points="213.1,172.9 315.6,227.7 338.1,274.8 245.1,223.7 219.3,209.7 202.7,197.5 		"/>
		<polygon fill="#DFDEBA" points="194,192.9 213,203.3 213,154.7 198,146.9 194.1,152.3 		"/>
		<polyline fill="#3B3835" points="180.5,64.2 210.8,147.1 231,167.2 204.4,152.6 180.9,135.9 180.5,64.2 		"/>
		<polygon fill="#55514F" points="141.1,152.4 204.4,152.4 187.1,135.8 180.5,64 159.9,135.2 		"/>
		<g>
			<rect x="155" y="152.4" fill="#F6F6D6" width="39" height="63"/>
			<polygon fill="#F6F6D6" points="194,193.2 155.2,193.3 132,210.6 132,299.4 221,299.4 221,210.6 			"/>
		</g>
		<polyline fill="#C4C09D" points="194.1,192.9 229.8,212.6 245.2,223.8 221.4,210.8 194.1,193.2 		"/>
		<g>
			<polygon fill="#2E1A14" points="182,61.4 179.9,61.4 178.9,61.4 182,61.4 			"/>
			<polygon fill="#3B1E17" points="182,61.8 181,61.3 181,36.9 182,37.4 			"/>
			<polygon fill="#2E1A14" points="189.8,47.3 181.7,47.4 181,46.8 181,46.4 188.8,46.4 			"/>
			<polygon fill="#2E1A14" points="179.6,47.3 171.2,47.4 170,46.8 170,46.4 178.6,46.4 			"/>
			<rect x="179" y="36.4" fill="#502418" width="2" height="25"/>
			<rect x="170" y="45.4" fill="#502418" width="19" height="1"/>
			<polygon fill="#3B1E17" points="190,47.4 189,46.8 189,45.3 190,45.8 			"/>
		</g>
		<rect x="180" y="61.4" fill="#3B3835" width="1" height="3"/>
		<circle fill="#3B3835" cx="174.1" cy="172.7" r="12.8"/>
		<line fill="none" stroke="#B64138" stroke-width="2" stroke-miterlimit="10" x1="173" y1="172.4" x2="179" y2="172.4"/>
		<line fill="none" stroke="#B64138" stroke-width="2" stroke-miterlimit="10" x1="174" y1="172.4" x2="174" y2="162.4"/>
		<path fill="#502418" d="M155.3,299.4c0,0-3.1-62,18.6-62s20.3,62,20.3,62H155.3z"/>
		<line fill="none" stroke="#3B1E17" stroke-width="2" stroke-miterlimit="10" x1="173" y1="237.4" x2="173" y2="299.4"/>
	</g>
	<g>
		<polygon fill="#0B6E31" points="-21.7,224.4 -24,222.9 5.9,111.9 8.2,113.2 47.1,224.4 		"/>
		<polygon fill="#693D16" points="12,230.4 8.8,230.4 8.5,229.8 8.8,218.9 11.8,218.2 12,218.9 		"/>
		<rect x="8" y="218.4" fill="#7E5020" width="4" height="12"/>
		<polygon fill="#008938" points="-24,223.4 5.9,112.3 44.8,223.4 		"/>
	</g>
	<g>
		<polygon fill="#0B6E31" points="51.3,298.4 49,296.9 78.9,185.9 81.2,187.2 120.1,298.4 		"/>
		<polygon fill="#693D16" points="85,304.4 81.8,304.4 81.5,303.8 81.8,292.9 84.8,292.2 85,292.9 		"/>
		<rect x="81" y="292.4" fill="#7E5020" width="4" height="12"/>
		<polygon fill="#008938" points="49,297.4 78.9,186.3 117.8,297.4 		"/>
	</g>
	<g>
		<path fill="#017B35" d="M142,254.8c0,0,15.1-14-2.4-19.6c0,0,19.4-8.9,2.6-15.7c0,0,11.3-14.8-2.6-19.9c0,0-23.5-8.7-27.6-35.1
			l-0.1-2.2c0,0.2-0.1,0.4-0.1,0.6c0-0.2-0.1-0.4-0.1-0.6l-0.1,2.2c-4.1,26.4-22.5,35.1-22.5,35.1c-13.9,5-2.6,19.9-2.6,19.9
			c-16.8,6.8,2.6,15.7,2.6,15.7c-17.5,5.6-2.4,19.6-2.4,19.6c-18.2,8.3,2.2,19.6,2.2,19.6c-9.3-0.6-12.5,12.2,4.8,17.8
			c8.6,2.8,15.7,1.6,20.7-0.4c5,1.9,12.1,3.1,20.7,0.4c17.3-5.6,14.1-18.4,4.8-17.8C139.8,274.4,160.2,263.1,142,254.8z"/>
		<polygon fill="#693D16" points="116,303.4 110,303.4 109.5,302.3 109.9,290 115.1,289 116,290 		"/>
		<rect x="110" y="289.4" fill="#7E5020" width="5" height="13"/>
		<path fill="#3EAB37" d="M139.5,253.8c0,0,15.1-14-2.4-19.6c0,0,19.4-8.9,2.6-15.7c0,0,11.3-14.8-2.6-19.9c0,0-20.9-8.2-25.1-34.6
			l-0.1-2.2c0,0.2-0.1,0.4-0.1,0.6c0-0.2-0.1-0.4-0.1-0.6l-0.1,2.2c-4.1,26.4-25.1,34.6-25.1,34.6c-13.9,5-2.6,19.9-2.6,19.9
			c-16.8,6.8,2.6,15.7,2.6,15.7c-17.5,5.6-2.4,19.6-2.4,19.6c-18.2,8.3,2.2,19.6,2.2,19.6c-9.3-0.6-12.5,12.2,4.8,17.8
			c8.6,2.8,15.7,1.6,20.7-0.4c5,1.9,12.1,3.1,20.7,0.4c17.3-5.6,14.1-18.4,4.8-17.8C137.2,273.4,157.6,262.1,139.5,253.8z"/>
	</g>
	<g>
		<path fill="#086731" d="M328.7,195.1c0,0,13.4-12.4-2.1-17.4c0,0,17.2-7.9,2.3-13.9c0,0,10-13.1-2.3-17.6c0,0-20.8-7.7-24.5-31.1
			l-0.1-2c0,0.2,0,0.4-0.1,0.6c0-0.2-0.1-0.4-0.1-0.6l-0.1,2c-3.7,23.4-19.9,31.1-19.9,31.1c-12.3,4.5-2.3,17.6-2.3,17.6
			c-14.9,6,2.3,13.9,2.3,13.9c-15.5,5-2.1,17.4-2.1,17.4c-16.1,7.4,2,17.4,2,17.4c-8.2-0.5-11.1,10.8,4.2,15.8
			c7.6,2.5,13.9,1.4,18.3-0.3c4.4,1.7,10.7,2.8,18.3,0.3c15.3-5,12.4-16.3,4.2-15.8C326.7,212.4,344.8,202.4,328.7,195.1z"/>
		<polygon fill="#693D16" points="305,242.4 300.3,242.4 299.9,241.6 300.3,226.2 304.6,225.3 305,226.2 		"/>
		<rect x="300" y="225.4" fill="#7E5020" width="4" height="16"/>
		<path fill="#008C39" d="M326.4,194.2c0,0,13.4-12.4-2.1-17.4c0,0,17.2-7.9,2.3-13.9c0,0,10-13.1-2.3-17.6c0,0-18.5-7.2-22.2-30.6
			l-0.1-2c0,0.2,0,0.4-0.1,0.6c0-0.2-0.1-0.4-0.1-0.6l-0.1,2c-3.7,23.4-22.2,30.6-22.2,30.6c-12.3,4.5-2.3,17.6-2.3,17.6
			c-14.9,6,2.3,13.9,2.3,13.9c-15.5,5-2.1,17.4-2.1,17.4c-16.1,7.4,2,17.4,2,17.4c-8.2-0.5-11.1,10.8,4.2,15.8
			c7.6,2.5,13.9,1.4,18.3-0.3c4.4,1.7,10.7,2.8,18.3,0.3c15.3-5,12.4-16.3,4.2-15.8C324.5,211.5,342.5,201.5,326.4,194.2z"/>
	</g>
	<g>
		<polygon fill="#0B6E31" points="378.3,199.4 376,197.9 405.9,86.9 408.2,88.2 447.1,199.4 		"/>
		<polygon fill="#693D16" points="412,205.4 408.8,205.4 408.5,204.8 408.8,193.9 411.8,193.2 412,193.9 		"/>
		<rect x="408" y="193.4" fill="#7E5020" width="4" height="12"/>
		<polygon fill="#008938" points="376,198.4 405.9,87.3 444.8,198.4 		"/>
	</g>
	<g>
		<polygon fill="#D44D2E" stroke="#502418" stroke-linecap="round" stroke-linejoin="round" stroke-miterlimit="10" points="
			85.4,192.9 78.5,192.9 78.5,190.9 84.7,190.9 		"/>
		<polygon fill="#99342F" stroke="#502418" stroke-linejoin="round" stroke-miterlimit="10" points="59.5,177.2 79.5,184 
			79.5,288.5 59.5,278.1 		"/>
		<polyline fill="#B64138" stroke="#502418" stroke-linejoin="round" stroke-miterlimit="10" points="16,178.9 59.5,178.9 
			59.5,278.9 17.8,278.9 17.1,179.3 		"/>
		<polygon fill="#752A26" points="62,184.2 80,192.6 80,186.3 62,178.7 		"/>
		<polygon fill="#DFDEBA" stroke="#502418" stroke-linejoin="round" stroke-miterlimit="10" points="41.5,127.6 61.5,139.1 
			61.5,148.3 46.3,140.7 41.5,137.7 41.5,130.9 		"/>
		<polygon fill="#C4C09D" points="43.1,128.5 54.3,141.6 43.1,137.5 		"/>
		<polygon fill="#DFDEBA" stroke="#502418" stroke-linejoin="round" stroke-miterlimit="10" points="45.3,138 66.5,148.5 
			66.5,157.7 50.8,150 45.5,147 45.5,140.2 		"/>
		<polygon fill="#C4C09D" points="46.7,138.8 58.9,149.4 47,145.4 		"/>
		<polygon fill="#DFDEBA" stroke="#502418" stroke-linejoin="round" stroke-miterlimit="10" points="49.9,146 69.5,156.8 69.5,166 
			53.8,158.3 48.5,155.3 48.5,148.5 		"/>
		<polygon fill="#C4C09D" points="50.8,146 63,159.5 51.5,154.6 		"/>
		<polygon fill="#DFDEBA" stroke="#502418" stroke-linejoin="round" stroke-miterlimit="10" points="52.8,155.3 74.5,166.1 
			74.5,175.3 58.3,167.7 52.5,164.7 52.5,157.9 		"/>
		<polygon fill="#C4C09D" points="54.2,156.2 66.3,167.9 54.3,163.9 		"/>
		<polygon fill="#DFDEBA" stroke="#502418" stroke-linejoin="round" stroke-miterlimit="10" points="58.4,164.6 78.5,175.5 
			78.5,184.7 62.3,177 56.5,174 56.5,167.2 		"/>
		<polygon fill="#C4C09D" points="59.9,165.3 71.6,176.6 60,172.9 		"/>
		<polygon fill="#DFDEBA" stroke="#502418" stroke-linejoin="round" stroke-miterlimit="10" points="64.1,173.5 83.5,184.3 
			83.5,191 63.9,180.6 		"/>
		<polygon fill="#C4C09D" points="65.4,174.3 77.2,186.3 65.1,180.3 		"/>
		<polygon fill="#99342F" points="17.8,183.4 17.9,176.7 61,175.7 61,183.4 		"/>
		<g>
			<rect x="16.5" y="181.9" fill="none" stroke="#502418" stroke-miterlimit="10" width="21" height="20"/>
			
				<rect x="13.6" y="190.3" transform="matrix(0.7071 0.7071 -0.7071 0.7071 143.2482 36.1134)" fill="#502418" width="28.9" height="1.3"/>
			
				<rect x="13.9" y="190" transform="matrix(-0.7071 0.7071 -0.7071 -0.7071 183.2186 305.3974)" fill="#502418" width="28.9" height="1.3"/>
		</g>
		<g>
			<rect x="38.5" y="181.9" fill="none" stroke="#502418" stroke-miterlimit="10" width="21" height="20"/>
			
				<rect x="36" y="190.4" transform="matrix(0.7071 0.7071 -0.7071 0.7071 149.8089 20.2744)" fill="#502418" width="28.9" height="1.2"/>
			
				<rect x="36" y="190.4" transform="matrix(-0.7071 0.7071 -0.7071 -0.7071 221.1292 290.3504)" fill="#502418" width="28.9" height="1.2"/>
		</g>
		<polygon fill="#F6F6D6" stroke="#502418" stroke-linejoin="round" stroke-miterlimit="10" points="58.5,173.9 58.5,164.9 
			52.5,164.9 52.5,155.9 50.5,155.9 50.5,145.9 45.5,145.9 45.5,138.9 41.5,138.9 41.5,127.9 41.4,127.9 39.3,127.9 36.5,127.9 
			36.5,138.9 31.5,138.9 31.5,145.9 27.5,145.9 27.5,155.9 23.5,155.9 23.5,164.9 18.5,164.9 18.5,173.9 12.5,173.9 12.5,181.9 
			39.3,181.9 41.4,181.9 64.5,181.9 64.5,173.9 		"/>
		<g>
			<polygon fill="#99342F" points="22,256.4 21,256.4 21,238.8 22,239.5 			"/>
			<polygon fill="#752A26" points="21.7,239.4 20.8,238.7 35.5,238.6 35.8,239.4 			"/>
			<rect x="22" y="239.4" fill="#8ACAB1" width="13" height="17"/>
			<polygon fill="#A8D6C1" points="22,245.3 22,255.4 32.5,255.4 			"/>
			<g>
				<path fill="#502418" d="M35,240.4v15H23v-15H35 M36,239.4H22v17h14V239.4L36,239.4z"/>
			</g>
			<rect x="35" y="238.4" fill="#B64138" width="2" height="18"/>
			<rect x="19" y="255.4" fill="#B64138" width="19" height="1"/>
			<rect x="28" y="239.4" fill="#502418" width="1" height="16"/>
			<rect x="22" y="246.4" fill="#502418" width="13" height="1"/>
		</g>
		<g>
			<rect x="39" y="238.4" fill="#502418" width="17" height="39"/>
			<rect x="56" y="238.4" fill="#B64138" width="0" height="39"/>
		</g>
	</g>
	<g>
		<polygon fill="#D44D2E" stroke="#502418" stroke-linecap="round" stroke-linejoin="round" stroke-miterlimit="10" points="
			384.4,199.9 377.5,199.9 377.5,197.9 383.7,197.9 		"/>
		<polygon fill="#99342F" stroke="#502418" stroke-linejoin="round" stroke-miterlimit="10" points="358.5,184.2 378.5,191 
			378.5,295.5 358.5,285.1 		"/>
		<polyline fill="#B64138" stroke="#502418" stroke-linejoin="round" stroke-miterlimit="10" points="315,185.9 358.5,185.9 
			358.5,285.9 316.8,285.9 316.1,186.3 		"/>
		<polygon fill="#752A26" points="361,191.2 379,199.6 379,193.3 361,185.7 		"/>
		<polygon fill="#DFDEBA" stroke="#502418" stroke-linejoin="round" stroke-miterlimit="10" points="340.5,134.6 360.5,146.1 
			360.5,155.3 345.3,147.7 340.5,144.7 340.5,137.9 		"/>
		<polygon fill="#C4C09D" points="342.1,135.5 353.3,148.6 342.1,144.5 		"/>
		<polygon fill="#DFDEBA" stroke="#502418" stroke-linejoin="round" stroke-miterlimit="10" points="344.3,145 365.5,155.5 
			365.5,164.7 349.8,157 344.5,154 344.5,147.2 		"/>
		<polygon fill="#C4C09D" points="345.7,145.8 357.9,156.4 346,152.4 		"/>
		<polygon fill="#DFDEBA" stroke="#502418" stroke-linejoin="round" stroke-miterlimit="10" points="348.9,153 368.5,163.8 
			368.5,173 352.8,165.3 347.5,162.3 347.5,155.5 		"/>
		<polygon fill="#C4C09D" points="349.8,153 362,166.5 350.5,161.6 		"/>
		<polygon fill="#DFDEBA" stroke="#502418" stroke-linejoin="round" stroke-miterlimit="10" points="351.8,162.3 373.5,173.1 
			373.5,182.3 357.3,174.7 351.5,171.7 351.5,164.9 		"/>
		<polygon fill="#C4C09D" points="353.2,163.2 365.3,174.9 353.3,170.9 		"/>
		<polygon fill="#DFDEBA" stroke="#502418" stroke-linejoin="round" stroke-miterlimit="10" points="357.4,171.6 377.5,182.5 
			377.5,191.7 361.3,184 355.5,181 355.5,174.2 		"/>
		<polygon fill="#C4C09D" points="358.9,172.3 370.6,183.6 359,179.9 		"/>
		<polygon fill="#DFDEBA" stroke="#502418" stroke-linejoin="round" stroke-miterlimit="10" points="363.1,180.5 382.5,191.3 
			382.5,198 362.9,187.6 		"/>
		<polygon fill="#C4C09D" points="364.4,181.3 376.2,193.3 364.1,187.3 		"/>
		<polygon fill="#99342F" points="316.8,190.4 316.9,183.7 360,182.7 360,190.4 		"/>
		<g>
			<rect x="315.5" y="188.9" fill="none" stroke="#502418" stroke-miterlimit="10" width="21" height="20"/>
			
				<rect x="312.6" y="197.3" transform="matrix(0.7071 0.7071 -0.7071 0.7071 235.773 -173.2613)" fill="#502418" width="28.9" height="1.3"/>
			
				<rect x="312.9" y="197" transform="matrix(-0.7071 0.7071 -0.7071 -0.7071 698.5933 105.9222)" fill="#502418" width="28.9" height="1.3"/>
		</g>
		<g>
			<rect x="337.5" y="188.9" fill="none" stroke="#502418" stroke-miterlimit="10" width="21" height="20"/>
			
				<rect x="335" y="197.4" transform="matrix(0.7071 0.7071 -0.7071 0.7071 242.3337 -189.1002)" fill="#502418" width="28.9" height="1.2"/>
			
				<rect x="335" y="197.4" transform="matrix(-0.7071 0.7071 -0.7071 -0.7071 736.5038 90.8752)" fill="#502418" width="28.9" height="1.2"/>
		</g>
		<polygon fill="#F6F6D6" stroke="#502418" stroke-linejoin="round" stroke-miterlimit="10" points="357.5,180.9 357.5,171.9 
			351.5,171.9 351.5,162.9 349.5,162.9 349.5,152.9 344.5,152.9 344.5,145.9 340.5,145.9 340.5,134.9 340.4,134.9 338.3,134.9 
			335.5,134.9 335.5,145.9 330.5,145.9 330.5,152.9 326.5,152.9 326.5,162.9 322.5,162.9 322.5,171.9 317.5,171.9 317.5,180.9 
			311.5,180.9 311.5,188.9 338.3,188.9 340.4,188.9 363.5,188.9 363.5,180.9 		"/>
		<g>
			<polygon fill="#99342F" points="321,263.4 320,263.4 320,245.8 321,246.5 			"/>
			<polygon fill="#752A26" points="320.7,246.4 319.8,245.7 334.5,245.6 334.8,246.4 			"/>
			<rect x="321" y="246.4" fill="#8ACAB1" width="13" height="17"/>
			<polygon fill="#A8D6C1" points="321,252.3 321,262.4 331.5,262.4 			"/>
			<g>
				<path fill="#502418" d="M334,247.4v15h-12v-15H334 M335,246.4h-14v17h14V246.4L335,246.4z"/>
			</g>
			<rect x="334" y="245.4" fill="#B64138" width="2" height="18"/>
			<rect x="318" y="262.4" fill="#B64138" width="19" height="1"/>
			<rect x="327" y="246.4" fill="#502418" width="1" height="16"/>
			<rect x="321" y="253.4" fill="#502418" width="13" height="1"/>
		</g>
		<g>
			<rect x="338" y="245.4" fill="#502418" width="17" height="39"/>
			<rect x="355" y="245.4" fill="#B64138" width="0" height="39"/>
		</g>
	</g>
	<g>
		<polygon fill="#D44D2E" stroke="#502418" stroke-linecap="round" stroke-linejoin="round" stroke-miterlimit="10" points="
			423.5,195.9 417.5,195.9 417.5,194.9 422.9,194.9 		"/>
		<polygon fill="#DEDEB3" stroke="#502418" stroke-linejoin="round" stroke-miterlimit="10" points="400.5,182.5 418.5,188.4 
			418.5,278.7 400.5,269.7 		"/>
		<polyline fill="#F6F6D6" stroke="#502418" stroke-linejoin="round" stroke-miterlimit="10" points="365,183.9 402.5,183.9 
			402.5,269.9 365.1,269.9 365.3,184 		"/>
		<polygon fill="#CDCAA4" points="404,188.5 419,195.8 419,190.3 404,183.8 		"/>
		<polygon fill="#EDBE39" stroke="#502418" stroke-linejoin="round" stroke-miterlimit="10" points="385.8,139.6 403.5,149.6 
			403.5,157.5 390,150.9 385.5,148.3 385.5,142.4 		"/>
		<polygon fill="#CCA128" points="387,140.3 396.6,151.7 387,148.2 		"/>
		<polygon fill="#EDBE39" stroke="#502418" stroke-linejoin="round" stroke-miterlimit="10" points="388.2,148.6 406.5,157.7 
			406.5,165.6 393,159 388.5,156.4 388.5,150.5 		"/>
		<polygon fill="#CCA128" points="390.1,149.3 400.6,158.4 390.3,155 		"/>
		<polygon fill="#EDBE39" stroke="#502418" stroke-linejoin="round" stroke-miterlimit="10" points="393.7,155.5 411.5,164.8 
			411.5,172.8 397,166.2 391.5,163.5 391.5,157.7 		"/>
		<polygon fill="#CCA128" points="393.6,155.5 404.2,167.2 394.3,162.9 		"/>
		<polygon fill="#EDBE39" stroke="#502418" stroke-linejoin="round" stroke-miterlimit="10" points="395.2,163.5 413.5,172.9 
			413.5,180.9 400,174.3 395.5,171.6 395.5,165.8 		"/>
		<polygon fill="#CCA128" points="396.6,164.3 407,174.4 396.7,171 		"/>
		<polygon fill="#EDBE39" stroke="#502418" stroke-linejoin="round" stroke-miterlimit="10" points="400.2,171.6 417.5,181 
			417.5,188.9 403.5,182.3 398.5,179.7 398.5,173.9 		"/>
		<polygon fill="#CCA128" points="401.5,172.2 411.6,182 401.6,178.8 		"/>
		<polygon fill="#EDBE39" stroke="#502418" stroke-linejoin="round" stroke-miterlimit="10" points="405,179.2 421.5,188.6 
			421.5,194.4 404.6,185.4 		"/>
		<polygon fill="#CCA128" points="406.2,179.9 416.5,190.3 406,185.2 		"/>
		<polygon fill="#DEDEB3" points="365.1,188.4 365,182.3 402,181.2 402,188.4 		"/>
		<g>
			<rect x="363.5" y="187.9" fill="none" stroke="#502418" stroke-miterlimit="10" width="19" height="16"/>
			
				<rect x="361.4" y="193.8" transform="matrix(0.7071 0.7071 -0.7071 0.7071 246.9807 -207.4904)" fill="#502418" width="25" height="1.1"/>
			
				<rect x="361.7" y="193.5" transform="matrix(-0.7071 0.7071 -0.7071 -0.7071 776.1144 66.7294)" fill="#502418" width="25" height="1.1"/>
		</g>
		<g>
			<rect x="382.5" y="187.9" fill="none" stroke="#502418" stroke-miterlimit="10" width="20" height="16"/>
			
				<rect x="380.8" y="193.9" transform="matrix(0.7071 0.7071 -0.7071 0.7071 252.6538 -221.1863)" fill="#502418" width="25" height="1"/>
			
				<rect x="380.8" y="193.9" transform="matrix(-0.7071 0.7071 -0.7071 -0.7071 808.8958 53.7183)" fill="#502418" width="25" height="1"/>
		</g>
		<polygon fill="#FDD03B" stroke="#502418" stroke-linejoin="round" stroke-miterlimit="10" points="398.5,179.9 398.5,172.9 
			395.5,172.9 395.5,164.9 392.5,164.9 392.5,155.9 388.5,155.9 388.5,147.9 385.5,147.9 385.5,140.9 385.5,140.9 383.7,140.9 
			381.5,140.9 381.5,147.9 376.5,147.9 376.5,155.9 374.5,155.9 374.5,164.9 370.5,164.9 370.5,172.9 365.5,172.9 365.5,179.9 
			360.5,179.9 360.5,187.9 383.7,187.9 385.5,187.9 405.5,187.9 405.5,179.9 		"/>
		<g>
			<polygon fill="#E5E5C3" points="368,250.9 368,250.9 368,235.7 368,236.3 			"/>
			<polygon fill="#D2CFB1" points="368.5,236.4 367.7,235.8 380.4,235.7 380.7,236.4 			"/>
			<rect x="368" y="236.4" fill="#8ACAB1" width="12" height="15"/>
			<polygon fill="#A8D6C1" points="370,241.4 370,250.4 377.8,250.4 			"/>
			<g>
				<path fill="#502418" d="M380,237.4v12h-11v-12H380 M381,236.4h-13v14h13V236.4L381,236.4z"/>
			</g>
			<rect x="380" y="235.4" fill="#F6F6D6" width="1" height="16"/>
			<rect x="366" y="250.4" fill="#F6F6D6" width="17" height="1"/>
			<rect x="374" y="236.4" fill="#502418" width="2" height="14"/>
			<rect x="370" y="242.4" fill="#502418" width="10" height="2"/>
		</g>
		<g>
			<rect x="383" y="235.4" fill="#502418" width="15" height="33"/>
			<polygon fill="#E5E5C3" points="383,269 383,269 383,235.4 383,235.7 			"/>
			<polygon fill="#D2CFB1" points="383.8,235.4 383.1,235.4 398.6,235.4 399.3,235.4 			"/>
			<rect x="398" y="235.4" fill="#F6F6D6" width="1" height="33"/>
		</g>
	</g>
	<g>
		<polygon fill="#D44D2E" stroke="#502418" stroke-linecap="round" stroke-linejoin="round" stroke-miterlimit="10" points="
			105.5,270.9 99.5,270.9 99.5,269.9 104.9,269.9 		"/>
		<polygon fill="#DEDEB3" stroke="#502418" stroke-linejoin="round" stroke-miterlimit="10" points="82.5,257.5 100.5,263.4 
			100.5,353.7 82.5,344.7 		"/>
		<polyline fill="#F6F6D6" stroke="#502418" stroke-linejoin="round" stroke-miterlimit="10" points="47,258.9 84.5,258.9 
			84.5,344.9 47.1,344.9 47.3,259 		"/>
		<polygon fill="#CDCAA4" points="86,263.5 101,270.8 101,265.3 86,258.8 		"/>
		<polygon fill="#EDBE39" stroke="#502418" stroke-linejoin="round" stroke-miterlimit="10" points="67.8,214.6 85.5,224.6 
			85.5,232.5 72,225.9 67.5,223.3 67.5,217.4 		"/>
		<polygon fill="#CCA128" points="69,215.3 78.6,226.7 69,223.2 		"/>
		<polygon fill="#EDBE39" stroke="#502418" stroke-linejoin="round" stroke-miterlimit="10" points="70.2,223.6 88.5,232.7 
			88.5,240.6 75,234 70.5,231.4 70.5,225.5 		"/>
		<polygon fill="#CCA128" points="72.1,224.3 82.6,233.4 72.3,230 		"/>
		<polygon fill="#EDBE39" stroke="#502418" stroke-linejoin="round" stroke-miterlimit="10" points="75.7,230.5 93.5,239.8 
			93.5,247.8 79,241.2 73.5,238.5 73.5,232.7 		"/>
		<polygon fill="#CCA128" points="75.6,230.5 86.2,242.2 76.3,237.9 		"/>
		<polygon fill="#EDBE39" stroke="#502418" stroke-linejoin="round" stroke-miterlimit="10" points="77.2,238.5 95.5,247.9 
			95.5,255.9 82,249.3 77.5,246.6 77.5,240.8 		"/>
		<polygon fill="#CCA128" points="78.6,239.3 89,249.4 78.7,246 		"/>
		<polygon fill="#EDBE39" stroke="#502418" stroke-linejoin="round" stroke-miterlimit="10" points="82.2,246.6 99.5,256 
			99.5,263.9 85.5,257.3 80.5,254.7 80.5,248.9 		"/>
		<polygon fill="#CCA128" points="83.5,247.2 93.6,257 83.6,253.8 		"/>
		<polygon fill="#EDBE39" stroke="#502418" stroke-linejoin="round" stroke-miterlimit="10" points="87,254.2 103.5,263.6 
			103.5,269.4 86.6,260.4 		"/>
		<polygon fill="#CCA128" points="88.2,254.9 98.5,265.3 88,260.2 		"/>
		<polygon fill="#DEDEB3" points="47.1,263.4 47,257.3 84,256.2 84,263.4 		"/>
		<g>
			<rect x="45.5" y="262.9" fill="none" stroke="#502418" stroke-miterlimit="10" width="19" height="16"/>
			
				<rect x="43.4" y="268.8" transform="matrix(0.7071 0.7071 -0.7071 0.7071 206.8737 39.3366)" fill="#502418" width="25" height="1.1"/>
			
				<rect x="43.7" y="268.5" transform="matrix(-0.7071 0.7071 -0.7071 -0.7071 286.2875 419.6224)" fill="#502418" width="25" height="1.1"/>
		</g>
		<g>
			<rect x="64.5" y="262.9" fill="none" stroke="#502418" stroke-miterlimit="10" width="20" height="16"/>
			
				<rect x="62.8" y="268.9" transform="matrix(0.7071 0.7071 -0.7071 0.7071 212.5468 25.6406)" fill="#502418" width="25" height="1"/>
			
				<rect x="62.8" y="268.9" transform="matrix(-0.7071 0.7071 -0.7071 -0.7071 319.0689 406.6113)" fill="#502418" width="25" height="1"/>
		</g>
		<polygon fill="#FDD03B" stroke="#502418" stroke-linejoin="round" stroke-miterlimit="10" points="80.5,254.9 80.5,247.9 
			77.5,247.9 77.5,239.9 74.5,239.9 74.5,230.9 70.5,230.9 70.5,222.9 67.5,222.9 67.5,215.9 67.5,215.9 65.7,215.9 63.5,215.9 
			63.5,222.9 58.5,222.9 58.5,230.9 56.5,230.9 56.5,239.9 52.5,239.9 52.5,247.9 47.5,247.9 47.5,254.9 42.5,254.9 42.5,262.9 
			65.7,262.9 67.5,262.9 87.5,262.9 87.5,254.9 		"/>
		<g>
			<polygon fill="#E5E5C3" points="50,325.9 50,325.9 50,310.7 50,311.3 			"/>
			<polygon fill="#D2CFB1" points="50.5,311.4 49.7,310.8 62.4,310.7 62.7,311.4 			"/>
			<rect x="50" y="311.4" fill="#8ACAB1" width="12" height="15"/>
			<polygon fill="#A8D6C1" points="52,316.4 52,325.4 59.8,325.4 			"/>
			<g>
				<path fill="#502418" d="M62,312.4v12H51v-12H62 M63,311.4H50v14h13V311.4L63,311.4z"/>
			</g>
			<rect x="62" y="310.4" fill="#F6F6D6" width="1" height="16"/>
			<rect x="48" y="325.4" fill="#F6F6D6" width="17" height="1"/>
			<rect x="56" y="311.4" fill="#502418" width="2" height="14"/>
			<rect x="52" y="317.4" fill="#502418" width="10" height="2"/>
		</g>
		<g>
			<rect x="65" y="310.4" fill="#502418" width="15" height="33"/>
			<polygon fill="#E5E5C3" points="65,344 65,344 65,310.4 65,310.7 			"/>
			<polygon fill="#D2CFB1" points="65.8,310.4 65.1,310.4 80.6,310.4 81.3,310.4 			"/>
			<rect x="80" y="310.4" fill="#F6F6D6" width="1" height="33"/>
		</g>
	</g>
	<g>
		<path fill="#0D602C" d="M389.5,321.5c0,0,13.3-12.3-2.1-17.2c0,0,17-7.8,2.3-13.8c0,0,9.9-13.1-2.3-17.5c0,0-20.7-7.6-24.3-30.9
			l-0.1-2c0,0.2,0,0.4-0.1,0.6c0-0.2-0.1-0.4-0.1-0.6l-0.1,2c-3.6,23.2-19.8,30.9-19.8,30.9c-12.2,4.4-2.3,17.5-2.3,17.5
			c-14.8,6,2.3,13.8,2.3,13.8c-15.4,5-2.1,17.2-2.1,17.2c-16,7.3,2,17.2,2,17.2c-8.1-0.5-11,10.7,4.2,15.7
			c7.5,2.5,13.8,1.4,18.2-0.3c4.4,1.7,10.6,2.8,18.2,0.3c15.2-5,12.4-16.2,4.2-15.7C387.6,338.7,405.5,328.8,389.5,321.5z"/>
		<polygon fill="#693D16" points="368,372.4 364.4,372.4 364.1,371.9 364.3,345.7 367.4,345.1 368,345.7 		"/>
		<rect x="364" y="344.4" fill="#7E5020" width="3" height="27"/>
		<path fill="#036F32" d="M387.3,320.6c0,0,13.3-12.3-2.1-17.2c0,0,17-7.8,2.3-13.8c0,0,9.9-13.1-2.3-17.5c0,0-18.4-7.2-22-30.4
			l-0.1-2c0,0.2,0,0.4-0.1,0.6c0-0.2-0.1-0.4-0.1-0.6l-0.1,2c-3.6,23.2-22,30.4-22,30.4c-12.2,4.4-2.3,17.5-2.3,17.5
			c-14.8,6,2.3,13.8,2.3,13.8c-15.4,5-2.1,17.2-2.1,17.2c-16,7.3,2,17.2,2,17.2c-8.1-0.5-11,10.7,4.2,15.7
			c7.5,2.5,13.8,1.4,18.2-0.3c4.4,1.7,10.6,2.8,18.2,0.3c15.2-5,12.4-16.2,4.2-15.7C385.3,337.8,403.3,327.9,387.3,320.6z"/>
	</g>
	<g>
		<path fill="#0D602C" d="M140.5,328.5c0,0,10.6-9.8-1.7-13.8c0,0,13.6-6.3,1.8-11.1c0,0,8-10.5-1.8-14c0,0-16.6-6.1-19.5-24.7
			l-0.1-1.6c0,0.2,0,0.3-0.1,0.5c0-0.2,0-0.3-0.1-0.5l-0.1,1.6c-2.9,18.6-15.8,24.7-15.8,24.7c-9.8,3.6-1.8,14-1.8,14
			c-11.8,4.8,1.8,11.1,1.8,11.1c-12.3,4-1.7,13.8-1.7,13.8c-12.8,5.9,1.6,13.8,1.6,13.8c-6.5-0.4-8.8,8.6,3.4,12.6
			c6,2,11,1.1,14.6-0.2c3.5,1.4,8.5,2.2,14.6,0.2c12.2-4,9.9-13,3.4-12.6C138.9,342.3,153.3,334.3,140.5,328.5z"/>
		<polygon fill="#693D16" points="124,368.4 120.3,368.4 120.1,368.4 120.3,347.6 123.2,347.3 124,347.9 		"/>
		<rect x="120" y="347.4" fill="#7E5020" width="2" height="21"/>
		<path fill="#036F32" d="M138.7,327.7c0,0,10.6-9.8-1.7-13.8c0,0,13.6-6.3,1.8-11.1c0,0,8-10.5-1.8-14c0,0-14.7-5.7-17.7-24.4
			l-0.1-1.6c0,0.2,0,0.3-0.1,0.5c0-0.2,0-0.3-0.1-0.5l-0.1,1.6c-2.9,18.6-17.7,24.4-17.7,24.4c-9.8,3.6-1.8,14-1.8,14
			c-11.8,4.8,1.8,11.1,1.8,11.1c-12.3,4-1.7,13.8-1.7,13.8c-12.8,5.9,1.6,13.8,1.6,13.8c-6.5-0.4-8.8,8.6,3.4,12.6
			c6,2,11,1.1,14.6-0.2c3.5,1.4,8.5,2.2,14.6,0.2c12.2-4,9.9-13,3.4-12.6C137.1,341.6,151.5,333.6,138.7,327.7z"/>
	</g>
	<g>
		<path fill="#0D602C" d="M21.5,241.5c0,0,10.6-9.8-1.7-13.8c0,0,13.6-6.3,1.8-11.1c0,0,8-10.5-1.8-14c0,0-16.6-6.1-19.5-24.7
			l-0.1-1.6c0,0.2,0,0.3-0.1,0.5c0-0.2,0-0.3-0.1-0.5L0,177.8c-2.9,18.6-15.8,24.7-15.8,24.7c-9.8,3.6-1.8,14-1.8,14
			c-11.8,4.8,1.8,11.1,1.8,11.1c-12.3,4-1.7,13.8-1.7,13.8c-12.8,5.9,1.6,13.8,1.6,13.8c-6.5-0.4-8.8,8.6,3.4,12.6
			c6,2,11,1.1,14.6-0.2c3.5,1.4,8.5,2.2,14.6,0.2c12.2-4,9.9-13,3.4-12.6C19.9,255.3,34.3,247.3,21.5,241.5z"/>
		<polygon fill="#693D16" points="5,281.4 1.3,281.4 1.1,281.4 1.3,260.6 4.2,260.3 5,260.9 		"/>
		<rect x="1" y="260.4" fill="#7E5020" width="2" height="21"/>
		<path fill="#036F32" d="M19.7,240.7c0,0,10.6-9.8-1.7-13.8c0,0,13.6-6.3,1.8-11.1c0,0,8-10.5-1.8-14c0,0-14.7-5.7-17.7-24.4
			l-0.1-1.6c0,0.2,0,0.3-0.1,0.5c0-0.2,0-0.3-0.1-0.5L0,177.5c-2.9,18.6-17.7,24.4-17.7,24.4c-9.8,3.6-1.8,14-1.8,14
			c-11.8,4.8,1.8,11.1,1.8,11.1c-12.3,4-1.7,13.8-1.7,13.8c-12.8,5.9,1.6,13.8,1.6,13.8c-6.5-0.4-8.8,8.6,3.4,12.6
			c6,2,11,1.1,14.6-0.2c3.5,1.4,8.5,2.2,14.6,0.2c12.2-4,9.9-13,3.4-12.6C18.1,254.6,32.5,246.6,19.7,240.7z"/>
	</g>
	<g>
		<path fill="#0D602C" d="M76.2,366.7c0,0,10-9.2-1.6-12.9c0,0,12.8-5.9,1.7-10.4c0,0,7.5-9.8-1.7-13.1c0,0-15.5-5.7-18.2-23.2
			l-0.1-1.5c0,0.1,0,0.3-0.1,0.4c0-0.1,0-0.3-0.1-0.4l-0.1,1.5c-2.7,17.4-14.8,23.2-14.8,23.2c-9.2,3.3-1.7,13.1-1.7,13.1
			c-11.1,4.5,1.7,10.4,1.7,10.4c-11.5,3.7-1.6,12.9-1.6,12.9c-12,5.5,1.5,12.9,1.5,12.9c-6.1-0.4-8.3,8,3.2,11.8
			c5.7,1.8,10.3,1,13.6-0.2c3.3,1.3,8,2.1,13.6,0.2c11.4-3.7,9.3-12.2,3.2-11.8C74.7,379.6,88.2,372.2,76.2,366.7z"/>
		<polygon fill="#693D16" points="61,404.4 57.3,404.4 57.1,404.2 57.3,384.7 60.1,384.3 61,384.9 		"/>
		<rect x="57" y="384.4" fill="#7E5020" width="2" height="20"/>
		<path fill="#036F32" d="M74.5,366c0,0,10-9.2-1.6-12.9c0,0,12.8-5.9,1.7-10.4c0,0,7.5-9.8-1.7-13.1c0,0-13.8-5.4-16.5-22.8
			l-0.1-1.5c0,0.1,0,0.3-0.1,0.4c0-0.1,0-0.3-0.1-0.4l-0.1,1.5c-2.7,17.4-16.5,22.8-16.5,22.8c-9.2,3.3-1.7,13.1-1.7,13.1
			c-11.1,4.5,1.7,10.4,1.7,10.4C28,356.8,37.9,366,37.9,366c-12,5.5,1.5,12.9,1.5,12.9c-6.1-0.4-8.3,8,3.2,11.8
			c5.7,1.8,10.3,1,13.6-0.2c3.3,1.3,8,2.1,13.6,0.2c11.4-3.7,9.3-12.2,3.2-11.8C73,378.9,86.5,371.5,74.5,366z"/>
	</g>
	<g>
		<polygon fill="#0B6E31" points="397.3,391.4 395,389.9 424.9,278.9 427.2,280.2 466.1,391.4 		"/>
		<polygon fill="#693D16" points="431,397.4 427.8,397.4 427.5,396.8 427.8,385.9 430.8,385.2 431,385.9 		"/>
		<rect x="427" y="385.4" fill="#7E5020" width="4" height="12"/>
		<polygon fill="#008938" points="395,390.4 424.9,279.3 463.8,390.4 		"/>
	</g>
	<g>
		<path fill="#086731" d="M467.7,248.1c0,0,13.4-12.4-2.1-17.4c0,0,17.2-7.9,2.3-13.9c0,0,10-13.1-2.3-17.6c0,0-20.8-7.7-24.5-31.1
			l-0.1-2c0,0.2,0,0.4-0.1,0.6c0-0.2-0.1-0.4-0.1-0.6l-0.1,2c-3.7,23.4-19.9,31.1-19.9,31.1c-12.3,4.5-2.3,17.6-2.3,17.6
			c-14.9,6,2.3,13.9,2.3,13.9c-15.5,5-2.1,17.4-2.1,17.4c-16.1,7.4,2,17.4,2,17.4c-8.2-0.5-11.1,10.8,4.2,15.8
			c7.6,2.5,13.9,1.4,18.3-0.3c4.4,1.7,10.7,2.8,18.3,0.3c15.3-5,12.4-16.3,4.2-15.8C465.7,265.4,483.8,255.4,467.7,248.1z"/>
		<polygon fill="#693D16" points="444,295.4 439.3,295.4 438.9,294.6 439.3,279.2 443.6,278.3 444,279.2 		"/>
		<rect x="439" y="278.4" fill="#7E5020" width="4" height="16"/>
		<path fill="#008C39" d="M465.4,247.2c0,0,13.4-12.4-2.1-17.4c0,0,17.2-7.9,2.3-13.9c0,0,10-13.1-2.3-17.6c0,0-18.5-7.2-22.2-30.6
			l-0.1-2c0,0.2,0,0.4-0.1,0.6c0-0.2-0.1-0.4-0.1-0.6l-0.1,2c-3.7,23.4-22.2,30.6-22.2,30.6c-12.3,4.5-2.3,17.6-2.3,17.6
			c-14.9,6,2.3,13.9,2.3,13.9c-15.5,5-2.1,17.4-2.1,17.4c-16.1,7.4,2,17.4,2,17.4c-8.2-0.5-11.1,10.8,4.2,15.8
			c7.6,2.5,13.9,1.4,18.3-0.3c4.4,1.7,10.7,2.8,18.3,0.3c15.3-5,12.4-16.3,4.2-15.8C463.5,264.5,481.5,254.5,465.4,247.2z"/>
	</g>
	<g>
		<path fill="#017B35" d="M306.3,321.6c0,0,9.5-8.8-1.5-12.3c0,0,12.2-5.6,1.6-9.9c0,0,7.1-9.4-1.6-12.5c0,0-14.8-5.5-17.4-22.1
			l-0.1-1.4c0,0.1,0,0.3-0.1,0.4c0-0.1,0-0.3-0.1-0.4l-0.1,1.4c-2.6,16.6-14.2,22.1-14.2,22.1c-8.7,3.2-1.6,12.5-1.6,12.5
			c-10.6,4.3,1.6,9.9,1.6,9.9c-11,3.6-1.5,12.3-1.5,12.3c-11.4,5.2,1.4,12.3,1.4,12.3c-5.8-0.4-7.9,7.7,3,11.2c5.4,1.8,9.9,1,13-0.2
			c3.1,1.2,7.6,2,13,0.2c10.9-3.6,8.9-11.6,3-11.2C304.9,334,317.8,326.9,306.3,321.6z"/>
		<polygon fill="#693D16" points="290,352.4 286.1,352.4 285.8,351.7 286.1,343.8 289.4,343.2 290,343.8 		"/>
		<rect x="286" y="343.4" fill="#7E5020" width="3" height="8"/>
		<path fill="#3EAB37" d="M304.7,321c0,0,9.5-8.8-1.5-12.3c0,0,12.2-5.6,1.6-9.9c0,0,7.1-9.4-1.6-12.5c0,0-13.2-5.1-15.8-21.8
			l-0.1-1.4c0,0.1,0,0.3-0.1,0.4c0-0.1,0-0.3-0.1-0.4l-0.1,1.4c-2.6,16.6-15.8,21.8-15.8,21.8c-8.7,3.2-1.6,12.5-1.6,12.5
			c-10.6,4.3,1.6,9.9,1.6,9.9c-11,3.6-1.5,12.3-1.5,12.3c-11.4,5.2,1.4,12.3,1.4,12.3c-5.8-0.4-7.9,7.7,3,11.2c5.4,1.8,9.9,1,13-0.2
			c3.1,1.2,7.6,2,13,0.2c10.9-3.6,8.9-11.6,3-11.2C303.3,333.3,316.1,326.2,304.7,321z"/>
	</g>
	<g>
		<path fill="#017B35" d="M115.9,365.3c0,0,11.3-10.5-1.8-14.7c0,0,14.6-6.7,1.9-11.8c0,0,8.5-11.2-1.9-15c0,0-17.7-6.5-20.8-26.4
			l-0.1-1.7c0,0.2,0,0.3-0.1,0.5c0-0.2,0-0.3-0.1-0.5l-0.1,1.7C89.8,317.3,76,323.8,76,323.8c-10.4,3.8-1.9,15-1.9,15
			c-12.6,5.1,1.9,11.8,1.9,11.8c-13.1,4.2-1.8,14.7-1.8,14.7c-13.7,6.3,1.7,14.7,1.7,14.7c-7-0.4-9.4,9.2,3.6,13.4
			c6.4,2.1,11.8,1.2,15.5-0.3c3.7,1.5,9.1,2.4,15.5,0.3c13-4.2,10.6-13.8,3.6-13.4C114.2,380.1,129.5,371.6,115.9,365.3z"/>
		<polygon fill="#693D16" points="96,402.4 91.7,402.4 91.4,401.3 91.7,391.9 95.5,391.1 96,391.8 		"/>
		<rect x="92" y="391.4" fill="#7E5020" width="3" height="9"/>
		<path fill="#3EAB37" d="M113.9,364.6c0,0,11.3-10.5-1.8-14.7c0,0,14.6-6.7,1.9-11.8c0,0,8.5-11.2-1.9-15c0,0-15.7-6.1-18.8-26
			l-0.1-1.7c0,0.2,0,0.3-0.1,0.5c0-0.2,0-0.3-0.1-0.5l-0.1,1.7c-3.1,19.9-18.8,26-18.8,26c-10.4,3.8-1.9,15-1.9,15
			c-12.6,5.1,1.9,11.8,1.9,11.8c-13.1,4.2-1.8,14.7-1.8,14.7c-13.7,6.3,1.7,14.7,1.7,14.7c-7-0.4-9.4,9.2,3.6,13.4
			c6.4,2.1,11.8,1.2,15.5-0.3c3.7,1.5,9.1,2.4,15.5,0.3c13-4.2,10.6-13.8,3.6-13.4C112.2,379.3,127.6,370.8,113.9,364.6z"/>
	</g>
	<g>
		<path fill="#017B35" d="M394.3,362.6c0,0,9.5-8.8-1.5-12.3c0,0,12.2-5.6,1.6-9.9c0,0,7.1-9.4-1.6-12.5c0,0-14.8-5.5-17.4-22.1
			l-0.1-1.4c0,0.1,0,0.3-0.1,0.4c0-0.1,0-0.3-0.1-0.4l-0.1,1.4c-2.6,16.6-14.2,22.1-14.2,22.1c-8.7,3.2-1.6,12.5-1.6,12.5
			c-10.6,4.3,1.6,9.9,1.6,9.9c-11,3.6-1.5,12.3-1.5,12.3c-11.4,5.2,1.4,12.3,1.4,12.3c-5.8-0.4-7.9,7.7,3,11.2c5.4,1.8,9.9,1,13-0.2
			c3.1,1.2,7.6,2,13,0.2c10.9-3.6,8.9-11.6,3-11.2C392.9,375,405.8,367.9,394.3,362.6z"/>
		<polygon fill="#693D16" points="378,393.4 374.1,393.4 373.8,392.7 374.1,384.8 377.4,384.2 378,384.8 		"/>
		<rect x="374" y="384.4" fill="#7E5020" width="3" height="8"/>
		<path fill="#3EAB37" d="M392.7,362c0,0,9.5-8.8-1.5-12.3c0,0,12.2-5.6,1.6-9.9c0,0,7.1-9.4-1.6-12.5c0,0-13.2-5.1-15.8-21.8
			l-0.1-1.4c0,0.1,0,0.3-0.1,0.4c0-0.1,0-0.3-0.1-0.4l-0.1,1.4c-2.6,16.6-15.8,21.8-15.8,21.8c-8.7,3.2-1.6,12.5-1.6,12.5
			c-10.6,4.3,1.6,9.9,1.6,9.9c-11,3.6-1.5,12.3-1.5,12.3c-11.4,5.2,1.4,12.3,1.4,12.3c-5.8-0.4-7.9,7.7,3,11.2c5.4,1.8,9.9,1,13-0.2
			c3.1,1.2,7.6,2,13,0.2c10.9-3.6,8.9-11.6,3-11.2C391.3,374.3,404.1,367.2,392.7,362z"/>
	</g>
	<g>
		<path fill="#017B35" d="M50.5,305.8c0,0,11.7-10.8-1.9-15.2c0,0,15-6.9,2-12.2c0,0,8.8-11.5-2-15.4c0,0-18.2-6.7-21.4-27.2
			l-0.1-1.7c0,0.2,0,0.3-0.1,0.5c0-0.2,0-0.3-0.1-0.5l-0.1,1.7c-3.2,20.5-17.4,27.2-17.4,27.2c-10.7,3.9-2,15.4-2,15.4
			c-13,5.3,2,12.2,2,12.2c-13.5,4.4-1.9,15.2-1.9,15.2C-6.4,312.3,9.3,321,9.3,321c-7.2-0.5-9.7,9.4,3.7,13.8
			c6.6,2.2,12.1,1.2,16-0.3c3.9,1.5,9.4,2.4,16,0.3c13.4-4.4,10.9-14.3,3.7-13.8C48.8,321,64.6,312.3,50.5,305.8z"/>
		<polygon fill="#693D16" points="30,343.4 25.7,343.4 25.3,342.6 25.6,333.1 29.5,332.3 30,333.1 		"/>
		<rect x="26" y="332.4" fill="#7E5020" width="3" height="10"/>
		<path fill="#3EAB37" d="M48.5,305c0,0,11.7-10.8-1.9-15.2c0,0,15-6.9,2-12.2c0,0,8.8-11.5-2-15.4c0,0-16.2-6.3-19.4-26.8l-0.1-1.7
			c0,0.2,0,0.3-0.1,0.5c0-0.2,0-0.3-0.1-0.5l-0.1,1.7C23.7,256,7.5,262.3,7.5,262.3c-10.7,3.9-2,15.4-2,15.4c-13,5.3,2,12.2,2,12.2
			C-6,294.2,5.6,305,5.6,305c-14.1,6.4,1.7,15.2,1.7,15.2c-7.2-0.5-9.7,9.4,3.7,13.8c6.6,2.2,12.1,1.2,16-0.3
			c3.9,1.5,9.4,2.4,16,0.3c13.4-4.4,10.9-14.3,3.7-13.8C46.8,320.2,62.6,311.5,48.5,305z"/>
	</g>
	<g>
		<polygon fill="#0B6E31" points="-10.7,372.4 -13,370.9 16.9,259.9 19.2,261.2 58.1,372.4 		"/>
		<polygon fill="#693D16" points="23,378.4 19.8,378.4 19.5,377.8 19.8,366.9 22.8,366.2 23,366.9 		"/>
		<rect x="19" y="366.4" fill="#7E5020" width="4" height="12"/>
		<polygon fill="#008938" points="-13,371.4 16.9,260.3 55.8,371.4 		"/>
	</g>
	<g>
		<polygon fill="#D44D2E" stroke="#502418" stroke-linecap="round" stroke-linejoin="round" stroke-miterlimit="10" points="
			445.1,297.9 437.5,297.9 437.5,295.9 444.3,295.9 		"/>
		<polygon fill="#99342F" stroke="#502418" stroke-linejoin="round" stroke-miterlimit="10" points="413.5,279.7 438.5,287.9 
			438.5,414.8 413.5,402.1 		"/>
		<polyline fill="#B64138" stroke="#502418" stroke-linejoin="round" stroke-miterlimit="10" points="361,281.9 414.5,281.9 
			414.5,402.9 363,402.9 362.3,282.2 		"/>
		<polygon fill="#752A26" points="417,288.2 438,298.3 438,290.7 417,281.4 		"/>
		<polygon fill="#DFDEBA" stroke="#502418" stroke-linejoin="round" stroke-miterlimit="10" points="391.8,219.5 416.5,233.5 
			416.5,244.6 397.7,235.4 391.5,231.7 391.5,223.5 		"/>
		<polygon fill="#C4C09D" points="393.8,220.5 407.3,236.5 393.8,231.5 		"/>
		<polygon fill="#DFDEBA" stroke="#502418" stroke-linejoin="round" stroke-miterlimit="10" points="396.5,232 422.5,244.8 
			422.5,256 403.2,246.7 396.5,243 396.5,234.8 		"/>
		<polygon fill="#C4C09D" points="398.2,233.1 412.9,245.9 398.5,241.1 		"/>
		<polygon fill="#DFDEBA" stroke="#502418" stroke-linejoin="round" stroke-miterlimit="10" points="402.5,241.7 426.5,254.9 
			426.5,266.1 407.2,256.8 400.5,253.1 400.5,244.9 		"/>
		<polygon fill="#C4C09D" points="403.1,241.7 417.9,258.2 404,252.2 		"/>
		<polygon fill="#DFDEBA" stroke="#502418" stroke-linejoin="round" stroke-miterlimit="10" points="405.5,253.1 431.5,266.2 
			431.5,277.4 412.2,268.1 405.5,264.4 405.5,256.2 		"/>
		<polygon fill="#C4C09D" points="407.2,254.2 421.9,268.4 407.4,263.5 		"/>
		<polygon fill="#DFDEBA" stroke="#502418" stroke-linejoin="round" stroke-miterlimit="10" points="413,264.4 437.5,277.6 
			437.5,288.7 417.7,279.5 410.5,275.8 410.5,267.6 		"/>
		<polygon fill="#C4C09D" points="414.1,265.2 428.4,278.9 414.3,274.5 		"/>
		<polygon fill="#DFDEBA" stroke="#502418" stroke-linejoin="round" stroke-miterlimit="10" points="419.7,275.1 443.5,288.3 
			443.5,296.3 419.5,283.7 		"/>
		<polygon fill="#C4C09D" points="420.8,276.1 435.1,290.7 420.5,283.4 		"/>
		<polygon fill="#99342F" points="363.1,287.4 363,279.2 415,277.8 415,287.4 		"/>
		<g>
			<rect x="361.5" y="284.9" fill="none" stroke="#502418" stroke-miterlimit="10" width="26" height="24"/>
			
				<rect x="357.9" y="295.6" transform="matrix(0.7071 0.7071 -0.7071 0.7071 319.545 -178.7059)" fill="#502418" width="35.1" height="1.6"/>
			
				<rect x="358.3" y="295.2" transform="matrix(-0.7071 0.7071 -0.7071 -0.7071 850.9657 239.4663)" fill="#502418" width="35.1" height="1.6"/>
		</g>
		<g>
			<rect x="388.5" y="284.9" fill="none" stroke="#502418" stroke-miterlimit="10" width="26" height="24"/>
			
				<rect x="385.1" y="295.6" transform="matrix(0.7071 0.7071 -0.7071 0.7071 327.5075 -197.929)" fill="#502418" width="35.1" height="1.5"/>
			
				<rect x="385.1" y="295.6" transform="matrix(-0.7071 0.7071 -0.7071 -0.7071 896.9764 221.2043)" fill="#502418" width="35.1" height="1.5"/>
		</g>
		<polygon fill="#F6F6D6" stroke="#502418" stroke-linejoin="round" stroke-miterlimit="10" points="412.5,274.9 412.5,264.9 
			405.5,264.9 405.5,253.9 402.5,253.9 402.5,241.9 396.5,241.9 396.5,232.9 392.5,232.9 392.5,219.9 391.7,219.9 389.2,219.9 
			385.5,219.9 385.5,232.9 380.5,232.9 380.5,241.9 375.5,241.9 375.5,253.9 370.5,253.9 370.5,264.9 364.5,264.9 364.5,274.9 
			356.5,274.9 356.5,284.9 389.2,284.9 391.7,284.9 419.5,284.9 419.5,274.9 		"/>
		<g>
			<polygon fill="#99342F" points="368,375.4 367,375.4 367,354.4 368,355.3 			"/>
			<polygon fill="#752A26" points="367.8,355.4 366.7,354.5 384.6,354.4 384.9,355.4 			"/>
			<rect x="368" y="355.4" fill="#8ACAB1" width="16" height="20"/>
			<polygon fill="#A8D6C1" points="368,362.3 368,374.4 380.9,374.4 			"/>
			<g>
				<path fill="#502418" d="M384,356.4v18h-15v-18H384 M385,355.4h-17v20h17V355.4L385,355.4z"/>
			</g>
			<rect x="384" y="354.4" fill="#B64138" width="2" height="21"/>
			<rect x="365" y="374.4" fill="#B64138" width="22" height="1"/>
			<rect x="376" y="355.4" fill="#502418" width="1" height="19"/>
			<rect x="368" y="363.4" fill="#502418" width="16" height="2"/>
		</g>
		<g>
			<rect x="389" y="354.4" fill="#502418" width="21" height="47"/>
			<rect x="409" y="354.4" fill="#B64138" width="1" height="47"/>
		</g>
	</g>
	<g>
		<path fill="#017B35" d="M486,334.8c0,0,15.1-14-2.4-19.6c0,0,19.4-8.9,2.6-15.7c0,0,11.3-14.8-2.6-19.9c0,0-23.5-8.7-27.6-35.1
			l-0.1-2.2c0,0.2-0.1,0.4-0.1,0.6c0-0.2-0.1-0.4-0.1-0.6l-0.1,2.2c-4.1,26.4-22.5,35.1-22.5,35.1c-13.9,5-2.6,19.9-2.6,19.9
			c-16.8,6.8,2.6,15.7,2.6,15.7c-17.5,5.6-2.4,19.6-2.4,19.6c-18.2,8.3,2.2,19.6,2.2,19.6c-9.3-0.6-12.5,12.2,4.8,17.8
			c8.6,2.8,15.7,1.6,20.7-0.4c5,1.9,12.1,3.1,20.7,0.4c17.3-5.6,14.1-18.4,4.8-17.8C483.8,354.4,504.2,343.1,486,334.8z"/>
		<polygon fill="#693D16" points="460,383.4 454,383.4 453.5,382.3 453.9,370 459.1,369 460,370 		"/>
		<rect x="454" y="369.4" fill="#7E5020" width="5" height="13"/>
		<path fill="#3EAB37" d="M483.5,333.8c0,0,15.1-14-2.4-19.6c0,0,19.4-8.9,2.6-15.7c0,0,11.3-14.8-2.6-19.9c0,0-20.9-8.2-25.1-34.6
			l-0.1-2.2c0,0.2-0.1,0.4-0.1,0.6c0-0.2-0.1-0.4-0.1-0.6l-0.1,2.2c-4.1,26.4-25.1,34.6-25.1,34.6c-13.9,5-2.6,19.9-2.6,19.9
			c-16.8,6.8,2.6,15.7,2.6,15.7c-17.5,5.6-2.4,19.6-2.4,19.6c-18.2,8.3,2.2,19.6,2.2,19.6c-9.3-0.6-12.5,12.2,4.8,17.8
			c8.6,2.8,15.7,1.6,20.7-0.4c5,1.9,12.1,3.1,20.7,0.4c17.3-5.6,14.1-18.4,4.8-17.8C481.2,353.4,501.6,342.1,483.5,333.8z"/>
	</g>
	<g>
		<path fill="#017B35" d="M361,344.8c0,0,15.1-14-2.4-19.6c0,0,19.4-8.9,2.6-15.7c0,0,11.3-14.8-2.6-19.9c0,0-23.5-8.7-27.6-35.1
			l-0.1-2.2c0,0.2-0.1,0.4-0.1,0.6c0-0.2-0.1-0.4-0.1-0.6l-0.1,2.2c-4.1,26.4-22.5,35.1-22.5,35.1c-13.9,5-2.6,19.9-2.6,19.9
			c-16.8,6.8,2.6,15.7,2.6,15.7c-17.5,5.6-2.4,19.6-2.4,19.6c-18.2,8.3,2.2,19.6,2.2,19.6c-9.3-0.6-12.5,12.2,4.8,17.8
			c8.6,2.8,15.7,1.6,20.7-0.4c5,1.9,12.1,3.1,20.7,0.4c17.3-5.6,14.1-18.4,4.8-17.8C358.8,364.4,379.2,353.1,361,344.8z"/>
		<polygon fill="#693D16" points="335,393.4 329,393.4 328.5,392.3 328.9,380 334.1,379 335,380 		"/>
		<rect x="329" y="379.4" fill="#7E5020" width="5" height="13"/>
		<path fill="#3EAB37" d="M358.5,343.8c0,0,15.1-14-2.4-19.6c0,0,19.4-8.9,2.6-15.7c0,0,11.3-14.8-2.6-19.9c0,0-20.9-8.2-25.1-34.6
			l-0.1-2.2c0,0.2-0.1,0.4-0.1,0.6c0-0.2-0.1-0.4-0.1-0.6l-0.1,2.2c-4.1,26.4-25.1,34.6-25.1,34.6c-13.9,5-2.6,19.9-2.6,19.9
			c-16.8,6.8,2.6,15.7,2.6,15.7c-17.5,5.6-2.4,19.6-2.4,19.6c-18.2,8.3,2.2,19.6,2.2,19.6c-9.3-0.6-12.5,12.2,4.8,17.8
			c8.6,2.8,15.7,1.6,20.7-0.4c5,1.9,12.1,3.1,20.7,0.4c17.3-5.6,14.1-18.4,4.8-17.8C356.2,363.4,376.6,352.1,358.5,343.8z"/>
	</g>
	<g>
		<g>
			<polygon fill="#558066" stroke="#502418" stroke-linecap="round" stroke-linejoin="round" stroke-miterlimit="10" points="
				328.1,265.9 321.7,265.9 321.2,260.2 			"/>
			<polygon fill="#DFDEBA" stroke="#502418" stroke-linecap="round" stroke-linejoin="round" stroke-miterlimit="10" points="
				302.5,249.4 320.5,256.7 320.5,364.9 302.2,355 			"/>
			<polygon fill="#C4C09D" points="303.2,258.6 320,266.4 320,259.9 303.1,252.9 			"/>
			<rect x="247.5" y="250.9" fill="#F6F6D6" stroke="#502418" stroke-miterlimit="10" width="55" height="104"/>
			<polygon fill="#DFDEBA" points="249,259 302,258.4 302,253.8 249,254.4 			"/>
			<g id="XMLID_2_">
				<g>
					<polygon fill="#752A26" points="321.7,255.6 328.1,265.5 306.1,253.8 299.9,244 					"/>
					<polygon fill="#99342F" points="308.4,215 321.7,255.6 299.9,244 292.6,206.5 292.5,203.3 308.4,212.1 					"/>
					<polygon fill="#B64138" points="299.9,244 306.1,253.8 244.1,254.6 253.9,244.6 					"/>
					<polygon fill="#B64138" points="292.6,206.5 299.9,244 253.9,244.6 268.2,206.1 268.2,203.4 292.5,203.3 					"/>
				</g>
				<g>
					<polygon fill="none" stroke="#502418" stroke-linejoin="round" stroke-miterlimit="10" points="306.1,253.8 244.1,254.6 
						253.9,244.6 268.2,206.1 268.2,203.4 292.5,203.3 308.4,212.1 308.4,215 321.7,255.6 328.1,265.5 					"/>
					<polyline fill="none" stroke="#502418" stroke-linejoin="round" stroke-miterlimit="10" points="253.9,244.6 299.9,244 
						306.1,253.8 					"/>
					<polyline fill="none" stroke="#502418" stroke-linejoin="round" stroke-miterlimit="10" points="292.5,203.3 292.6,206.5 
						299.9,244 321.7,255.6 					"/>
				</g>
			</g>
			<g id="XMLID_1_">
				<g>
					<polygon fill="#DEDEB3" points="278.8,225.8 282.8,230.6 279.7,230 274.7,224.1 					"/>
					<polygon fill="#DEDEB3" points="281.4,230.6 280.1,244.1 278.6,244.1 278.6,230 					"/>
					<polygon fill="#F6F6D6" points="274.7,224.1 279.7,230 278.6,230 270.8,230 269.7,230 					"/>
					<path fill="#F6F6D6" d="M278.6,244.1L278.6,244.1l-7.8,0.2V230h7.8V244.1z M277.5,242.9v-6v-5.8h-3h-2.7v5.8v6h2.7H277.5z"/>
					<polygon fill="#ACD7C5" points="277.5,236.9 277.5,242.9 274.6,242.9 274.6,242.7 275.9,242.7 274.6,241.3 274.6,236.9 					
						"/>
					<rect x="274.6" y="231.1" fill="#ACD7C5" width="3" height="5.8"/>
					<polygon fill="#D4E9DF" points="274.6,241.3 275.9,242.7 274.6,242.7 					"/>
					<polygon fill="#ACD7C5" points="274.6,242.7 274.6,242.9 271.9,242.9 271.9,236.9 274.6,236.9 274.6,241.3 272.1,238.6 
						272.1,242.7 					"/>
					<polygon fill="#D4E9DF" points="274.6,241.3 274.6,242.7 272.1,242.7 272.1,238.6 					"/>
					<rect x="271.9" y="231.1" fill="#ACD7C5" width="2.7" height="5.8"/>
				</g>
				<g>
					
						<line fill="none" stroke="#502418" stroke-linecap="round" stroke-linejoin="round" stroke-miterlimit="10" x1="279.7" y1="230" x2="278.6" y2="230"/>
					<polyline fill="none" stroke="#502418" stroke-linecap="round" stroke-linejoin="round" stroke-miterlimit="10" points="
						270.8,230 269.7,230 274.7,224.1 					"/>
					<polyline fill="none" stroke="#502418" stroke-linecap="round" stroke-linejoin="round" stroke-miterlimit="10" points="
						278.6,230 270.8,230 270.8,244.3 278.6,244.1 278.6,244.1 					"/>
					<polygon fill="none" stroke="#502418" stroke-linecap="round" stroke-linejoin="round" stroke-miterlimit="10" points="
						274.7,224.1 278.8,225.8 282.8,230.6 279.7,230 					"/>
					<polygon fill="none" stroke="#502418" stroke-linecap="round" stroke-linejoin="round" stroke-miterlimit="10" points="
						278.6,244.1 280.1,244.1 281.4,230.6 278.6,230 					"/>
					<polygon fill="none" stroke="#502418" stroke-linecap="round" stroke-linejoin="round" stroke-miterlimit="10" points="
						277.5,236.9 277.5,242.9 274.6,242.9 271.9,242.9 271.9,236.9 271.9,231.1 274.6,231.1 277.5,231.1 					"/>
					<polyline fill="none" stroke="#502418" stroke-miterlimit="10" points="271.9,236.9 274.6,236.9 277.5,236.9 					"/>
					<polyline fill="none" stroke="#502418" stroke-miterlimit="10" points="274.6,231.1 274.6,236.9 274.6,241.3 274.6,242.7 
						274.6,242.9 					"/>
				</g>
			</g>
			<polygon fill="#752A26" points="294,204.4 297.5,206.6 297.2,208.9 314.9,251.2 300.8,243.3 294,206.6 			"/>
		</g>
		<polygon fill="#752A26" points="301.7,245.6 306.5,253.2 319.3,260.1 315.5,253 		"/>
		<path fill="#502418" d="M262.2,351.7h-0.4c-0.4,0-0.7-0.3-0.7-0.7v-43.8c0-0.4,0.3-0.7,0.7-0.7h0.4c0.4,0,0.7,0.3,0.7,0.7V351
			C263,351.4,262.6,351.7,262.2,351.7z"/>
		<path fill="#502418" d="M289,351.7h-0.4c-0.4,0-0.7-0.3-0.7-0.7v-43.8c0-0.4,0.3-0.7,0.7-0.7h0.4c0.4,0,0.7,0.3,0.7,0.7V351
			C289.8,351.4,289.5,351.7,289,351.7z"/>
		<path fill="#8ACAB1" stroke="#502418" stroke-miterlimit="10" d="M254.1,301.9h17.7c0,0-0.7-38.4-8.9-38.4
			S254.1,301.9,254.1,301.9z"/>
		<path fill="#8ACAB1" stroke="#502418" stroke-miterlimit="10" d="M279.7,301.9h17.7c0,0-0.7-38.4-8.9-38.4
			C280.4,263.5,279.7,301.9,279.7,301.9z"/>
		<path opacity="0.67" fill="#B6DCCB" d="M255.5,300.4h8.5l-7.6-12.8C256.4,287.6,255.7,296.4,255.5,300.4z"/>
		<path opacity="0.67" fill="#B6DCCB" d="M281.2,300.4h8.5l-7.7-13.1C282,287.3,281.3,295.4,281.2,300.4z"/>
	</g>
	<g>
		<path fill="#086731" d="M267.7,363.1c0,0,13.4-12.4-2.1-17.4c0,0,17.2-7.9,2.3-13.9c0,0,10-13.1-2.3-17.6c0,0-20.8-7.7-24.5-31.1
			l-0.1-2c0,0.2,0,0.4-0.1,0.6c0-0.2-0.1-0.4-0.1-0.6l-0.1,2c-3.7,23.4-19.9,31.1-19.9,31.1c-12.3,4.5-2.3,17.6-2.3,17.6
			c-14.9,6,2.3,13.9,2.3,13.9c-15.5,5-2.1,17.4-2.1,17.4c-16.1,7.4,2,17.4,2,17.4c-8.2-0.5-11.1,10.8,4.2,15.8
			c7.6,2.5,13.9,1.4,18.3-0.3c4.4,1.7,10.7,2.8,18.3,0.3c15.3-5,12.4-16.3,4.2-15.8C265.7,380.4,283.8,370.4,267.7,363.1z"/>
		<polygon fill="#693D16" points="244,410.4 239.3,410.4 238.9,409.6 239.3,394.2 243.6,393.3 244,394.2 		"/>
		<rect x="239" y="393.4" fill="#7E5020" width="4" height="16"/>
		<path fill="#008C39" d="M265.4,362.2c0,0,13.4-12.4-2.1-17.4c0,0,17.2-7.9,2.3-13.9c0,0,10-13.1-2.3-17.6c0,0-18.5-7.2-22.2-30.6
			l-0.1-2c0,0.2,0,0.4-0.1,0.6c0-0.2-0.1-0.4-0.1-0.6l-0.1,2c-3.7,23.4-22.2,30.6-22.2,30.6c-12.3,4.5-2.3,17.6-2.3,17.6
			c-14.9,6,2.3,13.9,2.3,13.9c-15.5,5-2.1,17.4-2.1,17.4c-16.1,7.4,2,17.4,2,17.4c-8.2-0.5-11.1,10.8,4.2,15.8
			c7.6,2.5,13.9,1.4,18.3-0.3c4.4,1.7,10.7,2.8,18.3,0.3c15.3-5,12.4-16.3,4.2-15.8C263.5,379.5,281.5,369.5,265.4,362.2z"/>
	</g>
	<g>
		<path fill="#017B35" d="M327.3,380.6c0,0,9.5-8.8-1.5-12.3c0,0,12.2-5.6,1.6-9.9c0,0,7.1-9.4-1.6-12.5c0,0-14.8-5.5-17.4-22.1
			l-0.1-1.4c0,0.1,0,0.3-0.1,0.4c0-0.1,0-0.3-0.1-0.4l-0.1,1.4c-2.6,16.6-14.2,22.1-14.2,22.1c-8.7,3.2-1.6,12.5-1.6,12.5
			c-10.6,4.3,1.6,9.9,1.6,9.9c-11,3.6-1.5,12.3-1.5,12.3c-11.4,5.2,1.4,12.3,1.4,12.3c-5.8-0.4-7.9,7.7,3,11.2c5.4,1.8,9.9,1,13-0.2
			c3.1,1.2,7.6,2,13,0.2c10.9-3.6,8.9-11.6,3-11.2C325.9,393,338.8,385.9,327.3,380.6z"/>
		<polygon fill="#693D16" points="311,411.4 307.1,411.4 306.8,410.7 307.1,402.8 310.4,402.2 311,402.8 		"/>
		<rect x="307" y="402.4" fill="#7E5020" width="3" height="8"/>
		<path fill="#3EAB37" d="M325.7,380c0,0,9.5-8.8-1.5-12.3c0,0,12.2-5.6,1.6-9.9c0,0,7.1-9.4-1.6-12.5c0,0-13.2-5.1-15.8-21.8
			l-0.1-1.4c0,0.1,0,0.3-0.1,0.4c0-0.1,0-0.3-0.1-0.4l-0.1,1.4c-2.6,16.6-15.8,21.8-15.8,21.8c-8.7,3.2-1.6,12.5-1.6,12.5
			c-10.6,4.3,1.6,9.9,1.6,9.9c-11,3.6-1.5,12.3-1.5,12.3c-11.4,5.2,1.4,12.3,1.4,12.3c-5.8-0.4-7.9,7.7,3,11.2c5.4,1.8,9.9,1,13-0.2
			c3.1,1.2,7.6,2,13,0.2c10.9-3.6,8.9-11.6,3-11.2C324.3,392.3,337.1,385.2,325.7,380z"/>
	</g>
	<g>
		<path fill="#0D602C" d="M294.3,374.5c0,0,9-8.3-1.4-11.6c0,0,11.5-5.3,1.5-9.3c0,0,6.7-8.8-1.5-11.8c0,0-14-5.1-16.4-20.8
			l-0.1-1.3c0,0.1,0,0.3,0,0.4c0-0.1,0-0.3,0-0.4l-0.1,1.3c-2.5,15.7-13.4,20.8-13.4,20.8c-8.2,3-1.5,11.8-1.5,11.8
			c-10,4.1,1.5,9.3,1.5,9.3c-10.4,3.3-1.4,11.6-1.4,11.6c-10.8,4.9,1.3,11.6,1.3,11.6c-5.5-0.4-7.4,7.2,2.8,10.6
			c5.1,1.7,9.3,0.9,12.3-0.2c3,1.1,7.2,1.9,12.3,0.2c10.3-3.3,8.3-10.9,2.8-10.6C292.9,386.1,305,379.4,294.3,374.5z"/>
		<polygon fill="#693D16" points="280,408.4 277.3,408.4 277.1,408.3 277.2,390.7 279.5,390.4 280,390.8 		"/>
		<rect x="277" y="390.4" fill="#7E5020" width="2" height="18"/>
		<path fill="#036F32" d="M292.7,373.9c0,0,9-8.3-1.4-11.6c0,0,11.5-5.3,1.5-9.3c0,0,6.7-8.8-1.5-11.8c0,0-12.4-4.8-14.9-20.5
			l-0.1-1.3c0,0.1,0,0.3,0,0.4c0-0.1,0-0.3,0-0.4l-0.1,1.3c-2.5,15.7-14.9,20.5-14.9,20.5c-8.2,3-1.5,11.8-1.5,11.8
			c-10,4.1,1.5,9.3,1.5,9.3c-10.4,3.3-1.4,11.6-1.4,11.6c-10.8,4.9,1.3,11.6,1.3,11.6c-5.5-0.4-7.4,7.2,2.8,10.6
			c5.1,1.7,9.3,0.9,12.3-0.2c3,1.1,7.2,1.9,12.3,0.2c10.3-3.3,8.3-10.9,2.8-10.6C291.4,385.5,303.5,378.8,292.7,373.9z"/>
	</g>
	<g>
		<g>
			<polygon fill="#558066" stroke="#502418" stroke-linecap="round" stroke-linejoin="round" stroke-miterlimit="10" points="
				193.4,303.9 188.2,303.9 187.8,299.2 			"/>
			<polygon fill="#C59711" stroke="#502418" stroke-linecap="round" stroke-linejoin="round" stroke-miterlimit="10" points="
				172.6,290.8 187.5,296.7 187.5,385 172.4,377 			"/>
			<polygon fill="#A07B1C" points="173.2,298.3 187,304.7 187,299.3 173.1,293.7 			"/>
			<rect x="128.5" y="291.9" fill="#FDD03B" stroke="#502418" stroke-miterlimit="10" width="44" height="85"/>
			<polygon fill="#E6B62B" points="129,298.6 172,298.1 172,294.4 129,294.9 			"/>
			<g id="XMLID_6_">
				<g>
					<polygon fill="#588A6F" points="188.1,295.8 193.4,303.9 175.4,294.3 170.4,286.4 					"/>
					<polygon fill="#588A6F" points="177.3,262.8 188.1,295.8 170.4,286.4 164.4,255.8 164.3,253.2 177.3,260.3 					"/>
					<polygon fill="#71B196" points="170.4,286.4 175.4,294.3 124.8,295 132.8,286.9 					"/>
					<polygon fill="#8ACAB1" points="164.4,255.8 170.4,286.4 132.8,286.9 144.5,255.5 144.5,253.3 164.3,253.2 					"/>
				</g>
				<g>
					<polygon fill="none" stroke="#502418" stroke-linejoin="round" stroke-miterlimit="10" points="175.4,294.3 124.8,295 
						132.8,286.9 144.5,255.5 144.5,253.3 164.3,253.2 177.3,260.3 177.3,262.8 188.1,295.8 193.4,303.9 					"/>
					<polyline fill="none" stroke="#502418" stroke-linejoin="round" stroke-miterlimit="10" points="132.8,286.9 170.4,286.4 
						175.4,294.3 					"/>
					<polyline fill="none" stroke="#502418" stroke-linejoin="round" stroke-miterlimit="10" points="164.3,253.2 164.4,255.8 
						170.4,286.4 188.1,295.8 					"/>
				</g>
			</g>
			<g id="XMLID_5_">
				<g>
					<polygon fill="#DEDEB3" points="153.2,271.5 156.4,275.5 153.9,275 149.8,270.1 					"/>
					<polygon fill="#DEDEB3" points="155.2,275.5 154.2,286.5 153,286.5 153,275 					"/>
					<polygon fill="#F6F6D6" points="149.8,270.1 153.9,275 153,275 146.6,275 145.7,275 					"/>
					<path fill="#F6F6D6" d="M153,286.5L153,286.5l-6.4,0.2V275h6.4V286.5z M152.1,285.5v-4.9v-4.7h-2.4h-2.2v4.7v4.9h2.2H152.1z"/>
					<polygon fill="#ACD7C5" points="152.1,280.6 152.1,285.5 149.7,285.5 149.7,285.3 150.8,285.3 149.7,284.2 149.7,280.6 					
						"/>
					<rect x="149.7" y="275.9" fill="#ACD7C5" width="2.4" height="4.7"/>
					<polygon fill="#D4E9DF" points="149.7,284.2 150.8,285.3 149.7,285.3 					"/>
					<polygon fill="#ACD7C5" points="149.7,285.3 149.7,285.5 147.5,285.5 147.5,280.6 149.7,280.6 149.7,284.2 147.7,282 
						147.7,285.3 					"/>
					<polygon fill="#D4E9DF" points="149.7,284.2 149.7,285.3 147.7,285.3 147.7,282 					"/>
					<rect x="147.5" y="275.9" fill="#ACD7C5" width="2.2" height="4.7"/>
				</g>
				<g>
					
						<line fill="none" stroke="#502418" stroke-linecap="round" stroke-linejoin="round" stroke-miterlimit="10" x1="153.9" y1="275" x2="153" y2="275"/>
					<polyline fill="none" stroke="#502418" stroke-linecap="round" stroke-linejoin="round" stroke-miterlimit="10" points="
						146.6,275 145.7,275 149.8,270.1 					"/>
					<polyline fill="none" stroke="#502418" stroke-linecap="round" stroke-linejoin="round" stroke-miterlimit="10" points="
						153,275 146.6,275 146.6,286.7 153,286.5 153,286.5 					"/>
					<polygon fill="none" stroke="#502418" stroke-linecap="round" stroke-linejoin="round" stroke-miterlimit="10" points="
						149.8,270.1 153.2,271.5 156.4,275.5 153.9,275 					"/>
					<polygon fill="none" stroke="#502418" stroke-linecap="round" stroke-linejoin="round" stroke-miterlimit="10" points="
						153,286.5 154.2,286.5 155.2,275.5 153,275 					"/>
					<polygon fill="none" stroke="#502418" stroke-linecap="round" stroke-linejoin="round" stroke-miterlimit="10" points="
						152.1,280.6 152.1,285.5 149.7,285.5 147.5,285.5 147.5,280.6 147.5,275.9 149.7,275.9 152.1,275.9 					"/>
					<polyline fill="none" stroke="#502418" stroke-miterlimit="10" points="147.5,280.6 149.7,280.6 152.1,280.6 					"/>
					<polyline fill="none" stroke="#502418" stroke-miterlimit="10" points="149.7,275.9 149.7,280.6 149.7,284.2 149.7,285.3 
						149.7,285.5 					"/>
				</g>
			</g>
			<polygon fill="#517B62" points="165,254.1 168.1,255.9 168,257.8 182.6,292.3 170.8,285.8 165,255.9 			"/>
		</g>
		<polygon fill="#507B64" points="171.9,287.7 175.7,293.9 186.2,299.5 183.1,293.7 		"/>
		<path fill="#502418" d="M139.6,374.3h-0.3c-0.3,0-0.6-0.3-0.6-0.6v-35.8c0-0.3,0.3-0.6,0.6-0.6h0.3c0.3,0,0.6,0.3,0.6,0.6v35.8
			C140.2,374,139.9,374.3,139.6,374.3z"/>
		<path fill="#502418" d="M161.5,374.3h-0.3c-0.3,0-0.6-0.3-0.6-0.6v-35.8c0-0.3,0.3-0.6,0.6-0.6h0.3c0.3,0,0.6,0.3,0.6,0.6v35.8
			C162.1,374,161.8,374.3,161.5,374.3z"/>
		<path fill="#8ACAB1" stroke="#502418" stroke-miterlimit="10" d="M133,333.9h14.4c0,0-0.5-31.3-7.2-31.3S133,333.9,133,333.9z"/>
		<path fill="#8ACAB1" stroke="#502418" stroke-miterlimit="10" d="M153.9,333.9h14.4c0,0-0.5-31.3-7.2-31.3
			S153.9,333.9,153.9,333.9z"/>
		<path opacity="0.67" fill="#B6DCCB" d="M134.1,332.4h6.9l-6.2-10.4C134.9,321.9,134.3,329.4,134.1,332.4z"/>
		<path opacity="0.67" fill="#B6DCCB" d="M155.1,332.4h6.9l-6.3-10.7C155.7,321.7,155.1,327.4,155.1,332.4z"/>
	</g>
	<g>
		<polygon fill="#0B6E31" points="170.3,382.4 168,380.9 197.9,269.9 200.2,271.2 239.1,382.4 		"/>
		<polygon fill="#693D16" points="204,388.4 200.8,388.4 200.5,387.8 200.8,376.9 203.8,376.2 204,376.9 		"/>
		<rect x="200" y="376.4" fill="#7E5020" width="4" height="12"/>
		<polygon fill="#008938" points="168,381.4 197.9,270.3 236.8,381.4 		"/>
	</g>
	<g>
		<polygon fill="#0B6E31" points="191.3,389.4 189,387.9 218.9,276.9 221.2,278.2 260.1,389.4 		"/>
		<polygon fill="#693D16" points="225,395.4 221.8,395.4 221.5,394.8 221.8,383.9 224.8,383.2 225,383.9 		"/>
		<rect x="221" y="383.4" fill="#7E5020" width="4" height="12"/>
		<polygon fill="#008938" points="189,388.4 218.9,277.3 257.8,388.4 		"/>
	</g>
	<g>
		<path fill="#017B35" d="M145.3,372.6c0,0,9.5-8.8-1.5-12.3c0,0,12.2-5.6,1.6-9.9c0,0,7.1-9.4-1.6-12.5c0,0-14.8-5.5-17.4-22.1
			l-0.1-1.4c0,0.1,0,0.3-0.1,0.4c0-0.1,0-0.3-0.1-0.4l-0.1,1.4c-2.6,16.6-14.2,22.1-14.2,22.1c-8.7,3.2-1.6,12.5-1.6,12.5
			c-10.6,4.3,1.6,9.9,1.6,9.9c-11,3.6-1.5,12.3-1.5,12.3c-11.4,5.2,1.4,12.3,1.4,12.3c-5.8-0.4-7.9,7.7,3,11.2c5.4,1.8,9.9,1,13-0.2
			c3.1,1.2,7.6,2,13,0.2c10.9-3.6,8.9-11.6,3-11.2C143.9,385,156.8,377.9,145.3,372.6z"/>
		<polygon fill="#693D16" points="129,403.4 125.1,403.4 124.8,402.7 125.1,394.8 128.4,394.2 129,394.8 		"/>
		<rect x="125" y="394.4" fill="#7E5020" width="3" height="8"/>
		<path fill="#3EAB37" d="M143.7,372c0,0,9.5-8.8-1.5-12.3c0,0,12.2-5.6,1.6-9.9c0,0,7.1-9.4-1.6-12.5c0,0-13.2-5.1-15.8-21.8
			l-0.1-1.4c0,0.1,0,0.3-0.1,0.4c0-0.1,0-0.3-0.1-0.4l-0.1,1.4c-2.6,16.6-15.8,21.8-15.8,21.8c-8.7,3.2-1.6,12.5-1.6,12.5
			c-10.6,4.3,1.6,9.9,1.6,9.9c-11,3.6-1.5,12.3-1.5,12.3c-11.4,5.2,1.4,12.3,1.4,12.3c-5.8-0.4-7.9,7.7,3,11.2c5.4,1.8,9.9,1,13-0.2
			c3.1,1.2,7.6,2,13,0.2c10.9-3.6,8.9-11.6,3-11.2C142.3,384.3,155.1,377.2,143.7,372z"/>
	</g>
</g>
<g id="Layer_1" opacity="0.62">
</g>
</svg>
