<?xml version="1.0" encoding="utf-8"?>
<!-- Generator: Adobe Illustrator 17.1.0, SVG Export Plug-In . SVG Version: 6.00 Build 0)  -->
<!DOCTYPE svg PUBLIC "-//W3C//DTD SVG 1.1//EN" "http://www.w3.org/Graphics/SVG/1.1/DTD/svg11.dtd">
<svg version="1.1" id="Layer_1" xmlns="http://www.w3.org/2000/svg" xmlns:xlink="http://www.w3.org/1999/xlink" x="0px" y="0px"
	 viewBox="0 0 893.9 1262.2" enable-background="new 0 0 893.9 1262.2" xml:space="preserve">
<polyline fill="#F1F5CF" points="-11.1,1057.1 -11.1,1153.1 893.9,1153.1 893.9,553.1 "/>
<polyline fill="#ACACAC" points="-11.1,1167.1 -11.1,1263.1 893.9,1263.1 893.9,663.1 "/>
<g>
	<g>
		<line fill="none" stroke="#FCCD47" stroke-width="11" stroke-miterlimit="10" x1="952.9" y1="873.3" x2="922.6" y2="890.8"/>
		
			<line fill="none" stroke="#FCCD47" stroke-width="11" stroke-miterlimit="10" stroke-dasharray="67.2705,67.2705" x1="864.3" y1="924.4" x2="310.9" y2="1244"/>
		<line fill="none" stroke="#FCCD47" stroke-width="11" stroke-miterlimit="10" x1="281.7" y1="1260.8" x2="251.4" y2="1278.3"/>
	</g>
</g>
<g>
	<polygon fill="#00700D" points="693.5,657.1 689,654.7 748.7,433.3 753.1,435.4 830.9,657.1 	"/>
	<polygon fill="#603813" points="760.9,670.1 754.4,670.1 753.8,669 754.3,647.1 760.4,645.9 760.9,647.2 	"/>
	<rect x="753.9" y="646.1" fill="#754C24" width="7" height="23"/>
	<polygon fill="#008E0A" points="689,655.1 748.6,433.2 826.3,655.1 	"/>
</g>
<g>
	<polygon fill="#00700D" points="810.5,638.1 806,635.7 865.7,414.3 870.1,416.4 947.9,638.1 	"/>
	<polygon fill="#603813" points="877.9,651.1 871.4,651.1 870.8,650 871.3,628.1 877.4,626.9 877.9,628.2 	"/>
	<rect x="870.9" y="627.1" fill="#754C24" width="7" height="23"/>
	<polygon fill="#008E0A" points="806,636.1 865.6,414.2 943.3,636.1 	"/>
</g>
<g>
	<path fill="#006837" d="M247.2,953.1c0,0,20.5-19-3.3-26.7c0,0,26.3-12.1,3.5-21.4c0,0,15.4-20.2-3.5-27.1c0,0-32-11.8-37.6-47.7
		l-0.2-3c0,0.3-0.1,0.6-0.1,0.9c0-0.3-0.1-0.6-0.1-0.9l-0.2,3c-5.6,35.9-30.6,47.7-30.6,47.7c-18.9,6.9-3.5,27.1-3.5,27.1
		c-22.8,9.3,3.5,21.4,3.5,21.4c-23.8,7.7-3.3,26.7-3.3,26.7c-24.7,11.3,3,26.7,3,26.7c-12.6-0.8-17,16.6,6.5,24.2
		c11.7,3.8,21.3,2.2,28.1-0.5c6.8,2.6,16.4,4.3,28.1,0.5c23.5-7.7,19.1-25,6.5-24.2C244.2,979.7,271.9,964.4,247.2,953.1z"/>
	<polygon fill="#603813" points="210.9,1026.1 203.6,1026.1 202.9,1024.7 203.5,1000.9 210.1,999.5 210.9,1000.9 	"/>
	<rect x="202.9" y="999.1" fill="#754C24" width="8" height="25"/>
	<path fill="#009245" d="M243.7,951.7c0,0,20.5-19-3.3-26.7c0,0,26.3-12.1,3.5-21.4c0,0,15.4-20.2-3.5-27.1c0,0-28.5-11.1-34.1-47
		l-0.2-3c0,0.3-0.1,0.6-0.1,0.9c0-0.3-0.1-0.6-0.1-0.9l-0.2,3c-5.6,35.9-34.1,47-34.1,47c-18.9,6.9-3.5,27.1-3.5,27.1
		c-22.8,9.3,3.5,21.4,3.5,21.4c-23.8,7.7-3.3,26.7-3.3,26.7c-24.7,11.3,3,26.7,3,26.7c-12.6-0.8-17,16.6,6.5,24.2
		c11.7,3.8,21.3,2.2,28.1-0.5c6.8,2.6,16.4,4.3,28.1,0.5c23.5-7.7,19.1-25,6.5-24.2C240.7,978.3,268.4,963,243.7,951.7z"/>
</g>
<g>
	<path fill="#007F39" d="M419.6,830.7c0,0,19.9-18.4-3.2-25.8c0,0,25.5-11.7,3.4-20.8c0,0,14.9-19.6-3.4-26.2c0,0-31-11.4-36.4-46.3
		l-0.2-3c0,0.3-0.1,0.6-0.1,0.9c0-0.3-0.1-0.6-0.1-0.9l-0.2,3c-5.4,34.9-29.7,46.3-29.7,46.3c-18.3,6.7-3.4,26.2-3.4,26.2
		c-22.1,9,3.4,20.8,3.4,20.8c-23.1,7.4-3.2,25.8-3.2,25.8c-24,11,2.9,25.8,2.9,25.8c-12.2-0.8-16.5,16.1,6.3,23.5
		c11.3,3.7,20.7,2.1,27.2-0.5c6.6,2.6,15.9,4.2,27.2,0.5c22.8-7.4,18.5-24.3,6.3-23.5C416.7,856.6,443.6,841.7,419.6,830.7z"/>
	<polygon fill="#603813" points="383.9,894.1 377.4,894.1 376.7,893.1 377.3,877 383.4,875.7 383.9,877.1 	"/>
	<rect x="377.9" y="876.1" fill="#754C24" width="6" height="17"/>
	<path fill="#39B54A" d="M416.3,829.4c0,0,19.9-18.4-3.2-25.8c0,0,25.5-11.7,3.4-20.8c0,0,14.9-19.6-3.4-26.2c0,0-27.6-10.8-33-45.6
		l-0.2-3c0,0.3-0.1,0.6-0.1,0.9c0-0.3-0.1-0.6-0.1-0.9l-0.2,3c-5.4,34.9-33,45.6-33,45.6c-18.3,6.7-3.4,26.2-3.4,26.2
		c-22.1,9,3.4,20.8,3.4,20.8c-23.1,7.4-3.2,25.8-3.2,25.8c-24,11,2.9,25.8,2.9,25.8c-12.2-0.8-16.5,16.1,6.3,23.5
		c11.3,3.7,20.7,2.1,27.2-0.5c6.6,2.6,15.9,4.2,27.2,0.5c22.8-7.4,18.5-24.3,6.3-23.5C413.3,855.2,440.2,840.3,416.3,829.4z"/>
</g>
<g>
	<path fill="#01602E" d="M849.6,610.1c0,0,20.2-18.7-3.2-26.2c0,0,25.9-11.9,3.4-21c0,0,15.1-19.8-3.4-26.6c0,0-31.4-11.6-36.9-46.9
		l-0.2-3c0,0.3-0.1,0.6-0.1,0.9c0-0.3-0.1-0.6-0.1-0.9l-0.2,3c-5.5,35.3-30.1,46.9-30.1,46.9c-18.6,6.7-3.4,26.6-3.4,26.6
		c-22.4,9.1,3.4,21,3.4,21c-23.4,7.5-3.2,26.2-3.2,26.2c-24.3,11.1,3,26.2,3,26.2c-12.4-0.8-16.7,16.3,6.4,23.8
		c11.5,3.7,20.9,2.1,27.6-0.5c6.7,2.6,16.1,4.2,27.6,0.5c23.1-7.5,18.8-24.6,6.4-23.8C846.6,636.3,873.9,621.2,849.6,610.1z"/>
	<polygon fill="#603813" points="815.9,687.1 811.3,687.1 810.9,686.5 811.3,646.8 815.5,646 815.9,647 	"/>
	<rect x="811.9" y="646.1" fill="#754C24" width="4" height="41"/>
	<path fill="#007239" d="M846.1,608.8c0,0,20.2-18.7-3.2-26.2c0,0,25.9-11.9,3.4-21c0,0,15.1-19.8-3.4-26.6c0,0-28-10.9-33.5-46.2
		l-0.2-3c0,0.3-0.1,0.6-0.1,0.9c0-0.3-0.1-0.6-0.1-0.9l-0.2,3c-5.5,35.3-33.5,46.2-33.5,46.2c-18.6,6.7-3.4,26.6-3.4,26.6
		c-22.4,9.1,3.4,21,3.4,21c-23.4,7.5-3.2,26.2-3.2,26.2c-24.3,11.1,3,26.2,3,26.2c-12.4-0.8-16.7,16.3,6.4,23.8
		c11.5,3.7,20.9,2.1,27.6-0.5c6.7,2.6,16.1,4.2,27.6,0.5c23.1-7.5,18.8-24.6,6.4-23.8C843.2,634.9,870.4,619.9,846.1,608.8z"/>
</g>
<g>
	<path fill="#01602E" d="M333.6,902.1c0,0,20.2-18.7-3.2-26.2c0,0,25.9-11.9,3.4-21c0,0,15.1-19.8-3.4-26.6c0,0-31.4-11.6-36.9-46.9
		l-0.2-3c0,0.3-0.1,0.6-0.1,0.9c0-0.3-0.1-0.6-0.1-0.9l-0.2,3c-5.5,35.3-30.1,46.9-30.1,46.9c-18.6,6.7-3.4,26.6-3.4,26.6
		c-22.4,9.1,3.4,21,3.4,21c-23.4,7.5-3.2,26.2-3.2,26.2c-24.3,11.1,3,26.2,3,26.2c-12.4-0.8-16.7,16.3,6.4,23.8
		c11.5,3.7,20.9,2.1,27.6-0.5c6.7,2.6,16.1,4.2,27.6,0.5c23.1-7.5,18.8-24.6,6.4-23.8C330.6,928.3,357.9,913.2,333.6,902.1z"/>
	<polygon fill="#603813" points="299.9,979.1 295.3,979.1 294.9,978.5 295.3,938.8 299.5,938 299.9,939 	"/>
	<rect x="295.9" y="938.1" fill="#754C24" width="4" height="41"/>
	<path fill="#007239" d="M330.1,900.8c0,0,20.2-18.7-3.2-26.2c0,0,25.9-11.9,3.4-21c0,0,15.1-19.8-3.4-26.6c0,0-28-10.9-33.5-46.2
		l-0.2-3c0,0.3-0.1,0.6-0.1,0.9c0-0.3-0.1-0.6-0.1-0.9l-0.2,3c-5.5,35.3-33.5,46.2-33.5,46.2c-18.6,6.7-3.4,26.6-3.4,26.6
		c-22.4,9.1,3.4,21,3.4,21c-23.4,7.5-3.2,26.2-3.2,26.2c-24.3,11.1,3,26.2,3,26.2c-12.4-0.8-16.7,16.3,6.4,23.8
		c11.5,3.7,20.9,2.1,27.6-0.5c6.7,2.6,16.1,4.2,27.6,0.5c23.1-7.5,18.8-24.6,6.4-23.8C327.2,926.9,354.4,911.9,330.1,900.8z"/>
</g>
<g>
	<path fill="#006837" d="M771,673.7c0,0,16.1-14.9-2.6-20.9c0,0,20.7-9.5,2.7-16.8c0,0,12.1-15.8-2.7-21.2c0,0-25.1-9.2-29.5-37.4
		l-0.2-2.4c0,0.2-0.1,0.5-0.1,0.7c0-0.2-0.1-0.5-0.1-0.7l-0.2,2.4c-4.4,28.2-24,37.4-24,37.4c-14.8,5.4-2.7,21.2-2.7,21.2
		c-17.9,7.3,2.7,16.8,2.7,16.8c-18.6,6-2.6,20.9-2.6,20.9c-19.4,8.9,2.4,20.9,2.4,20.9c-9.9-0.6-13.3,13,5.1,19
		c9.1,3,16.7,1.7,22-0.4c5.3,2.1,12.9,3.4,22,0.4c18.5-6,15-19.6,5.1-19C768.6,694.6,790.3,682.6,771,673.7z"/>
	<polygon fill="#603813" points="742.9,731.1 736.8,731.1 736.2,729.9 736.7,711.3 742.1,710.2 742.9,711.3 	"/>
	<rect x="735.9" y="710.1" fill="#754C24" width="7" height="19"/>
	<path fill="#009245" d="M768.2,672.6c0,0,16.1-14.9-2.6-20.9c0,0,20.7-9.5,2.7-16.8c0,0,12.1-15.8-2.7-21.2c0,0-22.3-8.7-26.7-36.9
		l-0.2-2.4c0,0.2-0.1,0.5-0.1,0.7c0-0.2-0.1-0.5-0.1-0.7l-0.2,2.4c-4.4,28.2-26.7,36.9-26.7,36.9c-14.8,5.4-2.7,21.2-2.7,21.2
		c-17.9,7.3,2.7,16.8,2.7,16.8c-18.6,6-2.6,20.9-2.6,20.9c-19.4,8.9,2.4,20.9,2.4,20.9c-9.9-0.6-13.3,13,5.1,19
		c9.1,3,16.7,1.7,22-0.4c5.3,2.1,12.9,3.4,22,0.4c18.5-6,15-19.6,5.1-19C765.9,693.5,787.6,681.5,768.2,672.6z"/>
</g>
<g>
	<path fill="#007F39" d="M295.9,956.7c0,0,11.2-10.3-1.8-14.5c0,0,14.3-6.6,1.9-11.7c0,0,8.4-11-1.9-14.7c0,0-17.4-6.4-20.5-26
		l-0.1-1.7c0,0.2,0,0.3-0.1,0.5c0-0.2,0-0.3-0.1-0.5l-0.1,1.7c-3.1,19.6-16.6,26-16.6,26c-10.3,3.7-1.9,14.7-1.9,14.7
		c-12.4,5.1,1.9,11.7,1.9,11.7c-12.9,4.2-1.8,14.5-1.8,14.5c-13.5,6.2,1.6,14.5,1.6,14.5c-6.9-0.4-9.3,9,3.6,13.2
		c6.3,2.1,11.6,1.2,15.3-0.3c3.7,1.4,8.9,2.3,15.3,0.3c12.8-4.2,10.4-13.6,3.6-13.2C294.2,971.2,309.3,962.8,295.9,956.7z"/>
	<polygon fill="#603813" points="275.9,992.1 272.2,992.1 271.8,991.6 272.1,982.6 275.6,981.9 275.9,982.8 	"/>
	<rect x="272.9" y="982.1" fill="#754C24" width="3" height="10"/>
	<path fill="#39B54A" d="M294,955.9c0,0,11.2-10.3-1.8-14.5c0,0,14.3-6.6,1.9-11.7c0,0,8.4-11-1.9-14.7c0,0-15.5-6-18.6-25.6
		l-0.1-1.7c0,0.2,0,0.3-0.1,0.5c0-0.2,0-0.3-0.1-0.5l-0.1,1.7c-3.1,19.6-18.6,25.6-18.6,25.6c-10.3,3.7-1.9,14.7-1.9,14.7
		c-12.4,5.1,1.9,11.7,1.9,11.7c-12.9,4.2-1.8,14.5-1.8,14.5c-13.5,6.2,1.6,14.5,1.6,14.5c-6.9-0.4-9.3,9,3.6,13.2
		c6.3,2.1,11.6,1.2,15.3-0.3c3.7,1.4,8.9,2.3,15.3,0.3c12.8-4.2,10.4-13.6,3.6-13.2C292.3,970.4,307.4,962.1,294,955.9z"/>
</g>
<g>
	<path fill="#006837" d="M368.8,900.3c0,0,14.6-13.5-2.3-18.9c0,0,18.7-8.6,2.5-15.2c0,0,10.9-14.3-2.5-19.2c0,0-22.7-8.4-26.7-33.9
		l-0.1-2.2c0,0.2-0.1,0.4-0.1,0.6c0-0.2-0.1-0.4-0.1-0.6l-0.1,2.2c-4,25.5-21.7,33.9-21.7,33.9c-13.4,4.9-2.5,19.2-2.5,19.2
		c-16.2,6.6,2.5,15.2,2.5,15.2c-16.9,5.4-2.3,18.9-2.3,18.9c-17.5,8,2.2,18.9,2.2,18.9c-8.9-0.6-12.1,11.8,4.6,17.2
		c8.3,2.7,15.1,1.5,19.9-0.3c4.8,1.9,11.7,3,19.9,0.3c16.7-5.4,13.6-17.8,4.6-17.2C366.6,919.2,386.3,908.3,368.8,900.3z"/>
	<polygon fill="#603813" points="342.9,952.1 337.8,952.1 337.3,951.1 337.7,934.3 342.4,933.3 342.9,934.3 	"/>
	<rect x="337.9" y="933.1" fill="#754C24" width="5" height="18"/>
	<path fill="#009245" d="M366.3,899.3c0,0,14.6-13.5-2.3-18.9c0,0,18.7-8.6,2.5-15.2c0,0,10.9-14.3-2.5-19.2c0,0-20.2-7.9-24.2-33.4
		l-0.1-2.2c0,0.2-0.1,0.4-0.1,0.6c0-0.2-0.1-0.4-0.1-0.6l-0.1,2.2c-4,25.5-24.2,33.4-24.2,33.4c-13.4,4.9-2.5,19.2-2.5,19.2
		c-16.2,6.6,2.5,15.2,2.5,15.2c-16.9,5.4-2.3,18.9-2.3,18.9c-17.5,8,2.2,18.9,2.2,18.9c-8.9-0.6-12.1,11.8,4.6,17.2
		c8.3,2.7,15.1,1.5,19.9-0.3c4.8,1.9,11.7,3,19.9,0.3c16.7-5.4,13.6-17.8,4.6-17.2C364.1,918.2,383.8,907.3,366.3,899.3z"/>
</g>
<g>
	<path fill="#007F39" d="M701.6,695.7c0,0,19.9-18.4-3.2-25.8c0,0,25.5-11.7,3.4-20.8c0,0,14.9-19.6-3.4-26.2c0,0-31-11.4-36.4-46.3
		l-0.2-3c0,0.3-0.1,0.6-0.1,0.9c0-0.3-0.1-0.6-0.1-0.9l-0.2,3c-5.4,34.9-29.7,46.3-29.7,46.3c-18.3,6.7-3.4,26.2-3.4,26.2
		c-22.1,9,3.4,20.8,3.4,20.8c-23.1,7.4-3.2,25.8-3.2,25.8c-24,11,2.9,25.8,2.9,25.8c-12.2-0.8-16.5,16.1,6.3,23.5
		c11.3,3.7,20.7,2.1,27.2-0.5c6.6,2.6,15.9,4.2,27.2,0.5c22.8-7.4,18.5-24.3,6.3-23.5C698.7,721.6,725.6,706.7,701.6,695.7z"/>
	<polygon fill="#603813" points="665.9,759.1 659.4,759.1 658.7,758.1 659.3,742 665.4,740.7 665.9,742.1 	"/>
	<rect x="659.9" y="741.1" fill="#754C24" width="6" height="17"/>
	<path fill="#39B54A" d="M698.3,694.4c0,0,19.9-18.4-3.2-25.8c0,0,25.5-11.7,3.4-20.8c0,0,14.9-19.6-3.4-26.2c0,0-27.6-10.8-33-45.6
		l-0.2-3c0,0.3-0.1,0.6-0.1,0.9c0-0.3-0.1-0.6-0.1-0.9l-0.2,3c-5.4,34.9-33,45.6-33,45.6c-18.3,6.7-3.4,26.2-3.4,26.2
		c-22.1,9,3.4,20.8,3.4,20.8c-23.1,7.4-3.2,25.8-3.2,25.8c-24,11,2.9,25.8,2.9,25.8c-12.2-0.8-16.5,16.1,6.3,23.5
		c11.3,3.7,20.7,2.1,27.2-0.5c6.6,2.6,15.9,4.2,27.2,0.5c22.8-7.4,18.5-24.3,6.3-23.5C695.3,720.2,722.2,705.3,698.3,694.4z"/>
</g>
<g>
	<path fill="#01602E" d="M629.6,720.1c0,0,20.2-18.7-3.2-26.2c0,0,25.9-11.9,3.4-21c0,0,15.1-19.8-3.4-26.6c0,0-31.4-11.6-36.9-46.9
		l-0.2-3c0,0.3-0.1,0.6-0.1,0.9c0-0.3-0.1-0.6-0.1-0.9l-0.2,3c-5.5,35.3-30.1,46.9-30.1,46.9c-18.6,6.7-3.4,26.6-3.4,26.6
		c-22.4,9.1,3.4,21,3.4,21c-23.4,7.5-3.2,26.2-3.2,26.2c-24.3,11.1,3,26.2,3,26.2c-12.4-0.8-16.7,16.3,6.4,23.8
		c11.5,3.7,20.9,2.1,27.6-0.5c6.7,2.6,16.1,4.2,27.6,0.5c23.1-7.5,18.8-24.6,6.4-23.8C626.6,746.3,653.9,731.2,629.6,720.1z"/>
	<polygon fill="#603813" points="595.9,797.1 591.3,797.1 590.9,796.5 591.3,756.8 595.5,756 595.9,757 	"/>
	<rect x="591.9" y="756.1" fill="#754C24" width="4" height="41"/>
	<path fill="#007239" d="M626.1,718.8c0,0,20.2-18.7-3.2-26.2c0,0,25.9-11.9,3.4-21c0,0,15.1-19.8-3.4-26.6c0,0-28-10.9-33.5-46.2
		l-0.2-3c0,0.3-0.1,0.6-0.1,0.9c0-0.3-0.1-0.6-0.1-0.9l-0.2,3c-5.5,35.3-33.5,46.2-33.5,46.2c-18.6,6.7-3.4,26.6-3.4,26.6
		c-22.4,9.1,3.4,21,3.4,21c-23.4,7.5-3.2,26.2-3.2,26.2c-24.3,11.1,3,26.2,3,26.2c-12.4-0.8-16.7,16.3,6.4,23.8
		c11.5,3.7,20.9,2.1,27.6-0.5c6.7,2.6,16.1,4.2,27.6,0.5c23.1-7.5,18.8-24.6,6.4-23.8C623.2,744.9,650.4,729.9,626.1,718.8z"/>
</g>
<g>
	<path fill="#01602E" d="M553.6,765.1c0,0,20.2-18.7-3.2-26.2c0,0,25.9-11.9,3.4-21c0,0,15.1-19.8-3.4-26.6c0,0-31.4-11.6-36.9-46.9
		l-0.2-3c0,0.3-0.1,0.6-0.1,0.9c0-0.3-0.1-0.6-0.1-0.9l-0.2,3c-5.5,35.3-30.1,46.9-30.1,46.9c-18.6,6.7-3.4,26.6-3.4,26.6
		c-22.4,9.1,3.4,21,3.4,21c-23.4,7.5-3.2,26.2-3.2,26.2c-24.3,11.1,3,26.2,3,26.2c-12.4-0.8-16.7,16.3,6.4,23.8
		c11.5,3.7,20.9,2.1,27.6-0.5c6.7,2.6,16.1,4.2,27.6,0.5c23.1-7.5,18.8-24.6,6.4-23.8C550.6,791.3,577.9,776.2,553.6,765.1z"/>
	<polygon fill="#603813" points="519.9,842.1 515.3,842.1 514.9,841.5 515.3,801.8 519.5,801 519.9,802 	"/>
	<rect x="515.9" y="801.1" fill="#754C24" width="4" height="41"/>
	<path fill="#007239" d="M550.1,763.8c0,0,20.2-18.7-3.2-26.2c0,0,25.9-11.9,3.4-21c0,0,15.1-19.8-3.4-26.6c0,0-28-10.9-33.5-46.2
		l-0.2-3c0,0.3-0.1,0.6-0.1,0.9c0-0.3-0.1-0.6-0.1-0.9l-0.2,3c-5.5,35.3-33.5,46.2-33.5,46.2c-18.6,6.7-3.4,26.6-3.4,26.6
		c-22.4,9.1,3.4,21,3.4,21c-23.4,7.5-3.2,26.2-3.2,26.2c-24.3,11.1,3,26.2,3,26.2c-12.4-0.8-16.7,16.3,6.4,23.8
		c11.5,3.7,20.9,2.1,27.6-0.5c6.7,2.6,16.1,4.2,27.6,0.5c23.1-7.5,18.8-24.6,6.4-23.8C547.2,789.9,574.4,774.9,550.1,763.8z"/>
</g>
<g>
	<path fill="#006837" d="M482,812.7c0,0,16.1-14.9-2.6-20.9c0,0,20.7-9.5,2.7-16.8c0,0,12.1-15.8-2.7-21.2c0,0-25.1-9.2-29.5-37.4
		l-0.2-2.4c0,0.2-0.1,0.5-0.1,0.7c0-0.2-0.1-0.5-0.1-0.7l-0.2,2.4c-4.4,28.2-24,37.4-24,37.4c-14.8,5.4-2.7,21.2-2.7,21.2
		c-17.9,7.3,2.7,16.8,2.7,16.8c-18.6,6-2.6,20.9-2.6,20.9c-19.4,8.9,2.4,20.9,2.4,20.9c-9.9-0.6-13.3,13,5.1,19
		c9.1,3,16.7,1.7,22-0.4c5.3,2.1,12.9,3.4,22,0.4c18.5-6,15-19.6,5.1-19C479.6,833.6,501.3,821.6,482,812.7z"/>
	<polygon fill="#603813" points="453.9,870.1 447.8,870.1 447.2,868.9 447.7,850.3 453.1,849.2 453.9,850.3 	"/>
	<rect x="446.9" y="849.1" fill="#754C24" width="7" height="19"/>
	<path fill="#009245" d="M479.2,811.6c0,0,16.1-14.9-2.6-20.9c0,0,20.7-9.5,2.7-16.8c0,0,12.1-15.8-2.7-21.2c0,0-22.3-8.7-26.7-36.9
		l-0.2-2.4c0,0.2-0.1,0.5-0.1,0.7c0-0.2-0.1-0.5-0.1-0.7l-0.2,2.4c-4.4,28.2-26.7,36.9-26.7,36.9c-14.8,5.4-2.7,21.2-2.7,21.2
		c-17.9,7.3,2.7,16.8,2.7,16.8c-18.6,6-2.6,20.9-2.6,20.9c-19.4,8.9,2.4,20.9,2.4,20.9c-9.9-0.6-13.3,13,5.1,19
		c9.1,3,16.7,1.7,22-0.4c5.3,2.1,12.9,3.4,22,0.4c18.5-6,15-19.6,5.1-19C476.9,832.5,498.6,820.5,479.2,811.6z"/>
</g>
<g>
	<path fill="#007F39" d="M528.9,834.7c0,0,11.2-10.3-1.8-14.5c0,0,14.3-6.6,1.9-11.7c0,0,8.4-11-1.9-14.7c0,0-17.4-6.4-20.5-26
		l-0.1-1.7c0,0.2,0,0.3-0.1,0.5c0-0.2,0-0.3-0.1-0.5l-0.1,1.7c-3.1,19.6-16.6,26-16.6,26c-10.3,3.7-1.9,14.7-1.9,14.7
		c-12.4,5.1,1.9,11.7,1.9,11.7c-12.9,4.2-1.8,14.5-1.8,14.5c-13.5,6.2,1.6,14.5,1.6,14.5c-6.9-0.4-9.3,9,3.6,13.2
		c6.3,2.1,11.6,1.2,15.3-0.3c3.7,1.4,8.9,2.3,15.3,0.3c12.8-4.2,10.4-13.6,3.6-13.2C527.2,849.2,542.3,840.8,528.9,834.7z"/>
	<polygon fill="#603813" points="508.9,870.1 505.2,870.1 504.8,869.6 505.1,860.6 508.6,859.9 508.9,860.8 	"/>
	<rect x="505.9" y="860.1" fill="#754C24" width="3" height="10"/>
	<path fill="#39B54A" d="M527,833.9c0,0,11.2-10.3-1.8-14.5c0,0,14.3-6.6,1.9-11.7c0,0,8.4-11-1.9-14.7c0,0-15.5-6-18.6-25.6
		l-0.1-1.7c0,0.2,0,0.3-0.1,0.5c0-0.2,0-0.3-0.1-0.5l-0.1,1.7c-3.1,19.6-18.6,25.6-18.6,25.6c-10.3,3.7-1.9,14.7-1.9,14.7
		c-12.4,5.1,1.9,11.7,1.9,11.7c-12.9,4.2-1.8,14.5-1.8,14.5c-13.5,6.2,1.6,14.5,1.6,14.5c-6.9-0.4-9.3,9,3.6,13.2
		c6.3,2.1,11.6,1.2,15.3-0.3c3.7,1.4,8.9,2.3,15.3,0.3c12.8-4.2,10.4-13.6,3.6-13.2C525.3,848.4,540.4,840.1,527,833.9z"/>
</g>
<g>
	<g>
		
			<polygon fill="#527F68" stroke="#4A1C14" stroke-width="3" stroke-linecap="round" stroke-linejoin="round" stroke-miterlimit="10" points="
			161,107.9 147.5,112.8 142.1,101.1 		"/>
		
			<polygon fill="#D6D8B4" stroke="#4A1C14" stroke-width="3" stroke-linecap="round" stroke-linejoin="round" stroke-miterlimit="10" points="
			94.1,91.8 138.4,93.2 221.6,323.6 174.7,316.8 		"/>
		<polygon fill="#BABA99" points="102.5,110.7 144.5,114.4 139.5,100.5 97.9,98.8 		"/>
		
			<rect x="-41.3" y="166.1" transform="matrix(-0.3397 -0.9405 0.9405 -0.3397 -110.4798 376.6268)" fill="#F1F5CF" stroke="#4A1C14" stroke-width="3" stroke-miterlimit="10" width="236.5" height="122"/>
		<polygon fill="#D6D8B4" points="-13,153.4 98.6,111.7 95.1,102 -16.5,143.7 		"/>
		<g id="XMLID_6_">
			<g>
				<polygon fill="#933735" points="39.6,8.2 36.9,1.5 77.6,7.8 79.8,14.1 139.2,90.2 83.9,82.3 				"/>
				<polygon fill="#6D2727" points="160.5,106.4 104.6,98.4 83.9,82.3 139.2,90.2 				"/>
				<polygon fill="#B2463F" points="83.9,82.3 104.6,98.4 -26.8,147.8 -13.5,119.1 				"/>
				<polygon fill="#B2463F" points="36.9,1.5 39.6,8.2 83.9,82.3 -13.5,119.1 -12.7,26.1 -14.8,20.4 				"/>
			</g>
			<g>
				<polygon fill="none" stroke="#4A1C14" stroke-width="3" stroke-linejoin="round" stroke-miterlimit="10" points="104.6,98.4 
					-26.8,147.8 -13.5,119.1 -12.7,26.1 -14.8,20.4 36.9,1.5 77.6,7.8 79.8,14.1 139.2,90.2 160.5,106.4 				"/>
				<polyline fill="none" stroke="#4A1C14" stroke-width="3" stroke-linejoin="round" stroke-miterlimit="10" points="-13.5,119.1 
					83.9,82.3 104.6,98.4 				"/>
				<polyline fill="none" stroke="#4A1C14" stroke-width="3" stroke-linejoin="round" stroke-miterlimit="10" points="36.9,1.5 
					39.6,8.2 83.9,82.3 139.2,90.2 				"/>
			</g>
		</g>
		<g id="XMLID_5_">
			<g>
				<polygon fill="#D6D8AD" points="37.2,67 30.3,68.1 15,59.4 25.1,59.8 				"/>
				<polygon fill="#D6D8AD" points="27.9,69 34.2,68.1 41.9,97.7 38.7,98.9 				"/>
				<path fill="#F1F5CF" d="M22.3,105.4L11.3,75l16.6-6l10.8,29.9l0,0.1L22.3,105.4z M30.9,84.4l-4.5-12.3l-6.3,2.3l-5.8,2.1
					l4.5,12.3l4.6,12.8l5.8-2.1l6.3-2.3L30.9,84.4z"/>
				
					<rect x="19" y="76" transform="matrix(0.3397 0.9405 -0.9405 0.3397 91.4813 28.4156)" fill="#9ED8C3" width="13.1" height="6.7"/>
				<polygon fill="#F1F5CF" points="15,59.4 30.3,68.1 27.9,69 11.3,75 9,75.8 				"/>
				<polygon fill="#9ED8C3" points="35.5,97.2 29.2,99.5 29,99 31.8,98 28,96 24.6,86.7 30.9,84.4 				"/>
				<polygon fill="#C7E5D9" points="31.8,98 29,99 28,96 				"/>
				
					<rect x="12.9" y="78.5" transform="matrix(-0.3397 -0.9405 0.9405 -0.3397 -50.6123 127.5572)" fill="#9ED8C3" width="13.1" height="6.1"/>
				<polygon fill="#C7E5D9" points="29,99 23.8,100.9 20.7,92.3 28,96 				"/>
				<polygon fill="#9ED8C3" points="29,99 29.2,99.5 23.4,101.6 18.8,88.7 24.6,86.7 28,96 20.7,92.3 23.8,100.9 				"/>
			</g>
			<g>
				
					<line fill="none" stroke="#4A1C14" stroke-linecap="round" stroke-linejoin="round" stroke-miterlimit="10" x1="30.3" y1="68.1" x2="27.9" y2="69"/>
				<polyline fill="none" stroke="#4A1C14" stroke-linecap="round" stroke-linejoin="round" stroke-miterlimit="10" points="
					11.3,75 9,75.8 15,59.4 				"/>
				<polyline fill="none" stroke="#4A1C14" stroke-linecap="round" stroke-linejoin="round" stroke-miterlimit="10" points="
					27.9,69 11.3,75 22.3,105.4 38.7,99 38.7,98.9 				"/>
				<polygon fill="none" stroke="#4A1C14" stroke-linecap="round" stroke-linejoin="round" stroke-miterlimit="10" points="15,59.4 
					25.1,59.8 37.2,67 30.3,68.1 				"/>
				<polygon fill="none" stroke="#4A1C14" stroke-linecap="round" stroke-linejoin="round" stroke-miterlimit="10" points="
					38.7,98.9 41.9,97.7 34.2,68.1 27.9,69 				"/>
				<polygon fill="none" stroke="#4A1C14" stroke-linecap="round" stroke-linejoin="round" stroke-miterlimit="10" points="
					30.9,84.4 35.5,97.2 29.2,99.5 23.4,101.6 18.8,88.7 14.4,76.4 20.1,74.3 26.4,72.1 				"/>
				<polyline fill="none" stroke="#4A1C14" stroke-miterlimit="10" points="18.8,88.7 24.6,86.7 30.9,84.4 				"/>
				<polyline fill="none" stroke="#4A1C14" stroke-miterlimit="10" points="20.1,74.3 24.6,86.7 28,96 29,99 29.2,99.5 				"/>
			</g>
		</g>
		<polygon fill="#6D2727" points="39.5,3.1 49.2,4.8 50.9,9.8 121.3,86.2 84.4,80.6 41.1,7.8 		"/>
	</g>
	<polygon fill="#6D2727" points="89.1,84.5 104.9,96.8 137.6,101.7 124.1,89.5 	"/>
	<path fill="#4A1C14" d="M86.6,340.7l-0.8,0.3c-0.9,0.3-1.8-0.1-2.2-1l-33.7-93.3c-0.3-0.9,0.1-1.8,1-2.2l0.8-0.3
		c0.9-0.3,1.8,0.1,2.2,1l33.7,93.3C87.9,339.4,87.4,340.4,86.6,340.7z"/>
	<path fill="#4A1C14" d="M143.7,320l-0.8,0.3c-0.9,0.3-1.8-0.1-2.2-1L107.1,226c-0.3-0.9,0.1-1.8,1-2.2l0.8-0.3
		c0.9-0.3,1.8,0.1,2.2,1l33.7,93.3C145,318.7,144.6,319.7,143.7,320z"/>
	<path fill="#7ACFB2" stroke="#4A1C14" stroke-width="3" stroke-miterlimit="10" d="M31,240.7l37.7-13.6c0,0-30.9-81.2-48.3-74.8
		S31,240.7,31,240.7z"/>
	<path fill="#7ACFB2" stroke="#4A1C14" stroke-width="3" stroke-miterlimit="10" d="M85.5,221l37.7-13.6c0,0-30.9-81.2-48.3-74.8
		S85.5,221,85.5,221z"/>
	<path opacity="0.67" fill="#A4E0CA" d="M32.8,236.6l18-6.5l-25.9-21.4C24.9,208.6,29.8,226.7,32.8,236.6z"/>
	<path opacity="0.67" fill="#A4E0CA" d="M87.4,216.8l18-6.5l-26.4-21.9C79.1,188.4,83.2,204.4,87.4,216.8z"/>
</g>
<g>
	<path fill="#A03B38" d="M718.9,824l-6.3-8c-0.8-1-0.6-2.5,0.4-3.3l1.8-1.5c1-0.8,2.5-0.6,3.3,0.4l6.3,8c0.8,1,0.6,2.5-0.4,3.3
		l-1.8,1.5C721.2,825.2,719.7,825,718.9,824z"/>
	<path fill="#A03B38" d="M766.7,905.1l3.8,9.5c0.5,1.2,1.9,1.8,3.1,1.3l2.2-0.9c1.2-0.5,1.8-1.9,1.3-3.1l-3.8-9.5
		c-0.5-1.2-1.9-1.8-3.1-1.3l-2.2,0.9C766.9,902.6,766.3,903.9,766.7,905.1z"/>
	<path fill="#963330" d="M655.8,967.3l-45.5-78.9c-0.7-1.1-0.4-2.5,0.7-3.1l114.3-66c1-0.6,2.4-0.1,3,1l45.5,78.9
		c0.7,1.1,0.4,2.5-0.7,3.1l-114.3,66C657.8,968.9,656.4,968.5,655.8,967.3z"/>
	<path fill="#A03B38" d="M734.3,831.8l-6.3-10.9l34-19.6c3.8-2.2,8.6-0.9,10.7,2.9l2.4,4.1L734.3,831.8z"/>
	<path fill="#A03B38" d="M773.2,899.1l-6.3-10.9l40.8-23.5l2.4,4.1c2.2,3.8,0.9,8.6-2.9,10.7L773.2,899.1z"/>
	<polygon fill="#9DD6EA" points="747.9,907.3 707.9,838 728.6,820.6 773.8,898.7 	"/>
	<polygon fill="#B2463F" points="773.8,898.7 728.6,820.6 773.3,803.8 810.6,868.4 	"/>
	
		<rect x="760.4" y="844.4" transform="matrix(0.5 0.866 -0.866 0.5 1120.5376 -250.5579)" fill="#A03B38" width="33.8" height="1.6"/>
	<polygon fill="#9DD6EA" points="722.2,927.2 717.7,919.3 725.4,913.8 748.8,911.9 	"/>
	<polygon fill="#9DD6EA" points="675.8,851.6 680.7,860 657.3,874.3 652.1,865.3 	"/>
	<polygon fill="#9DD6EA" points="677.9,850.4 682.7,858.8 691.3,854.6 704.5,835 	"/>
	
		<rect x="752.9" y="848.7" transform="matrix(0.5 0.866 -0.866 0.5 1120.5376 -241.923)" fill="#A03B38" width="33.8" height="1.6"/>
	<rect x="745.4" y="853" transform="matrix(0.5 0.866 -0.866 0.5 1120.5376 -233.2883)" fill="#A03B38" width="33.8" height="1.6"/>
	
		<rect x="773.6" y="812.3" transform="matrix(0.5 0.866 -0.866 0.5 1094.6331 -269.0051)" fill="#FCCD47" width="13.3" height="2.4"/>
	
		<rect x="799.1" y="856.5" transform="matrix(0.5 0.866 -0.866 0.5 1145.6571 -269.0051)" fill="#FCCD47" width="13.3" height="2.4"/>
	<rect x="627.8" y="872.2" transform="matrix(0.866 -0.5 0.5 0.866 -352.9137 438.357)" fill="#9DD6EA" width="27.5" height="11"/>
	<rect x="666.6" y="939.5" transform="matrix(0.866 -0.5 0.5 0.866 -381.3588 466.8022)" fill="#9DD6EA" width="27.5" height="11"/>
	<rect x="691.8" y="925" transform="matrix(0.866 -0.5 0.5 0.866 -370.7278 477.4332)" fill="#9DD6EA" width="27.5" height="11"/>
	<path fill="#B2463F" d="M705.6,838.9l-77,44.4c-5,2.9-7.4,8.3-5.2,12.1l33,57.1c2.2,3.8,8,4.4,13,1.5l77-44.4c5-2.9,7-7.9,5-11.2
		l-33.6-58.2C715.9,836.7,710.6,836,705.6,838.9z"/>
	<path fill="#1A1A1A" d="M632.3,955l-22-38.1c-0.7-1.1-0.3-2.6,0.9-3.2l8.2-4.7c1.1-0.7,2.6-0.3,3.2,0.9l22,38.1
		c0.7,1.1,0.3,2.6-0.9,3.2l-8.2,4.7C634.4,956.5,633,956.1,632.3,955z"/>
</g>
<g>
	<g>
		
			<polygon fill="#527F68" stroke="#4A1C14" stroke-width="3" stroke-linecap="round" stroke-linejoin="round" stroke-miterlimit="10" points="
			243.8,452.6 227.4,447.7 230.6,432.7 		"/>
		
			<polygon fill="#BF9426" stroke="#4A1C14" stroke-width="3" stroke-linecap="round" stroke-linejoin="round" stroke-miterlimit="10" points="
			191.4,389.7 232.6,422.5 148.6,701.4 108.7,661.6 		"/>
		<polygon fill="#997825" points="186,413.7 223.4,447.1 228.5,430.2 190.1,399.1 		"/>
		
			<rect x="-61.5" y="434.2" transform="matrix(0.2884 -0.9575 0.9575 0.2884 -428.9253 436.2601)" fill="#FCCD47" stroke="#4A1C14" stroke-width="3" stroke-miterlimit="10" width="281.2" height="145.1"/>
		<polygon fill="#E2B33D" points="45.5,372.5 181.6,411.9 185.1,400.2 49,360.8 		"/>
		<g id="XMLID_2_">
			<g>
				<polygon fill="#558971" points="244.4,450.8 196.7,403.5 188.4,373.4 235.5,420.2 				"/>
				<polygon fill="#558971" points="198.6,271.3 200.9,263 235.2,297.8 232.9,305.5 235.5,420.2 188.4,373.4 				"/>
				<polygon fill="#6BB297" points="196.7,403.5 36.3,357.4 69.3,339.5 188.4,373.4 				"/>
				<polygon fill="#7ACFB2" points="200.9,263 198.6,271.3 188.4,373.4 69.3,339.5 136,251.3 138.1,244.4 				"/>
			</g>
			<g>
				<polygon fill="none" stroke="#4A1C14" stroke-width="3" stroke-linejoin="round" stroke-miterlimit="10" points="196.7,403.5 
					36.3,357.4 69.3,339.5 136,251.3 138.1,244.4 200.9,263 235.2,297.8 232.9,305.5 235.5,420.2 244.4,450.8 				"/>
				<polyline fill="none" stroke="#4A1C14" stroke-width="3" stroke-linejoin="round" stroke-miterlimit="10" points="69.3,339.5 
					188.4,373.4 196.7,403.5 				"/>
				<polyline fill="none" stroke="#4A1C14" stroke-width="3" stroke-linejoin="round" stroke-miterlimit="10" points="200.9,263 
					198.6,271.3 188.4,373.4 235.5,420.2 				"/>
			</g>
		</g>
		<g id="XMLID_1_">
			<g>
				<polygon fill="#D6D8AD" points="147.3,321.9 138.9,302.7 148.3,310.2 154.6,325.8 				"/>
				<polygon fill="#D6D8AD" points="144.4,321 151.1,324.7 137.4,358.4 133.4,357.2 				"/>
				<path fill="#F1F5CF" d="M117,349l7,2.1l7.6,2.3l4.7-15.5l4.5-14.9l-7.6-2.3l-7-2.1l-4.5,14.9L117,349z M113.2,351.8l11.1-36.8
					l20.1,6.1l-10.9,36.2l0,0.1L113.2,351.8z"/>
				
					<rect x="130.8" y="321.4" transform="matrix(0.9575 0.2884 -0.2884 0.9575 100.6805 -24.8693)" fill="#9ED8C3" width="7.9" height="15.6"/>
				<polygon fill="#F1F5CF" points="124.3,315 121.5,314.1 138.9,302.7 147.3,321.9 144.4,321 				"/>
				<polygon fill="#9ED8C3" points="128.7,335.5 136.3,337.8 131.6,353.4 124,351.1 124.2,350.5 127.5,351.5 125.3,346.9 				"/>
				<polygon fill="#C7E5D9" points="124.2,350.5 125.3,346.9 127.5,351.5 				"/>
				<polygon fill="#C7E5D9" points="125.3,346.9 124.2,350.5 117.8,348.5 120.9,338.2 				"/>
				
					<rect x="119.6" y="323.4" transform="matrix(0.2884 -0.9575 0.9575 0.2884 -222.4613 354.7346)" fill="#9ED8C3" width="15.6" height="7.3"/>
				<polygon fill="#9ED8C3" points="128.7,335.5 125.3,346.9 120.9,338.2 117.8,348.5 124.2,350.5 124,351.1 117,349 121.7,333.4 
									"/>
			</g>
			<g>
				
					<line fill="none" stroke="#4A1C14" stroke-linecap="round" stroke-linejoin="round" stroke-miterlimit="10" x1="147.3" y1="321.9" x2="144.4" y2="321"/>
				<polyline fill="none" stroke="#4A1C14" stroke-linecap="round" stroke-linejoin="round" stroke-miterlimit="10" points="
					124.3,315 121.5,314.1 138.9,302.7 				"/>
				<polyline fill="none" stroke="#4A1C14" stroke-linecap="round" stroke-linejoin="round" stroke-miterlimit="10" points="
					144.4,321 124.3,315 113.2,351.8 133.4,357.3 133.4,357.2 				"/>
				<polygon fill="none" stroke="#4A1C14" stroke-linecap="round" stroke-linejoin="round" stroke-miterlimit="10" points="
					138.9,302.7 148.3,310.2 154.6,325.8 147.3,321.9 				"/>
				<polygon fill="none" stroke="#4A1C14" stroke-linecap="round" stroke-linejoin="round" stroke-miterlimit="10" points="
					133.4,357.2 137.4,358.4 151.1,324.7 144.4,321 				"/>
				<polygon fill="none" stroke="#4A1C14" stroke-linecap="round" stroke-linejoin="round" stroke-miterlimit="10" points="
					136.3,337.8 131.6,353.4 124,351.1 117,349 121.7,333.4 126.2,318.5 133.2,320.6 140.8,322.9 				"/>
				<polyline fill="none" stroke="#4A1C14" stroke-miterlimit="10" points="121.7,333.4 128.7,335.5 136.3,337.8 				"/>
				<polyline fill="none" stroke="#4A1C14" stroke-miterlimit="10" points="133.2,320.6 128.7,335.5 125.3,346.9 124.2,350.5 
					124,351.1 				"/>
			</g>
		</g>
		<polygon fill="#4E7A64" points="202.1,266.4 210.2,274.9 208.3,280.9 221.3,403.7 190.1,372.2 200.4,272 		"/>
	</g>
	<polygon fill="#4D7A66" points="191.8,379.2 198.2,402.3 225.9,430.1 221.6,408.9 	"/>
	<path fill="#4A1C14" d="M7.6,621.9l-0.9-0.3c-1.1-0.3-1.7-1.4-1.3-2.5l34-112.9c0.3-1.1,1.4-1.7,2.5-1.3l0.9,0.3
		c1.1,0.3,1.7,1.4,1.3,2.5l-34,112.9C9.8,621.6,8.7,622.2,7.6,621.9z"/>
	<path fill="#4A1C14" d="M76.8,642.7l-0.9-0.3c-1.1-0.3-1.7-1.4-1.3-2.5l34-112.9c0.3-1.1,1.4-1.7,2.5-1.3l0.9,0.3
		c1.1,0.3,1.7,1.4,1.3,2.5l-34,112.9C79,642.4,77.9,643,76.8,642.7z"/>
	<path fill="#7ACFB2" stroke="#4A1C14" stroke-width="3" stroke-miterlimit="10" d="M25.6,487.1l45.6,13.7c0,0,28.1-99.4,7-105.7
		S25.6,487.1,25.6,487.1z"/>
	<path fill="#7ACFB2" stroke="#4A1C14" stroke-width="3" stroke-miterlimit="10" d="M91.5,507l45.6,13.7c0,0,28.1-99.4,7-105.7
		C122.9,408.6,91.5,507,91.5,507z"/>
	<path opacity="0.67" fill="#A4E0CA" d="M30.2,484.4L52,491l-9.5-38.8C42.5,452.2,34.3,472.8,30.2,484.4z"/>
	<path opacity="0.67" fill="#A4E0CA" d="M96.3,504.3l21.8,6.6l-9.6-39.6C108.5,471.3,101.1,489.5,96.3,504.3z"/>
</g>
<g>
	
		<polygon fill="#D4563A" stroke="#4A1C14" stroke-width="3" stroke-linecap="round" stroke-linejoin="round" stroke-miterlimit="10" points="
		171,698.2 153.8,700.8 152.8,694.6 167.9,692.3 	"/>
	<polygon fill="#933735" stroke="#4A1C14" stroke-width="3" stroke-linejoin="round" stroke-miterlimit="10" points="86.4,666.1 
		152.4,677.8 202.4,1005.2 134.7,982 	"/>
	<polyline fill="#B2463F" stroke="#4A1C14" stroke-width="3" stroke-linejoin="round" stroke-miterlimit="10" points="-50.1,690.9 
		89.1,669.7 136.6,981 0.7,1001.8 -47.6,690.9 	"/>
	<polygon fill="#6D2727" points="93.4,687.5 154.9,705 151.9,685.1 90.7,670.1 	"/>
	<polygon fill="#D6D8B4" stroke="#4A1C14" stroke-width="3" stroke-linejoin="round" stroke-miterlimit="10" points="6.1,519.5 
		76.5,545.6 80.9,574.4 27.6,558.1 9,551.2 5.7,530 	"/>
	<polygon fill="#BABA99" points="8.6,521.8 49.8,557.6 13,550.1 	"/>
	<polygon fill="#D6D8B4" stroke="#4A1C14" stroke-width="3" stroke-linejoin="round" stroke-miterlimit="10" points="23.4,550 
		95.3,572.7 99.7,601.5 46.4,585.1 27.8,578.2 24.6,557 	"/>
	<polygon fill="#BABA99" points="25,552.4 68,579.8 28.8,573 	"/>
	<polygon fill="#D6D8B4" stroke="#4A1C14" stroke-width="3" stroke-linejoin="round" stroke-miterlimit="10" points="42.6,572.6 
		110.6,597 115,625.8 60.7,609.6 41,602.8 37.8,581.6 	"/>
	<polygon fill="#BABA99" points="41.1,572.8 85.7,609.5 47.5,599.4 	"/>
	<polygon fill="#D6D8B4" stroke="#4A1C14" stroke-width="3" stroke-linejoin="round" stroke-miterlimit="10" points="53.7,600.9 
		127.4,624.4 131.8,653.2 77,637 56.8,630.4 53.6,609.2 	"/>
	<polygon fill="#BABA99" points="56.5,603.3 100,634.2 60.8,627.3 	"/>
	<polygon fill="#D6D8B4" stroke="#4A1C14" stroke-width="3" stroke-linejoin="round" stroke-miterlimit="10" points="77.7,627.1 
		146.2,651.4 150.6,680.2 95.8,664.1 75.7,657.4 72.4,636.3 	"/>
	<polygon fill="#BABA99" points="78.8,629.2 120.9,658.9 82.7,652.9 	"/>
	<polygon fill="#D6D8B4" stroke="#4A1C14" stroke-width="3" stroke-linejoin="round" stroke-miterlimit="10" points="98.6,652.3 
		166.9,676.6 170.1,697.4 102.4,674.4 	"/>
	<polygon fill="#BABA99" points="100.3,654.5 143,686.5 102.3,673.6 	"/>
	<polygon fill="#933735" points="-44.2,706.3 -47.6,685.2 86.2,661.2 90,685.8 	"/>
	<g>
		
			<rect x="-42" y="692.3" transform="matrix(0.9885 -0.1509 0.1509 0.9885 -109.4596 6.984)" fill="none" stroke="#4A1C14" stroke-width="3" stroke-miterlimit="10" width="66.5" height="64.4"/>
		
			<rect x="-54.6" y="722.7" transform="matrix(0.8057 0.5923 -0.5923 0.8057 427.5593 145.9561)" fill="#4A1C14" width="91.7" height="4.1"/>
		
			<rect x="-53.7" y="721.5" transform="matrix(-0.5923 0.8057 -0.8057 -0.5923 570.5071 1158.4321)" fill="#4A1C14" width="91.7" height="4.1"/>
	</g>
	<g>
		
			<rect x="26.9" y="681.7" transform="matrix(0.9885 -0.1509 0.1509 0.9885 -107.0667 17.3308)" fill="none" stroke="#4A1C14" stroke-width="3" stroke-miterlimit="10" width="67.6" height="64.4"/>
		
			<rect x="15.6" y="712.1" transform="matrix(0.8057 0.5923 -0.5923 0.8057 434.8447 102.3192)" fill="#4A1C14" width="91.7" height="3.8"/>
		
			<rect x="15.6" y="712.1" transform="matrix(-0.5923 0.8057 -0.8057 -0.5923 673.1618 1087.4299)" fill="#4A1C14" width="91.7" height="3.8"/>
	</g>
	<polygon fill="#F1F5CF" stroke="#4A1C14" stroke-width="3" stroke-linejoin="round" stroke-miterlimit="10" points="81.3,653 
		77.2,626.3 59.7,628.9 55.3,600.2 47.1,601.4 42.4,570.6 27,572.9 23.4,549.3 12.1,551 7.2,519.2 2.8,519.9 -3.7,520.9 
		-10.2,521.9 -5.4,553.7 -19.8,555.9 -16.1,579.5 -27.4,581.3 -22.7,612.1 -34,613.8 -29.7,642.6 -47.1,645.2 -43,672 -63.6,675.1 
		-59.7,700.8 21.9,688.3 28.4,687.3 102.7,676 98.8,650.3 	"/>
	<g>
		<polygon fill="#933735" points="2.4,931.6 -0.7,932 -8.9,878 -5.5,879.8 		"/>
		<polygon fill="#6D2727" points="-5.3,880.2 -8.5,878.2 37.6,871 38.9,873.4 		"/>
		
			<rect x="-1.8" y="876.7" transform="matrix(0.9885 -0.1509 0.1509 0.9885 -136.0193 13.2878)" fill="#7ACFB2" width="42.6" height="52"/>
		<polygon fill="#97DBC2" points="-0.7,897.7 4,928.2 35.8,923.3 		"/>
		<g>
			<path fill="#4A1C14" d="M38.5,875.1l7.3,48l-41.6,6.4l-7.3-48L38.5,875.1 M40.2,872.8l-45.5,7l7.9,51.9l45.5-7L40.2,872.8
				L40.2,872.8z"/>
		</g>
		
			<rect x="40.3" y="870.1" transform="matrix(0.9885 -0.1509 0.1509 0.9885 -135.0094 16.6069)" fill="#B2463F" width="3.1" height="55.1"/>
		
			<rect x="22.2" y="897.6" transform="matrix(0.1509 0.9885 -0.9885 0.1509 936.2611 763.4073)" fill="#B2463F" width="3.1" height="58.2"/>
		
			<rect x="19.8" y="876.4" transform="matrix(0.9885 -0.1509 0.1509 0.9885 -135.7184 13.5412)" fill="#4A1C14" width="3.1" height="48.9"/>
		
			<rect x="18.8" y="880.7" transform="matrix(0.1509 0.9885 -0.9885 0.1509 907.8967 744.8997)" fill="#4A1C14" width="3.1" height="40.5"/>
	</g>
	<g>
		
			<rect x="56.4" y="864.1" transform="matrix(0.9885 -0.1509 0.1509 0.9885 -138.715 23.2773)" fill="#4A1C14" width="55.1" height="122.6"/>
		
			<rect x="109.1" y="859.9" transform="matrix(0.9885 -0.1509 0.1509 0.9885 -137.7579 27.416)" fill="#B2463F" width="5.2" height="122.6"/>
	</g>
</g>
<g>
	<g>
		
			<polygon fill="#527F68" stroke="#4A1C14" stroke-width="3" stroke-linecap="round" stroke-linejoin="round" stroke-miterlimit="10" points="
			222.3,1073.5 204.2,1068.2 207.5,1051.7 		"/>
		
			<polygon fill="#D6D8B4" stroke="#4A1C14" stroke-width="3" stroke-linecap="round" stroke-linejoin="round" stroke-miterlimit="10" points="
			164,1004.9 209.6,1040.6 120.5,1347.9 76.2,1304.6 		"/>
		<polygon fill="#BABA99" points="158.3,1031.4 199.9,1067.7 205.3,1049.1 162.7,1015.3 		"/>
		
			<rect x="-112.6" y="1055.1" transform="matrix(0.2787 -0.9604 0.9604 0.2787 -1059.5935 858.757)" fill="#F1F5CF" stroke="#4A1C14" stroke-width="3" stroke-miterlimit="10" width="309" height="159.4"/>
		<polygon fill="#D6D8B4" points="3.5,987.7 153.5,1029.5 157.2,1016.6 7.2,974.8 		"/>
		<g id="XMLID_4_">
			<g>
				<polygon fill="#6D2727" points="222.9,1071.5 170,1020 160.6,987.1 212.8,1038 				"/>
				<polygon fill="#933735" points="170.6,874.8 173,865.6 211.1,903.5 208.7,912 212.8,1038 160.6,987.1 				"/>
				<polygon fill="#B2463F" points="160.6,987.1 170,1020 -6.8,971.2 29.3,951.1 				"/>
				<polygon fill="#B2463F" points="160.6,987.1 29.3,951.1 101.7,853.5 103.9,845.9 173,865.6 170.6,874.8 				"/>
			</g>
			<g>
				<polygon fill="none" stroke="#4A1C14" stroke-width="3" stroke-linejoin="round" stroke-miterlimit="10" points="170,1020 
					-6.8,971.2 29.3,951.1 101.7,853.5 103.9,845.9 173,865.6 211.1,903.5 208.7,912 212.8,1038 222.9,1071.5 				"/>
				<polyline fill="none" stroke="#4A1C14" stroke-width="3" stroke-linejoin="round" stroke-miterlimit="10" points="29.3,951.1 
					160.6,987.1 170,1020 				"/>
				<polyline fill="none" stroke="#4A1C14" stroke-width="3" stroke-linejoin="round" stroke-miterlimit="10" points="173,865.6 
					170.6,874.8 160.6,987.1 212.8,1038 				"/>
			</g>
		</g>
		<g id="XMLID_3_">
			<g>
				<polygon fill="#D6D8AD" points="114.8,930.9 105.4,909.9 115.7,918.1 122.9,935.1 				"/>
				<polygon fill="#D6D8AD" points="100,969.9 111.6,930 119,934 104.3,971.2 				"/>
				<path fill="#F1F5CF" d="M91.6,927.5l-4.8,16.4l-5,17.1l7.7,2.2l8.4,2.4l5-17.1l4.8-16.4l-8.4-2.4L91.6,927.5z M111.6,930
					L100,969.9l0,0.1l-22.3-5.9l11.8-40.6L111.6,930z"/>
				
					<rect x="96.7" y="930.6" transform="matrix(0.9604 0.2787 -0.2787 0.9604 265.7129 9.0318)" fill="#9ED8C3" width="8.7" height="17.1"/>
				<polygon fill="#9ED8C3" points="90.9,958.7 94.5,946.1 102.9,948.6 97.9,965.7 89.5,963.2 89.7,962.6 93.4,963.6 				"/>
				<polygon fill="#C7E5D9" points="89.7,962.6 90.9,958.7 93.4,963.6 				"/>
				<polygon fill="#F1F5CF" points="105.4,909.9 114.8,930.9 111.6,930 89.4,923.6 86.4,922.7 				"/>
				
					<rect x="84.5" y="932.8" transform="matrix(0.2787 -0.9604 0.9604 0.2787 -832.5826 765.0963)" fill="#9ED8C3" width="17.1" height="8"/>
				<polygon fill="#C7E5D9" points="86,949.1 90.9,958.7 89.7,962.6 82.7,960.5 				"/>
				<polygon fill="#9ED8C3" points="94.5,946.1 90.9,958.7 86,949.1 82.7,960.5 89.7,962.6 89.5,963.2 81.8,961 86.8,943.9 				"/>
			</g>
			<g>
				
					<line fill="none" stroke="#4A1C14" stroke-linecap="round" stroke-linejoin="round" stroke-miterlimit="10" x1="114.8" y1="930.9" x2="111.6" y2="930"/>
				<polyline fill="none" stroke="#4A1C14" stroke-linecap="round" stroke-linejoin="round" stroke-miterlimit="10" points="
					89.4,923.6 86.4,922.7 105.4,909.9 				"/>
				<polyline fill="none" stroke="#4A1C14" stroke-linecap="round" stroke-linejoin="round" stroke-miterlimit="10" points="
					111.6,930 89.4,923.6 77.6,964.2 99.9,970 100,969.9 				"/>
				<polygon fill="none" stroke="#4A1C14" stroke-linecap="round" stroke-linejoin="round" stroke-miterlimit="10" points="
					105.4,909.9 115.7,918.1 122.9,935.1 114.8,930.9 				"/>
				<polygon fill="none" stroke="#4A1C14" stroke-linecap="round" stroke-linejoin="round" stroke-miterlimit="10" points="
					100,969.9 104.3,971.2 119,934 111.6,930 				"/>
				<polygon fill="none" stroke="#4A1C14" stroke-linecap="round" stroke-linejoin="round" stroke-miterlimit="10" points="
					102.9,948.6 97.9,965.7 89.5,963.2 81.8,961 86.8,943.9 91.6,927.5 99.3,929.7 107.7,932.1 				"/>
				<polyline fill="none" stroke="#4A1C14" stroke-miterlimit="10" points="86.8,943.9 94.5,946.1 102.9,948.6 				"/>
				<polyline fill="none" stroke="#4A1C14" stroke-miterlimit="10" points="99.3,929.7 94.5,946.1 90.9,958.7 89.7,962.6 
					89.5,963.2 				"/>
			</g>
		</g>
		<polygon fill="#6D2727" points="174.4,869.3 183.4,878.6 181.4,885.2 197.1,1020 162.4,985.7 172.6,875.5 		"/>
	</g>
	<polygon fill="#6D2727" points="164.4,993.4 171.6,1018.7 202.4,1049 197.5,1025.7 	"/>
	<path fill="#4A1C14" d="M-35.3,1262.1l-1-0.3c-1.2-0.3-1.8-1.6-1.5-2.7l36.1-124.5c0.3-1.2,1.6-1.8,2.7-1.5l1,0.3
		c1.2,0.3,1.8,1.6,1.5,2.7l-36.1,124.5C-32.9,1261.8-34.1,1262.5-35.3,1262.1z"/>
	<path fill="#4A1C14" d="M40.9,1284.2l-1-0.3c-1.2-0.3-1.8-1.6-1.5-2.7l36.1-124.5c0.3-1.2,1.6-1.8,2.7-1.5l1,0.3
		c1.2,0.3,1.8,1.6,1.5,2.7l-36.1,124.5C43.3,1283.9,42.1,1284.6,40.9,1284.2z"/>
	<path fill="#7ACFB2" stroke="#4A1C14" stroke-width="3" stroke-miterlimit="10" d="M-17.1,1113.8l50.3,14.6
		c0,0,29.7-109.5,6.5-116.2C16.4,1005.4-17.1,1113.8-17.1,1113.8z"/>
	<path fill="#7ACFB2" stroke="#4A1C14" stroke-width="3" stroke-miterlimit="10" d="M55.5,1134.9l50.3,14.6
		c0,0,29.7-109.5,6.5-116.2C89,1026.5,55.5,1134.9,55.5,1134.9z"/>
	<path opacity="0.67" fill="#A4E0CA" d="M-12,1110.8l24.1,7l-10.9-42.6C1.1,1075.2-7.7,1098-12,1110.8z"/>
	<path opacity="0.67" fill="#A4E0CA" d="M60.9,1132l24.1,7l-11-43.4C73.9,1095.5,65.9,1115.5,60.9,1132z"/>
</g>
</svg>
