<?xml version="1.0" encoding="utf-8"?>
<!-- Generator: Adobe Illustrator 17.1.0, SVG Export Plug-In . SVG Version: 6.00 Build 0)  -->
<!DOCTYPE svg PUBLIC "-//W3C//DTD SVG 1.1//EN" "http://www.w3.org/Graphics/SVG/1.1/DTD/svg11.dtd">
<svg version="1.1" id="Layer_1" xmlns="http://www.w3.org/2000/svg" xmlns:xlink="http://www.w3.org/1999/xlink" x="0px" y="0px"
	 viewBox="0 0 46.8 64.8" enable-background="new 0 0 46.8 64.8" xml:space="preserve">
<g>
	<g>
		<ellipse fill="#F1F5CF" stroke="#4A1C14" stroke-width="0.72" stroke-miterlimit="10" cx="11.6" cy="1.9" rx="3.2" ry="1.5"/>
		<ellipse fill="#F1F5CF" stroke="#4A1C14" stroke-width="0.72" stroke-miterlimit="10" cx="11.6" cy="4.4" rx="3.2" ry="1.5"/>
		<ellipse fill="#F1F5CF" stroke="#4A1C14" stroke-width="0.72" stroke-miterlimit="10" cx="11.6" cy="6.8" rx="3.2" ry="1.5"/>
		<ellipse fill="#F1F5CF" stroke="#4A1C14" stroke-width="0.72" stroke-miterlimit="10" cx="11.6" cy="9.3" rx="3.2" ry="1.5"/>
		<ellipse fill="#F1F5CF" stroke="#4A1C14" stroke-width="0.72" stroke-miterlimit="10" cx="11.6" cy="11.8" rx="3.2" ry="1.5"/>
	</g>
	<g>
		<ellipse fill="#F1F5CF" stroke="#4A1C14" stroke-width="0.72" stroke-miterlimit="10" cx="34.6" cy="1.9" rx="3.2" ry="1.5"/>
		<ellipse fill="#F1F5CF" stroke="#4A1C14" stroke-width="0.72" stroke-miterlimit="10" cx="34.6" cy="4.4" rx="3.2" ry="1.5"/>
		<ellipse fill="#F1F5CF" stroke="#4A1C14" stroke-width="0.72" stroke-miterlimit="10" cx="34.6" cy="6.8" rx="3.2" ry="1.5"/>
		<ellipse fill="#F1F5CF" stroke="#4A1C14" stroke-width="0.72" stroke-miterlimit="10" cx="34.6" cy="9.3" rx="3.2" ry="1.5"/>
		<ellipse fill="#F1F5CF" stroke="#4A1C14" stroke-width="0.72" stroke-miterlimit="10" cx="34.6" cy="11.8" rx="3.2" ry="1.5"/>
	</g>
	<g>
		<rect x="2" y="7.8" fill="#4A1C14" width="41" height="54"/>
		<path fill="#4A1C14" d="M41,9.8v51H3v-51H41 M44,6.8H0v57h44V6.8L44,6.8z"/>
	</g>
	<g>
		<rect x="1" y="7.8" fill="#F1F5CF" width="41" height="54"/>
	</g>
	<polygon fill="#C1C19F" points="43,61.8 2.4,61.8 1.6,61.8 43,61.8 	"/>
	<polygon fill="#30110F" points="0,63.8 2.9,64.8 46.8,64.8 44.5,63.8 	"/>
	<polygon fill="#E3E5C1" points="43,62.2 42,61.7 42,7.7 43,8.3 	"/>
	<polygon fill="#3F1611" points="46.8,64.8 44,63.8 44,6.8 46.6,9.1 	"/>
</g>
</svg>
