<?xml version="1.0" encoding="utf-8"?>
<!-- Generator: Adobe Illustrator 17.1.0, SVG Export Plug-In . SVG Version: 6.00 Build 0)  -->
<!DOCTYPE svg PUBLIC "-//W3C//DTD SVG 1.1//EN" "http://www.w3.org/Graphics/SVG/1.1/DTD/svg11.dtd">
<svg version="1.1" id="Layer_1" xmlns="http://www.w3.org/2000/svg" xmlns:xlink="http://www.w3.org/1999/xlink" x="0px" y="0px"
	 viewBox="0 19.9 100 60.2" enable-background="new 0 19.9 100 60.2" xml:space="preserve">
<g>
	<path fill="#A03B38" d="M70.2,26.5l-0.7-5.1c-0.1-0.6,0.4-1.3,1-1.3l1.2-0.2c0.6-0.1,1.3,0.4,1.3,1l0.7,5.1c0.1,0.6-0.4,1.3-1,1.3
		l-1.2,0.2C70.9,27.6,70.3,27.1,70.2,26.5z"/>
	<path fill="#A03B38" d="M70.7,73.5l-0.7,5.1c-0.1,0.6,0.4,1.3,1,1.3l1.2,0.2c0.6,0.1,1.3-0.4,1.3-1l0.7-5.1c0.1-0.6-0.4-1.3-1-1.3
		L72,72.6C71.3,72.4,70.7,72.9,70.7,73.5z"/>
	<path fill="#963330" d="M7.1,72.7V27.2c0-0.7,0.5-1.2,1.1-1.2h65.9c0.6,0,1.1,0.5,1.1,1.2v45.5c0,0.7-0.5,1.2-1.1,1.2H8.1
		C7.5,73.9,7.1,73.4,7.1,72.7z"/>
	<path fill="#A03B38" d="M74.9,33.7v-6.3h19.6c2.2,0,3.9,1.8,3.9,3.9v2.4H74.9z"/>
	<path fill="#A03B38" d="M74.9,72.5v-6.3h23.5v2.4c0,2.2-1.8,3.9-3.9,3.9H74.9z"/>
	<polygon fill="#9DD6EA" points="61.9,69.8 61.9,29.8 75.3,27.4 75.3,72.5 	"/>
	<polygon fill="#B2463F" points="75.3,72.5 75.3,27.4 98.8,31.3 98.8,68.6 	"/>
	<rect x="89.8" y="41.8" fill="#A03B38" width="0.8" height="16.9"/>
	<polygon fill="#9DD6EA" points="45.9,72 45.9,67.4 50.6,66.9 61.2,72 	"/>
	<polygon fill="#9DD6EA" points="44.7,27.6 44.7,32.5 31,32.8 31,27.6 	"/>
	<polygon fill="#9DD6EA" points="45.9,27.6 45.9,32.5 50.6,32.8 61.2,27.6 	"/>
	<rect x="85.5" y="41.8" fill="#A03B38" width="0.8" height="16.9"/>
	<rect x="81.2" y="41.8" fill="#A03B38" width="0.8" height="16.9"/>
	<rect x="98.8" y="33.9" fill="#FCCD47" width="1.2" height="6.7"/>
	<rect x="98.8" y="59.4" fill="#FCCD47" width="1.2" height="6.7"/>
	<rect x="16.4" y="27.6" fill="#9DD6EA" width="13.7" height="5.5"/>
	<rect x="16.4" y="66.5" fill="#9DD6EA" width="13.7" height="5.5"/>
	<rect x="31" y="66.5" fill="#9DD6EA" width="13.7" height="5.5"/>
	<path fill="#B2463F" d="M60.7,29.6H16.3c-2.9,0-5.3,1.8-5.3,3.9v33c0,2.2,2.4,3.9,5.3,3.9h44.4c2.9,0,5-1.6,5-3.6V33.2
		C65.7,31.2,63.6,29.6,60.7,29.6z"/>
	<path fill="#1A1A1A" d="M0,61.5v-22c0-0.7,0.5-1.2,1.2-1.2h4.7c0.7,0,1.2,0.5,1.2,1.2v22c0,0.7-0.5,1.2-1.2,1.2H1.2
		C0.5,62.7,0,62.2,0,61.5z"/>
</g>
</svg>
