<?xml version="1.0" encoding="utf-8"?>
<!-- Generator: Adobe Illustrator 17.1.0, SVG Export Plug-In . SVG Version: 6.00 Build 0)  -->
<!DOCTYPE svg PUBLIC "-//W3C//DTD SVG 1.1//EN" "http://www.w3.org/Graphics/SVG/1.1/DTD/svg11.dtd">
<svg version="1.1" id="Layer_1" xmlns="http://www.w3.org/2000/svg" xmlns:xlink="http://www.w3.org/1999/xlink" x="0px" y="0px"
	 viewBox="0 0 254.6 153.4" enable-background="new 0 0 254.6 153.4" xml:space="preserve">
<g>
	<path fill="#3D1611" d="M179,16.7l-1.9-12.9c-0.2-1.6,0.9-3.2,2.5-3.4l3-0.4c1.6-0.2,3.2,0.9,3.4,2.5l1.9,12.9
		c0.2,1.6-0.9,3.2-2.5,3.4l-3,0.4C180.7,19.5,179.2,18.4,179,16.7z"/>
	<path fill="#3D1611" d="M180.1,136.7l-1.9,12.9c-0.2,1.6,0.9,3.2,2.5,3.4l3,0.4c1.6,0.2,3.2-0.9,3.4-2.5L189,138
		c0.2-1.6-0.9-3.2-2.5-3.4l-3-0.4C181.8,133.9,180.3,135.1,180.1,136.7z"/>
	<path fill="#4A1C14" d="M18,134.6v-116c0-1.7,1.2-3,2.7-3h168.1c1.5,0,2.7,1.3,2.7,3v116c0,1.7-1.2,3-2.7,3H20.7
		C19.2,137.6,18,136.3,18,134.6z"/>
	<path fill="#4A1C14" d="M191,35.1v-16h50c5.5,0,10,4.5,10,10v6H191z"/>
	<path fill="#4A1C14" d="M191,134.1v-16h60v6c0,5.5-4.5,10-10,10H191z"/>
	<polygon fill="#9DD6EA" points="157.6,127.1 157.6,25.1 191.6,19.1 191.6,134.1 	"/>
	<polygon fill="#F1F5CF" points="191.6,134.1 191.6,19.1 251.6,29.1 251.6,124.1 	"/>
	<rect x="228.6" y="56.2" fill="#4A1C14" width="2" height="43"/>
	<polygon fill="#9DD6EA" points="116.6,133.2 116.6,121.1 128.8,120.2 156,133.2 	"/>
	<polygon fill="#9DD6EA" points="113.6,20.2 113.6,32.1 78.8,33.2 79,20.2 	"/>
	<polygon fill="#9DD6EA" points="116.6,20.2 116.6,32.1 128.8,33.2 156,20.2 	"/>
	<rect x="217.6" y="56.2" fill="#4A1C14" width="2" height="43"/>
	<rect x="206.6" y="56.2" fill="#4A1C14" width="2" height="43"/>
	<rect x="251.6" y="36.2" fill="#FCCD47" width="3" height="17"/>
	<rect x="251.6" y="101.2" fill="#FCCD47" width="3" height="17"/>
	<rect x="41.6" y="20.2" fill="#9DD6EA" width="35" height="14"/>
	<rect x="41.6" y="119.2" fill="#9DD6EA" width="35" height="14"/>
	<rect x="78.6" y="119.2" fill="#9DD6EA" width="35" height="14"/>
	<path fill="#F1F5CF" d="M154.8,24.6H41.6c-7.4,0-13.4,4.5-13.4,10v84c0,5.5,6,10,13.4,10h113.2c7.4,0,12.7-4.2,12.7-9.2V33.8
		C167.5,28.9,162.2,24.6,154.8,24.6z"/>
	<path fill="#1A1A1A" d="M0,106.1l0-56c0-1.7,1.3-3,3-3h12c1.7,0,3,1.3,3,3v56c0,1.7-1.3,3-3,3H3C1.3,109.1,0,107.8,0,106.1z"/>
</g>
</svg>
