<?xml version="1.0" encoding="utf-8"?>
<!-- Generator: Adobe Illustrator 17.1.0, SVG Export Plug-In . SVG Version: 6.00 Build 0)  -->
<!DOCTYPE svg PUBLIC "-//W3C//DTD SVG 1.1//EN" "http://www.w3.org/Graphics/SVG/1.1/DTD/svg11.dtd">
<svg version="1.1" id="Layer_1" xmlns="http://www.w3.org/2000/svg" xmlns:xlink="http://www.w3.org/1999/xlink" x="0px" y="0px"
	 viewBox="0 0 254.7 153.4" enable-background="new 0 0 254.7 153.4" xml:space="preserve">
<g>
	<path fill="#D6A73E" d="M179,16.7l-1.9-12.9c-0.2-1.6,0.9-3.2,2.5-3.4l3-0.4c1.6-0.2,3.2,0.9,3.4,2.5l1.9,12.9
		c0.2,1.6-0.9,3.2-2.5,3.4l-3,0.4C180.7,19.5,179.2,18.4,179,16.7z"/>
	<path fill="#D6A73E" d="M180.1,136.7l-1.9,12.9c-0.2,1.6,0.9,3.2,2.5,3.4l3,0.4c1.6,0.2,3.2-0.9,3.4-2.5L189,138
		c0.2-1.6-0.9-3.2-2.5-3.4l-3-0.4C181.8,133.9,180.3,135.1,180.1,136.7z"/>
	<path fill="#E5B53E" d="M18,134.6v-116c0-1.7,1.2-3,2.7-3h168.1c1.5,0,2.7,1.3,2.7,3v116c0,1.7-1.2,3-2.7,3H20.7
		C19.2,137.6,18,136.3,18,134.6z"/>
	<path fill="#EFBB37" d="M191,35.1v-16h50c5.5,0,10,4.5,10,10v6H191z"/>
	<path fill="#EFBB37" d="M191,134.1v-16h60v6c0,5.5-4.5,10-10,10H191z"/>
	<polygon fill="#9DD6EA" points="157.7,127.1 157.7,25.1 191.7,19.1 191.7,134.1 	"/>
	<polygon fill="#FCCD47" points="191.7,134.1 191.7,19.1 251.7,29.1 251.7,124.1 	"/>
	<rect x="228.7" y="55.4" fill="#B2463F" width="2" height="43"/>
	<polygon fill="#9DD6EA" points="116.7,132.4 116.7,121.1 128.9,119.8 156,132.4 	"/>
	<polygon fill="#9DD6EA" points="113.7,19.4 113.7,32.1 78.9,32.8 79,19.4 	"/>
	<polygon fill="#9DD6EA" points="116.7,19.4 116.7,32.1 128.9,32.8 156,19.4 	"/>
	<rect x="217.7" y="55.4" fill="#B2463F" width="2" height="43"/>
	<rect x="206.7" y="55.4" fill="#B2463F" width="2" height="43"/>
	<rect x="251.7" y="35.4" fill="#B2463F" width="3" height="17"/>
	<rect x="251.7" y="100.4" fill="#B2463F" width="3" height="17"/>
	<rect x="41.7" y="19.4" fill="#9DD6EA" width="35" height="14"/>
	<rect x="41.7" y="118.4" fill="#9DD6EA" width="35" height="14"/>
	<rect x="78.7" y="118.4" fill="#9DD6EA" width="35" height="14"/>
	<path fill="#FCCD47" d="M154.8,24.6H41.6c-7.4,0-13.4,4.5-13.4,10v84c0,5.5,6,10,13.4,10h113.2c7.4,0,12.7-4.2,12.7-9.2V33.8
		C167.5,28.9,162.2,24.6,154.8,24.6z"/>
	<path fill="#1A1A1A" d="M0,106.1l0-56c0-1.7,1.3-3,3-3h12c1.7,0,3,1.3,3,3v56c0,1.7-1.3,3-3,3H3C1.3,109.1,0,107.8,0,106.1z"/>
</g>
</svg>
