<?xml version="1.0" encoding="utf-8"?>
<!-- Generator: Adobe Illustrator 17.1.0, SVG Export Plug-In . SVG Version: 6.00 Build 0)  -->
<!DOCTYPE svg PUBLIC "-//W3C//DTD SVG 1.1//EN" "http://www.w3.org/Graphics/SVG/1.1/DTD/svg11.dtd">
<svg version="1.1" id="buildings" xmlns="http://www.w3.org/2000/svg" xmlns:xlink="http://www.w3.org/1999/xlink" x="0px" y="0px"
	 viewBox="0 0 100 100" enable-background="new 0 0 100 100" xml:space="preserve">
<path fill="#7ACFB2" d="M0,0v45.7h18.7c1.9-15.3,15-27.2,30.9-27.2s28.9,11.9,30.9,27.2H100V0H0z"/>
<g>
	<g>
		<rect x="76.5" y="13.4" fill="#999999" width="10.1" height="19.2"/>
		<polygon fill="#808080" points="90,34.4 86.6,32.5 86.6,13.4 90,15.2 		"/>
		<g>
			<rect x="77.2" y="13.8" fill="#CCCCCC" width="2.5" height="1.3"/>
			<rect x="80.2" y="13.8" fill="#CCCCCC" width="2.5" height="1.3"/>
			<rect x="83.3" y="13.8" fill="#CCCCCC" width="2.5" height="1.3"/>
		</g>
		<g>
			<rect x="77.2" y="15.5" fill="#CCCCCC" width="2.5" height="1.3"/>
			<rect x="80.2" y="15.5" fill="#CCCCCC" width="2.5" height="1.3"/>
			<rect x="83.3" y="15.5" fill="#CCCCCC" width="2.5" height="1.3"/>
		</g>
		<g>
			<rect x="77.2" y="17.2" fill="#CCCCCC" width="2.5" height="1.3"/>
			<rect x="80.2" y="17.2" fill="#CCCCCC" width="2.5" height="1.3"/>
			<rect x="83.3" y="17.2" fill="#CCCCCC" width="2.5" height="1.3"/>
		</g>
		<g>
			<rect x="77.2" y="18.8" fill="#CCCCCC" width="2.5" height="1.3"/>
			<rect x="80.2" y="18.8" fill="#CCCCCC" width="2.5" height="1.3"/>
			<rect x="83.3" y="18.8" fill="#CCCCCC" width="2.5" height="1.3"/>
		</g>
		<g>
			<rect x="77.2" y="20.5" fill="#CCCCCC" width="2.5" height="1.3"/>
			<rect x="80.2" y="20.5" fill="#CCCCCC" width="2.5" height="1.3"/>
			<rect x="83.3" y="20.5" fill="#CCCCCC" width="2.5" height="1.3"/>
		</g>
		<g>
			<rect x="77.2" y="22.2" fill="#CCCCCC" width="2.5" height="1.3"/>
			<rect x="80.2" y="22.2" fill="#CCCCCC" width="2.5" height="1.3"/>
			<rect x="83.3" y="22.2" fill="#CCCCCC" width="2.5" height="1.3"/>
		</g>
		<g>
			<rect x="77.2" y="23.8" fill="#CCCCCC" width="2.5" height="1.3"/>
			<rect x="80.2" y="23.8" fill="#CCCCCC" width="2.5" height="1.3"/>
			<rect x="83.3" y="23.8" fill="#CCCCCC" width="2.5" height="1.3"/>
		</g>
		<g>
			<rect x="77.2" y="25.5" fill="#CCCCCC" width="2.5" height="1.3"/>
			<rect x="80.2" y="25.5" fill="#CCCCCC" width="2.5" height="1.3"/>
			<rect x="83.3" y="25.5" fill="#CCCCCC" width="2.5" height="1.3"/>
		</g>
		<g>
			<rect x="77.2" y="27.2" fill="#CCCCCC" width="2.5" height="1.3"/>
			<rect x="80.2" y="27.2" fill="#CCCCCC" width="2.5" height="1.3"/>
			<rect x="83.3" y="27.2" fill="#CCCCCC" width="2.5" height="1.3"/>
		</g>
		<g>
			<rect x="77.2" y="28.9" fill="#CCCCCC" width="2.5" height="1.3"/>
			<rect x="80.2" y="28.9" fill="#CCCCCC" width="2.5" height="1.3"/>
			<rect x="83.3" y="28.9" fill="#CCCCCC" width="2.5" height="1.3"/>
		</g>
		<g>
			<rect x="77.2" y="30.6" fill="#CCCCCC" width="2.5" height="1.3"/>
			<rect x="80.2" y="30.6" fill="#CCCCCC" width="2.5" height="1.3"/>
			<rect x="83.3" y="30.6" fill="#CCCCCC" width="2.5" height="1.3"/>
		</g>
	</g>
	<g>
		<g>
			<polygon fill="#999999" points="88.1,15.9 86.9,15.2 86.9,13.9 88.1,14.6 			"/>
		</g>
		<g>
			<polygon fill="#999999" points="89.6,16.7 88.5,16 88.5,14.7 89.6,15.4 			"/>
		</g>
	</g>
	<g>
		<g>
			<polygon fill="#999999" points="88.1,17.5 86.9,16.9 86.9,15.6 88.1,16.2 			"/>
		</g>
		<g>
			<polygon fill="#999999" points="89.6,18.3 88.5,17.7 88.5,16.4 89.6,17.1 			"/>
		</g>
	</g>
	<g>
		<g>
			<polygon fill="#999999" points="88.1,19.2 86.9,18.6 86.9,17.3 88.1,17.9 			"/>
		</g>
		<g>
			<polygon fill="#999999" points="89.6,20 88.5,19.4 88.5,18.1 89.6,18.7 			"/>
		</g>
	</g>
	<g>
		<g>
			<polygon fill="#999999" points="88.1,20.9 86.9,20.2 86.9,18.9 88.1,19.6 			"/>
		</g>
		<g>
			<polygon fill="#999999" points="89.6,21.7 88.5,21 88.5,19.7 89.6,20.4 			"/>
		</g>
	</g>
	<g>
		<g>
			<polygon fill="#999999" points="88.1,22.5 86.9,21.9 86.9,20.6 88.1,21.2 			"/>
		</g>
		<g>
			<polygon fill="#999999" points="89.6,23.3 88.5,22.7 88.5,21.4 89.6,22 			"/>
		</g>
	</g>
	<g>
		<g>
			<polygon fill="#999999" points="88.1,24.2 86.9,23.6 86.9,22.3 88.1,22.9 			"/>
		</g>
		<g>
			<polygon fill="#999999" points="89.6,25 88.5,24.4 88.5,23.1 89.6,23.7 			"/>
		</g>
	</g>
	<g>
		<g>
			<polygon fill="#999999" points="88.1,25.9 86.9,25.2 86.9,23.9 88.1,24.6 			"/>
		</g>
		<g>
			<polygon fill="#999999" points="89.6,26.7 88.5,26 88.5,24.7 89.6,25.4 			"/>
		</g>
	</g>
	<g>
		<g>
			<polygon fill="#999999" points="88.1,27.5 86.9,26.9 86.9,25.6 88.1,26.2 			"/>
		</g>
		<g>
			<polygon fill="#999999" points="89.6,28.3 88.5,27.7 88.5,26.4 89.6,27 			"/>
		</g>
	</g>
	<g>
		<g>
			<polygon fill="#999999" points="88.1,29.2 86.9,28.6 86.9,27.3 88.1,27.9 			"/>
		</g>
		<g>
			<polygon fill="#999999" points="89.6,30 88.5,29.4 88.5,28.1 89.6,28.7 			"/>
		</g>
	</g>
	<g>
		<g>
			<polygon fill="#999999" points="88.1,30.9 86.9,30.2 86.9,28.9 88.1,29.6 			"/>
		</g>
		<g>
			<polygon fill="#999999" points="89.6,31.7 88.5,31 88.5,29.7 89.6,30.4 			"/>
		</g>
	</g>
	<g>
		<g>
			<polygon fill="#999999" points="88.1,32.5 86.9,31.9 86.9,30.6 88.1,31.2 			"/>
		</g>
		<g>
			<polygon fill="#999999" points="89.6,33.3 88.5,32.7 88.5,31.4 89.6,32 			"/>
		</g>
	</g>
</g>
<g>
	<rect x="11.1" y="14.7" fill="#999999" width="4.4" height="23.4"/>
	<rect x="11.5" y="15.4" fill="#CCCCCC" width="0.3" height="22.2"/>
	<rect x="12.1" y="15.4" fill="#CCCCCC" width="0.3" height="22.2"/>
	<rect x="12.6" y="15.4" fill="#CCCCCC" width="0.3" height="22.2"/>
	<rect x="13.2" y="15.4" fill="#CCCCCC" width="0.3" height="22.2"/>
	<rect x="13.7" y="15.4" fill="#CCCCCC" width="0.3" height="22.2"/>
	<rect x="14.3" y="15.4" fill="#CCCCCC" width="0.3" height="22.2"/>
	<rect x="14.9" y="15.4" fill="#CCCCCC" width="0.3" height="22.2"/>
	<polygon fill="#808080" points="17,39.3 15.5,38.1 15.5,14.7 17,15.9 	"/>
	<polygon fill="#B3B3B3" points="15.9,37.6 15.7,37.5 15.7,15.3 15.9,15.4 	"/>
	<polygon fill="#B3B3B3" points="16,37.7 15.9,37.7 15.9,15.5 16,15.6 	"/>
	<polygon fill="#B3B3B3" points="16.3,37.9 16.1,37.8 16.1,15.7 16.3,15.8 	"/>
	<polygon fill="#B3B3B3" points="16.9,38.4 16.8,38.4 16.8,16.2 16.9,16.3 	"/>
	<polygon fill="#B3B3B3" points="16.7,38.2 16.6,38.2 16.6,16 16.7,16.1 	"/>
	<polygon fill="#B3B3B3" points="16.5,38.1 16.4,38 16.4,15.9 16.5,15.9 	"/>
</g>
<g>
	<rect x="16.1" y="12.7" fill="#999999" width="4.4" height="23.4"/>
	<rect x="16.5" y="13.4" fill="#CCCCCC" width="0.3" height="22.2"/>
	<rect x="17.1" y="13.4" fill="#CCCCCC" width="0.3" height="22.2"/>
	<rect x="17.6" y="13.4" fill="#CCCCCC" width="0.3" height="22.2"/>
	<rect x="18.2" y="13.4" fill="#CCCCCC" width="0.3" height="22.2"/>
	<rect x="18.7" y="13.4" fill="#CCCCCC" width="0.3" height="22.2"/>
	<rect x="19.3" y="13.4" fill="#CCCCCC" width="0.3" height="22.2"/>
	<rect x="19.9" y="13.4" fill="#CCCCCC" width="0.3" height="22.2"/>
	<polygon fill="#808080" points="22,37.3 20.5,36.1 20.5,12.7 22,13.9 	"/>
	<polygon fill="#B3B3B3" points="20.9,35.6 20.7,35.5 20.7,13.3 20.9,13.4 	"/>
	<polygon fill="#B3B3B3" points="21,35.7 20.9,35.7 20.9,13.5 21,13.6 	"/>
	<polygon fill="#B3B3B3" points="21.3,35.9 21.1,35.8 21.1,13.7 21.3,13.8 	"/>
	<polygon fill="#B3B3B3" points="21.9,36.4 21.8,36.4 21.8,14.2 21.9,14.3 	"/>
	<polygon fill="#B3B3B3" points="21.7,36.2 21.6,36.2 21.6,14 21.7,14.1 	"/>
	<polygon fill="#B3B3B3" points="21.5,36.1 21.4,36 21.4,13.9 21.5,13.9 	"/>
</g>
<g>
	<g>
		<rect x="21.4" y="15.7" fill="#FCCD47" width="4.3" height="15.7"/>
		<polygon fill="#DBAD3B" points="27.1,32.2 25.6,31.4 25.6,15.7 27.1,16.5 		"/>
		<g>
			<rect x="21.8" y="16.1" fill="#7ACFB2" width="1.1" height="1.1"/>
			<rect x="23" y="16.1" fill="#7ACFB2" width="1.1" height="1.1"/>
			<rect x="24.3" y="16.1" fill="#7ACFB2" width="1.1" height="1.1"/>
		</g>
		<g>
			<rect x="21.8" y="17.4" fill="#7ACFB2" width="1.1" height="1.1"/>
			<rect x="23" y="17.4" fill="#7ACFB2" width="1.1" height="1.1"/>
			<rect x="24.3" y="17.4" fill="#7ACFB2" width="1.1" height="1.1"/>
		</g>
		<g>
			<rect x="21.8" y="18.8" fill="#7ACFB2" width="1.1" height="1.1"/>
			<rect x="23" y="18.8" fill="#7ACFB2" width="1.1" height="1.1"/>
			<rect x="24.3" y="18.8" fill="#7ACFB2" width="1.1" height="1.1"/>
		</g>
		<g>
			<rect x="21.8" y="20.2" fill="#7ACFB2" width="1.1" height="1.1"/>
			<rect x="23" y="20.2" fill="#7ACFB2" width="1.1" height="1.1"/>
			<rect x="24.3" y="20.2" fill="#7ACFB2" width="1.1" height="1.1"/>
		</g>
		<g>
			<rect x="21.8" y="21.5" fill="#7ACFB2" width="1.1" height="1.1"/>
			<rect x="23" y="21.5" fill="#7ACFB2" width="1.1" height="1.1"/>
			<rect x="24.3" y="21.5" fill="#7ACFB2" width="1.1" height="1.1"/>
		</g>
		<g>
			<rect x="21.8" y="22.9" fill="#7ACFB2" width="1.1" height="1.1"/>
			<rect x="23" y="22.9" fill="#7ACFB2" width="1.1" height="1.1"/>
			<rect x="24.3" y="22.9" fill="#7ACFB2" width="1.1" height="1.1"/>
		</g>
		<g>
			<rect x="21.8" y="24.3" fill="#7ACFB2" width="1.1" height="1.1"/>
			<rect x="23" y="24.3" fill="#7ACFB2" width="1.1" height="1.1"/>
			<rect x="24.3" y="24.3" fill="#7ACFB2" width="1.1" height="1.1"/>
		</g>
		<g>
			<rect x="21.8" y="25.7" fill="#7ACFB2" width="1.1" height="1.1"/>
			<rect x="23" y="25.7" fill="#7ACFB2" width="1.1" height="1.1"/>
			<rect x="24.3" y="25.7" fill="#7ACFB2" width="1.1" height="1.1"/>
		</g>
		<g>
			<rect x="21.8" y="27" fill="#7ACFB2" width="1.1" height="1.1"/>
			<rect x="23" y="27" fill="#7ACFB2" width="1.1" height="1.1"/>
			<rect x="24.3" y="27" fill="#7ACFB2" width="1.1" height="1.1"/>
		</g>
		<g>
			<rect x="21.8" y="28.4" fill="#7ACFB2" width="1.1" height="1.1"/>
			<rect x="23" y="28.4" fill="#7ACFB2" width="1.1" height="1.1"/>
			<rect x="24.3" y="28.4" fill="#7ACFB2" width="1.1" height="1.1"/>
		</g>
		<g>
			<rect x="21.8" y="29.8" fill="#7ACFB2" width="1.1" height="1.1"/>
			<rect x="23" y="29.8" fill="#7ACFB2" width="1.1" height="1.1"/>
			<rect x="24.3" y="29.8" fill="#7ACFB2" width="1.1" height="1.1"/>
		</g>
	</g>
	<g>
		<polygon fill="#6ABA9E" points="26.3,17.4 25.8,17.1 25.8,16.1 26.3,16.3 		"/>
		<polygon fill="#6ABA9E" points="27,17.7 26.5,17.5 26.5,16.4 27,16.7 		"/>
	</g>
	<g>
		<polygon fill="#6ABA9E" points="26.3,18.8 25.8,18.5 25.8,17.4 26.3,17.7 		"/>
		<polygon fill="#6ABA9E" points="27,19.1 26.5,18.8 26.5,17.8 27,18 		"/>
	</g>
	<g>
		<polygon fill="#6ABA9E" points="26.3,20.1 25.8,19.9 25.8,18.8 26.3,19.1 		"/>
		<polygon fill="#6ABA9E" points="27,20.5 26.5,20.2 26.5,19.2 27,19.4 		"/>
	</g>
	<g>
		<polygon fill="#6ABA9E" points="26.3,21.5 25.8,21.2 25.8,20.2 26.3,20.5 		"/>
		<polygon fill="#6ABA9E" points="27,21.9 26.5,21.6 26.5,20.5 27,20.8 		"/>
	</g>
	<g>
		<polygon fill="#6ABA9E" points="26.3,22.9 25.8,22.6 25.8,21.6 26.3,21.8 		"/>
		<polygon fill="#6ABA9E" points="27,23.2 26.5,23 26.5,21.9 27,22.2 		"/>
	</g>
	<g>
		<polygon fill="#6ABA9E" points="26.3,24.3 25.8,24 25.8,22.9 26.3,23.2 		"/>
		<polygon fill="#6ABA9E" points="27,24.6 26.5,24.3 26.5,23.3 27,23.5 		"/>
	</g>
	<g>
		<polygon fill="#6ABA9E" points="26.3,25.6 25.8,25.4 25.8,24.3 26.3,24.6 		"/>
		<polygon fill="#6ABA9E" points="27,26 26.5,25.7 26.5,24.7 27,24.9 		"/>
	</g>
	<g>
		<polygon fill="#6ABA9E" points="26.3,27 25.8,26.7 25.8,25.7 26.3,25.9 		"/>
		<polygon fill="#6ABA9E" points="27,27.4 26.5,27.1 26.5,26 27,26.3 		"/>
	</g>
	<g>
		<polygon fill="#6ABA9E" points="26.3,28.4 25.8,28.1 25.8,27.1 26.3,27.3 		"/>
		<polygon fill="#6ABA9E" points="27,28.7 26.5,28.5 26.5,27.4 27,27.7 		"/>
	</g>
	<g>
		<polygon fill="#6ABA9E" points="26.3,29.8 25.8,29.5 25.8,28.4 26.3,28.7 		"/>
		<polygon fill="#6ABA9E" points="27,30.1 26.5,29.8 26.5,28.8 27,29 		"/>
	</g>
	<g>
		<polygon fill="#6ABA9E" points="26.3,31.1 25.8,30.9 25.8,29.8 26.3,30.1 		"/>
		<polygon fill="#6ABA9E" points="27,31.5 26.5,31.2 26.5,30.1 27,30.4 		"/>
	</g>
</g>
<g>
	<rect x="88.9" y="9.5" fill="#999999" width="6.8" height="59.3"/>
	<rect x="89.5" y="11.1" fill="#CCCCCC" width="0.4" height="56.1"/>
	<rect x="90.3" y="11.1" fill="#CCCCCC" width="0.4" height="56.1"/>
	<rect x="91.2" y="11.1" fill="#CCCCCC" width="0.4" height="56.1"/>
	<rect x="92.1" y="11.1" fill="#CCCCCC" width="0.4" height="56.1"/>
	<rect x="93" y="11.1" fill="#CCCCCC" width="0.4" height="56.1"/>
	<rect x="93.9" y="11.1" fill="#CCCCCC" width="0.4" height="56.1"/>
	<rect x="94.8" y="11.1" fill="#CCCCCC" width="0.4" height="56.1"/>
	<polygon fill="#808080" points="98,71.9 95.7,68.8 95.7,9.5 98,12.6 	"/>
	<polygon fill="#B3B3B3" points="96.2,67.4 96,67.2 96,11.1 96.2,11.3 	"/>
	<polygon fill="#B3B3B3" points="96.5,67.8 96.4,67.6 96.4,11.5 96.5,11.7 	"/>
	<polygon fill="#B3B3B3" points="96.9,68.3 96.7,68.1 96.7,12 96.9,12.2 	"/>
	<polygon fill="#B3B3B3" points="97.9,69.6 97.7,69.4 97.7,13.3 97.9,13.5 	"/>
	<polygon fill="#B3B3B3" points="97.5,69.1 97.4,68.9 97.4,12.8 97.5,13 	"/>
	<polygon fill="#B3B3B3" points="97.2,68.7 97,68.5 97,12.4 97.2,12.6 	"/>
</g>
<g>
	<rect x="7.3" y="25" fill="#999999" width="6.9" height="25.1"/>
	<rect x="7.9" y="25.7" fill="#CCCCCC" width="0.4" height="23.8"/>
	<rect x="8.7" y="25.7" fill="#CCCCCC" width="0.4" height="23.8"/>
	<rect x="9.6" y="25.7" fill="#CCCCCC" width="0.4" height="23.8"/>
	<rect x="10.5" y="25.7" fill="#CCCCCC" width="0.4" height="23.8"/>
	<rect x="11.4" y="25.7" fill="#CCCCCC" width="0.4" height="23.8"/>
	<rect x="12.3" y="25.7" fill="#CCCCCC" width="0.4" height="23.8"/>
	<rect x="13.2" y="25.7" fill="#CCCCCC" width="0.5" height="23.8"/>
	<polygon fill="#808080" points="16.4,51.5 14.1,50.1 14.1,25 16.4,26.3 	"/>
	<polygon fill="#B3B3B3" points="14.6,49.5 14.4,49.5 14.4,25.7 14.6,25.8 	"/>
	<polygon fill="#B3B3B3" points="15,49.7 14.8,49.6 14.8,25.8 15,25.9 	"/>
	<polygon fill="#B3B3B3" points="15.3,49.9 15.1,49.8 15.1,26.1 15.3,26.1 	"/>
	<polygon fill="#B3B3B3" points="16.3,50.5 16.1,50.4 16.1,26.6 16.3,26.7 	"/>
	<polygon fill="#B3B3B3" points="16,50.3 15.8,50.2 15.8,26.4 16,26.5 	"/>
	<polygon fill="#B3B3B3" points="15.6,50.1 15.5,50 15.5,26.2 15.6,26.3 	"/>
</g>
<g>
	<rect x="81.7" y="23.5" fill="#999999" width="8.3" height="30.5"/>
	<rect x="82.5" y="24.3" fill="#CCCCCC" width="0.5" height="28.8"/>
	<rect x="83.5" y="24.3" fill="#CCCCCC" width="0.5" height="28.8"/>
	<rect x="84.6" y="24.3" fill="#CCCCCC" width="0.5" height="28.8"/>
	<rect x="85.7" y="24.3" fill="#CCCCCC" width="0.5" height="28.8"/>
	<rect x="86.8" y="24.3" fill="#CCCCCC" width="0.5" height="28.8"/>
	<rect x="87.8" y="24.3" fill="#CCCCCC" width="0.5" height="28.8"/>
	<rect x="88.9" y="24.3" fill="#CCCCCC" width="0.5" height="28.8"/>
	<polygon fill="#808080" points="92.9,55.5 90.1,53.9 90.1,23.5 92.9,25.1 	"/>
	<polygon fill="#B3B3B3" points="90.7,53.2 90.5,53.1 90.5,24.3 90.7,24.4 	"/>
	<polygon fill="#B3B3B3" points="91.1,53.4 90.9,53.3 90.9,24.5 91.1,24.6 	"/>
	<polygon fill="#B3B3B3" points="91.5,53.7 91.3,53.6 91.3,24.8 91.5,24.9 	"/>
	<polygon fill="#B3B3B3" points="92.7,54.4 92.5,54.3 92.5,25.4 92.7,25.5 	"/>
	<polygon fill="#B3B3B3" points="92.3,54.1 92.1,54 92.1,25.2 92.3,25.3 	"/>
	<polygon fill="#B3B3B3" points="91.9,53.9 91.7,53.8 91.7,25 91.9,25.1 	"/>
</g>
<g>
	<g>
		<path fill="#A1A1A1" d="M50.3,20.9c7.9,0,15.2,3.1,20.8,8.6c5.6,5.6,8.6,12.9,8.6,20.8S76.6,65.5,71,71.1s-12.9,8.6-20.8,8.6
			S35,76.6,29.5,71.1c-5.6-5.6-8.6-12.9-8.6-20.8s3.1-15.2,8.6-20.8S42.4,20.9,50.3,20.9 M50.3,13.7c-20.2,0-36.6,16.4-36.6,36.6
			S30,86.9,50.3,86.9s36.6-16.4,36.6-36.6S70.5,13.7,50.3,13.7L50.3,13.7z"/>
	</g>
	<g>
		<path fill="#ACACAC" d="M49.7,20.3c7.9,0,15.2,3.1,20.8,8.6C76,34.5,79,41.8,79,49.7s-3,15.2-8.6,20.8s-12.9,8.6-20.8,8.6
			S34.4,76,28.9,70.5c-5.6-5.6-8.6-12.9-8.6-20.8s3.1-15.2,8.6-20.8C34.4,23.4,41.8,20.3,49.7,20.3 M49.7,13.1
			C29.4,13.1,13,29.5,13,49.7s16.4,36.6,36.6,36.6s36.6-16.4,36.6-36.6S69.9,13.1,49.7,13.1L49.7,13.1z"/>
	</g>
	<g>
		<g>
			
				<ellipse fill="none" stroke="#FBCC54" stroke-width="0.25" stroke-miterlimit="10" stroke-dasharray="3,4" cx="49.6" cy="49.6" rx="33.1" ry="33.1"/>
		</g>
	</g>
</g>
</svg>
