<?xml version="1.0" encoding="utf-8"?>
<!-- Generator: Adobe Illustrator 17.1.0, SVG Export Plug-In . SVG Version: 6.00 Build 0)  -->
<!DOCTYPE svg PUBLIC "-//W3C//DTD SVG 1.1//EN" "http://www.w3.org/Graphics/SVG/1.1/DTD/svg11.dtd">
<svg version="1.1" id="Layer_1" xmlns="http://www.w3.org/2000/svg" xmlns:xlink="http://www.w3.org/1999/xlink" x="0px" y="0px"
	 viewBox="0 0 141 283" enable-background="new 0 0 141 283" xml:space="preserve">
<g>
	<circle fill="#35140F" cx="73" cy="73" r="68"/>
	<circle fill="#4A1C14" cx="68" cy="68" r="68"/>
	<g>
		<circle fill="#993A37" cx="70" cy="71" r="55.3"/>
		<circle fill="#B2463F" cx="67.2" cy="66.8" r="55.3"/>
		<g>
			<path fill="#F1F5CF" d="M41.2,83.5L57.5,68L42.1,51.7L53,41.4l15.5,16.4l16.4-15.4l10.3,10.9L78.7,68.6L94.2,85L83.3,95.3
				L67.8,78.9L51.5,94.4L41.2,83.5z"/>
		</g>
	</g>
</g>
<g>
	<circle fill="#35140F" cx="73" cy="215" r="68"/>
	<circle fill="#4A1C14" cx="68" cy="210" r="68"/>
	<g>
		<circle fill="#993A37" cx="70" cy="213" r="55.3"/>
		<circle fill="#B2463F" cx="68.2" cy="210.8" r="55.3"/>
		<g>
			<path fill="#F1F5CF" d="M42.2,227.5L58.5,212l-15.5-16.4L54,185.4l15.5,16.4l16.4-15.4l10.3,10.9l-16.4,15.4L95.2,229l-10.9,10.3
				l-15.5-16.4l-16.4,15.5L42.2,227.5z"/>
		</g>
	</g>
</g>
<g>
</g>
<g>
</g>
<g>
</g>
<g>
</g>
<g>
</g>
<g>
</g>
<g>
</g>
<g>
</g>
<g>
</g>
<g>
</g>
<g>
</g>
<g>
</g>
<g>
</g>
<g>
</g>
<g>
</g>
</svg>
