<?xml version="1.0" encoding="utf-8"?>
<!-- Generator: Adobe Illustrator 17.1.0, SVG Export Plug-In . SVG Version: 6.00 Build 0)  -->
<!DOCTYPE svg PUBLIC "-//W3C//DTD SVG 1.1//EN" "http://www.w3.org/Graphics/SVG/1.1/DTD/svg11.dtd">
<svg version="1.1" id="Layer_1" xmlns="http://www.w3.org/2000/svg" xmlns:xlink="http://www.w3.org/1999/xlink" x="0px" y="0px"
	 viewBox="-62.8 80.6 100.1 52.2" enable-background="new -62.8 80.6 100.1 52.2" xml:space="preserve">
<g>
	<path fill="#8C3533" d="M-56.1,107.5l81.2-0.2v2.6l-81.2,0.2V107.5z"/>
	<path fill="#B2463F" d="M-56.1,106.7l81.2-0.2v2.6l-81.2,0.2V106.7z"/>
	<path fill="#8C3533" d="M-61.2,112.3c-2.1-2.1-2.1-5.4,0-7.4s5.4-2.1,7.4,0c2.1,2.1,2.1,5.4,0,7.4
		C-55.8,114.4-59.1,114.4-61.2,112.3z"/>
	<path fill="#B2463F" d="M-61,111.6c-2.1-2.1-2.1-5.4,0-7.4c2.1-2.1,5.4-2.1,7.4,0c2.1,2.1,2.1,5.4,0,7.4S-59,113.7-61,111.6z"/>
	<path fill="#8C3533" d="M25.5,113.3c-2.7-2.7-2.7-7,0-9.6s7-2.7,9.6,0s2.7,7,0,9.6C32.4,116,28.1,116,25.5,113.3z"/>
	<path fill="#B2463F" d="M25.7,112.3c-2.7-2.7-2.7-7,0-9.6c2.7-2.7,7-2.7,9.6,0c2.7,2.7,2.7,7,0,9.6C32.6,115,28.3,115,25.7,112.3z"
		/>
</g>
<g>
	<polygon fill="#F1F5CF" points="-57.3,103.9 -57.3,103.9 -56,105.2 -56,105.2 -56,105.2 -57,105.2 -57,110.6 -56,110.6 
		-57.4,111.9 -58.7,110.6 -57.7,110.6 -57.7,105.2 -58.7,105.2 -58.7,105.2 -57.4,103.9 -57.4,103.9 	"/>
</g>
<circle fill="#B2463F" cx="-12.7" cy="106.7" r="26.1"/>
<g>
	<g>
		<path fill="#F1F5CF" d="M-36.6,98.5c0.7,0.2,1.3,0.4,2,0.5c0,0.1-0.1,0.2-0.1,0.3c-0.3-0.1-0.6-0.1-0.9-0.2v0.1
			c0.2,0.2,0.5,0.4,0.7,0.7c0,0.1,0,0.2-0.1,0.3c-0.3-0.2-0.6-0.5-0.9-0.8c-0.4,0.1-0.8,0.2-1.1,0.3c0-0.1,0-0.2,0.1-0.3
			c0.3-0.1,0.6-0.2,1-0.2v-0.1c-0.3-0.1-0.6-0.1-0.9-0.2C-36.7,98.7-36.6,98.6-36.6,98.5z"/>
		<path fill="#F1F5CF" d="M-37,100.1c0.1,0,0.2,0,0.3,0.1c0,0.1,0,0.2-0.1,0.3c0.5,0.1,1,0.2,1.4,0.3c0-0.1,0-0.2,0.1-0.3
			c0.1,0,0.2,0,0.3,0.1c-0.1,0.3-0.1,0.6-0.2,0.9c-0.1,0-0.2,0-0.3-0.1c0-0.1,0-0.2,0.1-0.3c-0.5-0.1-1-0.2-1.4-0.3
			c0,0.1,0,0.2-0.1,0.3c-0.1,0-0.2,0-0.3-0.1C-37.1,100.7-37.1,100.4-37,100.1z"/>
		<path fill="#F1F5CF" d="M-37.2,101.3c0.7,0.1,1.3,0.2,2,0.4c-0.1,0.4-0.1,0.8-0.2,1.2c-0.1,0-0.2,0-0.3,0c0-0.3,0.1-0.6,0.1-0.9
			c-0.2,0-0.4-0.1-0.6-0.1c0,0.2-0.1,0.4-0.1,0.6c-0.1,0-0.2,0-0.3,0c0-0.2,0.1-0.4,0.1-0.6c-0.2,0-0.4-0.1-0.6-0.1
			c-0.1,0.3-0.1,0.6-0.1,0.9c-0.1,0-0.2,0-0.3,0C-37.4,102.2-37.3,101.8-37.2,101.3z"/>
		<path fill="#F1F5CF" d="M-37.5,103.2c0-0.1,0-0.2,0.1-0.2c0.1-0.1,0.1-0.1,0.2-0.1s0.2,0,0.3,0c0,0.1,0,0.2,0,0.3
			c-0.1,0-0.2,0-0.3,0c0,0.2,0,0.4-0.1,0.6c0.2,0,0.4,0,0.6,0.1c0-0.2,0-0.4,0.1-0.6c0-0.1,0-0.2,0.1-0.2c0.1-0.1,0.1-0.1,0.2-0.1
			c0.2,0,0.4,0,0.6,0.1c0.1,0,0.1,0,0.2,0.1s0.1,0.1,0.1,0.2c0,0.2,0,0.4-0.1,0.6c0,0.1,0,0.1-0.1,0.2s-0.1,0.1-0.2,0.1
			s-0.2,0-0.3,0c0-0.1,0-0.2,0-0.3c0.1,0,0.2,0,0.3,0c0-0.2,0-0.4,0.1-0.6c-0.2,0-0.4,0-0.6-0.1c0,0.2,0,0.4-0.1,0.6
			c0,0.1,0,0.2-0.1,0.2c-0.1,0.1-0.1,0.1-0.2,0.1c-0.2,0-0.4,0-0.6-0.1c-0.1,0-0.1,0-0.2-0.1s-0.1-0.1-0.1-0.2
			C-37.6,103.6-37.6,103.4-37.5,103.2z"/>
		<path fill="#F1F5CF" d="M-37.7,105.3c0.7,0,1.4,0.1,2,0.1c0,0.4,0,0.8,0,1.2c-0.1,0-0.2,0-0.3,0c0-0.3,0-0.6,0-0.9
			c-0.2,0-0.4,0-0.6,0c0,0.2,0,0.4,0,0.6c-0.1,0-0.2,0-0.3,0c0-0.2,0-0.4,0-0.6c-0.2,0-0.4,0-0.6,0c0,0.3,0,0.6,0,0.9
			c-0.1,0-0.2,0-0.3,0C-37.7,106.1-37.7,105.7-37.7,105.3z"/>
		<path fill="#F1F5CF" d="M-37.7,106.8c0.7,0,1.4,0,2.1,0c0,0.4,0,0.8,0,1.2c-0.1,0-0.2,0-0.3,0c0-0.3,0-0.6,0-0.9
			c-0.2,0-0.4,0-0.6,0c0,0.2,0,0.4,0,0.6c-0.1,0-0.2,0-0.3,0c0-0.2,0-0.4,0-0.6c-0.2,0-0.4,0-0.6,0c0,0.3,0,0.6,0,0.9
			c-0.1,0-0.2,0-0.3,0C-37.7,107.7-37.7,107.3-37.7,106.8z"/>
		<path fill="#F1F5CF" d="M-37.7,108.4c0.7,0,1.4-0.1,2-0.1c0,0.1,0,0.2,0,0.3c-0.5,0.3-0.9,0.6-1.4,0.9c0.5,0,1-0.1,1.5-0.1
			c0,0.1,0,0.2,0,0.3c-0.7,0.1-1.4,0.1-2,0.2c0-0.1,0-0.2,0-0.3c0.5-0.3,0.9-0.6,1.4-0.9c-0.5,0-1,0.1-1.5,0.1
			C-37.7,108.6-37.7,108.5-37.7,108.4z"/>
		<path fill="#F1F5CF" d="M-37.5,110.9c0.7-0.1,1.4-0.2,2-0.3c0,0.3,0.1,0.6,0.1,0.9c0,0.1,0,0.2-0.1,0.2c0,0.1-0.1,0.1-0.2,0.1
			c-0.5,0.1-1,0.2-1.4,0.2c-0.1,0-0.2,0-0.2-0.1c-0.1-0.1-0.1-0.1-0.1-0.2S-37.4,111.3-37.5,110.9z M-37.1,111.8
			c0.5-0.1,1-0.2,1.4-0.2c0-0.2-0.1-0.4-0.1-0.6c-0.5,0.1-1,0.1-1.5,0.2C-37.1,111.4-37.1,111.6-37.1,111.8z"/>
		<path fill="#F1F5CF" d="M-37.2,112.5c0.6-0.1,1.2-0.2,1.7-0.3c0.1,0,0.2,0,0.2,0c0.1,0,0.1,0.1,0.1,0.2c0,0.2,0.1,0.4,0.1,0.6
			c0,0.1,0,0.2,0,0.2c0,0.1-0.1,0.1-0.2,0.1c-0.6,0.1-1.1,0.3-1.7,0.4c0-0.1,0-0.2-0.1-0.3c0.3-0.1,0.6-0.1,0.9-0.2
			c0-0.2-0.1-0.4-0.1-0.6c-0.3,0.1-0.6,0.1-0.9,0.2C-37.2,112.7-37.2,112.6-37.2,112.5z M-35.9,113.2c0.2,0,0.4-0.1,0.6-0.1
			c0-0.2-0.1-0.4-0.1-0.6c-0.2,0-0.4,0.1-0.6,0.1C-36,112.8-36,113-35.9,113.2z"/>
		<path fill="#F1F5CF" d="M-36.9,114.4c0-0.1,0-0.2,0-0.2c0-0.1,0.1-0.1,0.2-0.1c0.5-0.1,1-0.2,1.4-0.3c0.1,0,0.2,0,0.2,0
			c0.1,0,0.1,0.1,0.1,0.2c0,0.2,0.1,0.4,0.1,0.6c0,0.1,0,0.2,0,0.2c0,0.1-0.1,0.1-0.2,0.1c-0.1,0-0.2,0.1-0.3,0.1
			c0-0.1-0.1-0.2-0.1-0.3c0.1,0,0.2,0,0.3-0.1c-0.1-0.2-0.1-0.4-0.1-0.6c-0.5,0.1-0.9,0.2-1.4,0.3c0,0.2,0.1,0.4,0.2,0.6
			c0.2,0,0.4-0.1,0.6-0.1c0-0.1-0.1-0.2-0.1-0.3c0.1,0,0.2,0,0.3-0.1c0,0.1,0.1,0.3,0.1,0.4v0.1c0,0,0,0.1-0.1,0.1
			c-0.2,0.1-0.5,0.1-0.7,0.2c-0.1,0-0.2,0-0.2,0c-0.1,0-0.1-0.1-0.1-0.2C-36.8,114.8-36.8,114.6-36.9,114.4z"/>
	</g>
</g>
</svg>
