<?xml version="1.0" encoding="utf-8"?>
<!-- Generator: Adobe Illustrator 17.1.0, SVG Export Plug-In . SVG Version: 6.00 Build 0)  -->
<!DOCTYPE svg PUBLIC "-//W3C//DTD SVG 1.1//EN" "http://www.w3.org/Graphics/SVG/1.1/DTD/svg11.dtd">
<svg version="1.1" id="Layer_1" xmlns="http://www.w3.org/2000/svg" xmlns:xlink="http://www.w3.org/1999/xlink" x="0px" y="0px"
	 viewBox="-62.8 80.6 100.1 52.2" enable-background="new -62.8 80.6 100.1 52.2" xml:space="preserve">
<g>
	<path fill="#8C3533" d="M-56.1,107.5l81.2-0.2v2.6l-81.2,0.2V107.5z"/>
	<path fill="#B2463F" d="M-56.1,106.7l81.2-0.2v2.6l-81.2,0.2V106.7z"/>
	<path fill="#8C3533" d="M-61.2,112.3c-2.1-2.1-2.1-5.4,0-7.4s5.4-2.1,7.4,0c2.1,2.1,2.1,5.4,0,7.4
		C-55.8,114.4-59.1,114.4-61.2,112.3z"/>
	<path fill="#B2463F" d="M-61,111.6c-2.1-2.1-2.1-5.4,0-7.4c2.1-2.1,5.4-2.1,7.4,0c2.1,2.1,2.1,5.4,0,7.4S-59,113.7-61,111.6z"/>
	<path fill="#8C3533" d="M25.5,113.3c-2.7-2.7-2.7-7,0-9.6s7-2.7,9.6,0s2.7,7,0,9.6C32.4,116,28.1,116,25.5,113.3z"/>
	<path fill="#B2463F" d="M25.7,112.3c-2.7-2.7-2.7-7,0-9.6c2.7-2.7,7-2.7,9.6,0c2.7,2.7,2.7,7,0,9.6C32.6,115,28.3,115,25.7,112.3z"
		/>
</g>
<g>
	<polygon fill="#F1F5CF" points="-57.3,103.9 -57.3,103.9 -56,105.2 -56,105.2 -56,105.2 -57,105.2 -57,110.6 -56,110.6 
		-57.4,111.9 -58.7,110.6 -57.7,110.6 -57.7,105.2 -58.7,105.2 -58.7,105.2 -57.4,103.9 -57.4,103.9 	"/>
</g>
<circle fill="#B2463F" cx="-12.7" cy="106.7" r="26.1"/>
<g>
	<g>
		<path fill="#F1F5CF" d="M-36.3,97.2c0.9,0.3,1.3,0.5,2.1,0.8c0,0.1-0.1,0.2-0.1,0.3c-0.4-0.1-0.6-0.2-0.9-0.3c0,0.1,0,0.1-0.1,0.2
			c0.3,0.3,0.5,0.5,0.8,0.8c0,0.1-0.1,0.2-0.1,0.3c-0.4-0.4-0.5-0.5-0.9-0.9c-0.5,0.1-0.8,0.1-1.3,0.3c0-0.1,0.1-0.2,0.1-0.3
			c0.4-0.1,0.7-0.1,1.1-0.2c0-0.1,0-0.1,0.1-0.2c-0.4-0.1-0.6-0.2-0.9-0.3C-36.3,97.5-36.3,97.4-36.3,97.2z"/>
		<path fill="#F1F5CF" d="M-36.8,99c0.1,0,0.2,0.1,0.3,0.1c0,0.1-0.1,0.2-0.1,0.3c0.6,0.2,0.9,0.3,1.6,0.4c0-0.1,0.1-0.2,0.1-0.3
			c0.1,0,0.2,0.1,0.3,0.1c-0.1,0.4-0.2,0.6-0.3,1c-0.1,0-0.2,0-0.3-0.1c0-0.1,0-0.2,0.1-0.3c-0.6-0.2-0.9-0.2-1.6-0.4
			c0,0.1-0.1,0.2-0.1,0.3c-0.1,0-0.2,0-0.3-0.1C-37,99.6-36.9,99.4-36.8,99z"/>
		<path fill="#F1F5CF" d="M-37.2,100.4c0.9,0.2,1.3,0.3,2.2,0.5c-0.1,0.5-0.2,0.8-0.3,1.3c-0.1,0-0.2,0-0.3-0.1
			c0.1-0.4,0.1-0.6,0.2-1c-0.3-0.1-0.4-0.1-0.6-0.1c-0.1,0.3-0.1,0.4-0.1,0.7c-0.1,0-0.2,0-0.3-0.1c0.1-0.3,0.1-0.4,0.1-0.7
			c-0.3-0.1-0.4-0.1-0.6-0.1c-0.1,0.4-0.1,0.6-0.2,1c-0.1,0-0.2,0-0.3-0.1C-37.4,101.2-37.3,100.9-37.2,100.4z"/>
		<path fill="#F1F5CF" d="M-37.6,102.5c0-0.1,0.1-0.2,0.1-0.2c0.1-0.1,0.2-0.1,0.2-0.1c0.1,0,0.2,0,0.3,0.1c0,0.1,0,0.2-0.1,0.3
			c-0.1,0-0.2,0-0.3,0c0,0.3-0.1,0.4-0.1,0.7c0.3,0,0.4,0,0.6,0.1c0-0.3,0.1-0.4,0.1-0.7c0-0.1,0.1-0.2,0.1-0.2
			c0.1-0.1,0.2-0.1,0.2-0.1c0.3,0,0.4,0.1,0.6,0.1c0.1,0,0.2,0.1,0.2,0.1c0.1,0.1,0.1,0.2,0.1,0.2c0,0.3-0.1,0.4-0.1,0.7
			c0,0.1-0.1,0.2-0.1,0.2c-0.1,0.1-0.1,0.1-0.2,0.1c-0.1,0-0.2,0-0.3,0c0-0.1,0-0.2,0-0.3c0.1,0,0.2,0,0.3,0c0-0.3,0.1-0.4,0.1-0.7
			c-0.3,0-0.4-0.1-0.6-0.1c0,0.3-0.1,0.4-0.1,0.7c0,0.1-0.1,0.2-0.1,0.2c-0.1,0.1-0.1,0.1-0.2,0.1c-0.3,0-0.4,0-0.6-0.1
			c-0.1,0-0.2-0.1-0.2-0.1c-0.1-0.1-0.1-0.2-0.1-0.3C-37.7,102.9-37.6,102.8-37.6,102.5z"/>
		<path fill="#F1F5CF" d="M-37.8,104.8c0.9,0.1,1.4,0.1,2.3,0.2c0,0.5,0,0.8-0.1,1.3c-0.1,0-0.2,0-0.3,0c0-0.4,0-0.6,0-1
			c-0.3,0-0.4,0-0.6,0c0,0.3,0,0.4,0,0.7c-0.1,0-0.2,0-0.3,0c0-0.3,0-0.4,0-0.7c-0.3,0-0.4,0-0.6,0c0,0.4,0,0.6,0,1.1
			c-0.1,0-0.2,0-0.3,0C-37.9,105.6-37.9,105.4-37.8,104.8z"/>
		<path fill="#F1F5CF" d="M-37.9,106.6c0.9,0,1.4,0,2.3,0c0,0.5,0,0.8,0,1.3c-0.1,0-0.2,0-0.3,0c0-0.4,0-0.6,0-1c-0.3,0-0.4,0-0.6,0
			c0,0.3,0,0.4,0,0.7c-0.1,0-0.2,0-0.3,0c0-0.3,0-0.4,0-0.7c-0.3,0-0.4,0-0.6,0c0,0.4,0,0.6,0,1.1c-0.1,0-0.2,0-0.3,0
			C-37.9,107.4-37.9,107.1-37.9,106.6z"/>
		<path fill="#F1F5CF" d="M-37.9,108.4c0.9-0.1,1.4-0.1,2.3-0.1c0,0.1,0,0.2,0,0.3c-0.6,0.4-0.9,0.6-1.5,1c0.6-0.1,1-0.1,1.6-0.2
			c0,0.1,0,0.2,0,0.3c-0.9,0.1-1.3,0.2-2.2,0.3c0-0.1,0-0.2,0-0.4c0.6-0.4,0.9-0.6,1.5-1c-0.6,0-1,0.1-1.6,0.1
			C-37.8,108.6-37.9,108.5-37.9,108.4z"/>
		<path fill="#F1F5CF" d="M-37.5,111.2c0.9-0.1,1.3-0.2,2.2-0.4c0.1,0.4,0.1,0.6,0.2,1c0,0.1,0,0.2,0,0.2c0,0.1-0.1,0.1-0.2,0.1
			c-0.6,0.1-0.9,0.2-1.6,0.3c-0.1,0-0.2,0-0.2-0.1c-0.1-0.1-0.1-0.1-0.1-0.2C-37.4,111.8-37.5,111.6-37.5,111.2z M-37,112.2
			c0.6-0.1,1-0.2,1.6-0.3c-0.1-0.3-0.1-0.4-0.1-0.7c-0.6,0.1-1,0.2-1.6,0.3C-37.1,111.8-37.1,111.9-37,112.2z"/>
		<path fill="#F1F5CF" d="M-37.2,113c0.8-0.2,1.1-0.3,1.9-0.4c0.1,0,0.2,0,0.2,0c0.1,0,0.1,0.1,0.1,0.2c0.1,0.3,0.1,0.4,0.2,0.6
			c0,0.1,0,0.2,0,0.2c0,0.1-0.1,0.1-0.2,0.2c-0.7,0.2-1.1,0.3-1.9,0.5c0-0.1-0.1-0.2-0.1-0.3c0.4-0.1,0.6-0.2,0.9-0.3
			c-0.1-0.3-0.1-0.4-0.2-0.7c-0.4,0.1-0.6,0.1-0.9,0.2C-37.1,113.2-37.2,113.1-37.2,113z M-35.7,113.7c0.2-0.1,0.4-0.1,0.6-0.2
			c-0.1-0.3-0.1-0.4-0.2-0.6c-0.3,0.1-0.4,0.1-0.6,0.2C-35.8,113.3-35.7,113.4-35.7,113.7z"/>
		<path fill="#F1F5CF" d="M-36.6,115.1c0-0.1,0-0.2,0-0.3c0-0.1,0.1-0.1,0.2-0.2c0.6-0.2,0.9-0.3,1.5-0.5c0.1,0,0.2,0,0.2,0
			c0.1,0,0.1,0.1,0.2,0.2c0.1,0.3,0.1,0.4,0.2,0.6c0,0.1,0,0.2,0,0.3c0,0.1-0.1,0.1-0.2,0.2c-0.1,0-0.2,0.1-0.3,0.1
			c0-0.1-0.1-0.2-0.1-0.3c0.1,0,0.2-0.1,0.3-0.1c-0.1-0.3-0.1-0.4-0.2-0.6c-0.6,0.2-0.9,0.3-1.5,0.5c0.1,0.3,0.1,0.4,0.2,0.7
			c0.2-0.1,0.4-0.1,0.6-0.2c0-0.1-0.1-0.2-0.1-0.3c0.1,0,0.2-0.1,0.3-0.1c0.1,0.2,0.1,0.3,0.2,0.5c0,0,0,0.1,0,0.1
			c0,0,0,0.1-0.1,0.1c-0.3,0.1-0.5,0.2-0.8,0.3c-0.1,0-0.2,0-0.3,0c-0.1,0-0.1-0.1-0.2-0.2C-36.5,115.5-36.5,115.3-36.6,115.1z"/>
	</g>
</g>
<g display="none">
	<g display="inline">
		<path fill="#F1F5CF" d="M-36.2,97.3c0.7,0.3,1.4,0.5,2.1,0.8c0,0.1-0.1,0.2-0.1,0.3c-0.3-0.1-0.6-0.2-0.9-0.3c0,0.1,0,0.1-0.1,0.2
			c0.3,0.3,0.5,0.5,0.8,0.8c0,0.1-0.1,0.2-0.1,0.3c-0.3-0.3-0.6-0.6-0.9-0.9c-0.4,0.1-0.8,0.2-1.3,0.3c0-0.1,0.1-0.2,0.1-0.3
			c0.4-0.1,0.7-0.1,1.1-0.2c0-0.1,0-0.1,0.1-0.2c-0.3-0.1-0.6-0.2-0.9-0.3C-36.2,97.6-36.2,97.5-36.2,97.3z"/>
		<path fill="#F1F5CF" d="M-36.7,99.1c0.1,0,0.2,0.1,0.3,0.1c0,0.1-0.1,0.2-0.1,0.3c0.5,0.1,1,0.3,1.6,0.4c0-0.1,0.1-0.2,0.1-0.3
			c0.1,0,0.2,0.1,0.3,0.1c-0.1,0.3-0.2,0.6-0.3,1c-0.1,0-0.2-0.1-0.3-0.1c0-0.1,0.1-0.2,0.1-0.3c-0.5-0.1-1-0.3-1.6-0.4
			c0,0.1-0.1,0.2-0.1,0.3c-0.1,0-0.2-0.1-0.3-0.1C-36.9,99.8-36.8,99.4-36.7,99.1z"/>
		<path fill="#F1F5CF" d="M-37.1,100.5c0.7,0.2,1.5,0.3,2.2,0.5c-0.1,0.4-0.2,0.9-0.3,1.3c-0.1,0-0.2,0-0.3-0.1
			c0.1-0.3,0.1-0.7,0.2-1c-0.2,0-0.4-0.1-0.6-0.1c0,0.2-0.1,0.4-0.1,0.7c-0.1,0-0.2,0-0.3-0.1c0-0.2,0.1-0.5,0.1-0.7
			c-0.2,0-0.4-0.1-0.6-0.1c-0.1,0.3-0.1,0.7-0.2,1c-0.1,0-0.2,0-0.3-0.1C-37.3,101.4-37.2,100.9-37.1,100.5z"/>
		<path fill="#F1F5CF" d="M-37.5,102.6c0-0.1,0.1-0.2,0.1-0.2c0.1-0.1,0.2-0.1,0.2-0.1c0.1,0,0.2,0,0.3,0.1c0,0.1,0,0.2-0.1,0.3
			c-0.1,0-0.2,0-0.3,0c0,0.2-0.1,0.5-0.1,0.7c0.2,0,0.4,0.1,0.6,0.1c0-0.2,0.1-0.5,0.1-0.7c0-0.1,0.1-0.2,0.1-0.2
			c0.1-0.1,0.2-0.1,0.2-0.1c0.2,0,0.4,0.1,0.6,0.1c0.1,0,0.2,0.1,0.2,0.1c0.1,0.1,0.1,0.2,0.1,0.2c0,0.2-0.1,0.4-0.1,0.7
			c0,0.1-0.1,0.2-0.1,0.2c-0.1,0.1-0.1,0.1-0.2,0.1c-0.1,0-0.2,0-0.3,0c0-0.1,0-0.2,0-0.3c0.1,0,0.2,0,0.3,0c0-0.2,0.1-0.4,0.1-0.7
			c-0.2,0-0.4-0.1-0.6-0.1c0,0.2-0.1,0.5-0.1,0.7c0,0.1-0.1,0.2-0.1,0.2c-0.1,0.1-0.1,0.1-0.2,0.1c-0.2,0-0.4,0-0.6-0.1
			c-0.1,0-0.2-0.1-0.2-0.1c-0.1-0.1-0.1-0.2-0.1-0.3C-37.6,103.1-37.5,102.8-37.5,102.6z"/>
		<path fill="#F1F5CF" d="M-37.7,104.9c0.8,0.1,1.5,0.1,2.3,0.2c0,0.4,0,0.9-0.1,1.3c-0.1,0-0.2,0-0.3,0c0-0.3,0-0.7,0-1
			c-0.2,0-0.4,0-0.6,0c0,0.2,0,0.5,0,0.7c-0.1,0-0.2,0-0.3,0c0-0.2,0-0.5,0-0.7c-0.2,0-0.4,0-0.6,0c0,0.4,0,0.7,0,1.1
			c-0.1,0-0.2,0-0.3,0C-37.8,105.8-37.8,105.4-37.7,104.9z"/>
		<path fill="#F1F5CF" d="M-37.8,106.7c0.8,0,1.5,0,2.3,0c0,0.4,0,0.9,0,1.3c-0.1,0-0.2,0-0.3,0c0-0.3,0-0.7,0-1c-0.2,0-0.4,0-0.6,0
			c0,0.2,0,0.5,0,0.7c-0.1,0-0.2,0-0.3,0c0-0.2,0-0.5,0-0.7c-0.2,0-0.4,0-0.6,0c0,0.4,0,0.7,0,1.1c-0.1,0-0.2,0-0.3,0
			C-37.8,107.6-37.8,107.2-37.8,106.7z"/>
		<path fill="#F1F5CF" d="M-37.8,108.5c0.8,0,1.5-0.1,2.3-0.1c0,0.1,0,0.2,0,0.3c-0.5,0.3-1,0.6-1.5,1c0.5-0.1,1.1-0.1,1.6-0.2
			c0,0.1,0,0.2,0,0.3c-0.7,0.1-1.5,0.2-2.2,0.3c0-0.1,0-0.2,0-0.4c0.5-0.4,1-0.7,1.5-1c-0.5,0-1.1,0.1-1.6,0.1
			C-37.7,108.7-37.8,108.6-37.8,108.5z"/>
		<path fill="#F1F5CF" d="M-37.4,111.3c0.7-0.1,1.5-0.2,2.2-0.4c0.1,0.3,0.1,0.6,0.2,1c0,0.1,0,0.2,0,0.2c0,0.1-0.1,0.1-0.2,0.1
			c-0.5,0.1-1.1,0.2-1.6,0.3c-0.1,0-0.2,0-0.2-0.1c-0.1-0.1-0.1-0.1-0.1-0.2C-37.3,112-37.4,111.7-37.4,111.3z M-36.9,112.3
			c0.5-0.1,1.1-0.2,1.6-0.3c0-0.2-0.1-0.4-0.1-0.7c-0.5,0.1-1.1,0.2-1.6,0.3C-37,111.8-37,112.1-36.9,112.3z"/>
		<path fill="#F1F5CF" d="M-37.1,113.1c0.6-0.1,1.3-0.3,1.9-0.4c0.1,0,0.2,0,0.2,0c0.1,0,0.1,0.1,0.1,0.2c0.1,0.2,0.1,0.4,0.2,0.6
			c0,0.1,0,0.2,0,0.2c0,0.1-0.1,0.1-0.2,0.2c-0.6,0.2-1.2,0.4-1.9,0.5c0-0.1-0.1-0.2-0.1-0.3c0.3-0.1,0.6-0.2,0.9-0.3
			c-0.1-0.2-0.1-0.4-0.2-0.7c-0.3,0.1-0.6,0.2-0.9,0.2C-37,113.3-37.1,113.2-37.1,113.1z M-35.6,113.8c0.2-0.1,0.4-0.1,0.6-0.2
			c-0.1-0.2-0.1-0.4-0.2-0.6c-0.2,0.1-0.4,0.1-0.6,0.2C-35.7,113.3-35.6,113.6-35.6,113.8z"/>
		<path fill="#F1F5CF" d="M-36.5,115.2c0-0.1,0-0.2,0-0.3c0-0.1,0.1-0.1,0.2-0.2c0.5-0.2,1-0.3,1.5-0.5c0.1,0,0.2,0,0.2,0
			c0.1,0,0.1,0.1,0.2,0.2c0.1,0.2,0.1,0.4,0.2,0.6c0,0.1,0,0.2,0,0.3c0,0.1-0.1,0.1-0.2,0.2c-0.1,0-0.2,0.1-0.3,0.1
			c0-0.1-0.1-0.2-0.1-0.3c0.1,0,0.2-0.1,0.3-0.1c-0.1-0.2-0.1-0.4-0.2-0.6c-0.5,0.2-1,0.3-1.5,0.5c0.1,0.2,0.1,0.5,0.2,0.7
			c0.2-0.1,0.4-0.1,0.6-0.2c0-0.1-0.1-0.2-0.1-0.3c0.1,0,0.2-0.1,0.3-0.1c0.1,0.2,0.1,0.3,0.2,0.5c0,0,0,0.1,0,0.1
			c0,0,0,0.1-0.1,0.1c-0.3,0.1-0.5,0.2-0.8,0.3c-0.1,0-0.2,0-0.3,0c-0.1,0-0.1-0.1-0.2-0.2C-36.4,115.6-36.4,115.4-36.5,115.2z"/>
	</g>
</g>
</svg>
