<?xml version="1.0" encoding="utf-8"?>
<!-- Generator: Adobe Illustrator 17.1.0, SVG Export Plug-In . SVG Version: 6.00 Build 0)  -->
<!DOCTYPE svg PUBLIC "-//W3C//DTD SVG 1.1//EN" "http://www.w3.org/Graphics/SVG/1.1/DTD/svg11.dtd">
<svg version="1.1" id="Layer_1" xmlns="http://www.w3.org/2000/svg" xmlns:xlink="http://www.w3.org/1999/xlink" x="0px" y="0px"
	 viewBox="0 0 486.9 383.7" enable-background="new 0 0 486.9 383.7" xml:space="preserve">
<g>
	<polygon fill="#B3B3B3" points="326.8,311.6 375,272 435,302.8 393.9,368.3 332.1,367.1 	"/>
	<polygon fill="#999999" points="435,302.8 373.9,323.9 393.9,368.3 	"/>
	<polygon fill="#808080" points="373.9,323.9 326.8,311.6 332.1,367.1 393.9,368.3 	"/>
</g>
<g>
	<polygon fill="#294915" points="268.9,281.5 305.7,313.8 289.4,364.2 233.5,340.7 226.5,292.7 	"/>
	<polygon fill="#808080" points="289.4,364.2 265.3,319.6 233.5,340.7 	"/>
	<polygon fill="#B3B3B3" points="265.3,319.6 268.9,281.5 226.5,292.7 233.5,340.7 	"/>
</g>
<g>
	<polygon fill="#B3B3B3" points="283.6,298.9 327.8,277.9 367.7,312.8 323.9,354.8 277.1,342.2 	"/>
	<polygon fill="#999999" points="367.7,312.8 317.1,317.2 323.9,354.8 	"/>
	<polygon fill="#808080" points="317.1,317.2 283.6,298.9 277.1,342.2 323.9,354.8 	"/>
</g>
<g>
	<polygon fill="#B3B3B3" points="404.4,317.3 436.4,280.3 486.9,296.2 463.8,352.2 415.9,359.6 	"/>
	<polygon fill="#294915" points="486.9,296.2 442.5,320.6 463.8,352.2 	"/>
	<polygon fill="#808080" points="442.5,320.6 404.4,317.3 415.9,359.6 463.8,352.2 	"/>
</g>
<g>
	<polygon fill="#B3B3B3" points="51.5,291.4 0,257 12,191.1 86,211.3 102.7,270.4 	"/>
	<polygon fill="#999999" points="12,191.1 49.6,243.1 86,211.3 	"/>
	<polygon fill="#808080" points="49.6,243.1 51.5,291.4 102.7,270.4 86,211.3 	"/>
</g>
<g>
	<polygon fill="#999999" points="42.3,178.3 68.4,148.4 109.2,161.4 90.4,206.8 51.5,212.6 	"/>
	<polygon fill="#808080" points="109.2,161.4 73.2,181 90.4,206.8 	"/>
	<polygon fill="#B3B3B3" points="73.2,181 42.3,178.3 51.5,212.6 90.4,206.8 	"/>
</g>
<g>
	<polygon fill="#999999" points="82,206.6 108,176.7 148.9,189.7 130.1,235.1 91.2,240.8 	"/>
	<polygon fill="#808080" points="148.9,189.7 112.8,209.3 130.1,235.1 	"/>
	<polygon fill="#B3B3B3" points="112.8,209.3 82,206.6 91.2,240.8 130.1,235.1 	"/>
</g>
<g>
	<polygon fill="#B3B3B3" points="92.9,347.3 75.7,311.5 103.9,279.1 138.1,314.4 128,352.4 	"/>
	<polygon fill="#999999" points="103.9,279.1 107.6,320.1 138.1,314.4 	"/>
	<polygon fill="#808080" points="107.6,320.1 92.9,347.3 128,352.4 138.1,314.4 	"/>
</g>
<g>
	<polygon fill="#B3B3B3" points="138.2,275.5 105.9,236.5 130.7,187.8 183.9,220.9 183.1,270.9 	"/>
	<polygon fill="#999999" points="130.7,187.8 148,237.2 183.9,220.9 	"/>
	<polygon fill="#808080" points="148,237.2 138.2,275.5 183.1,270.9 183.9,220.9 	"/>
</g>
<g>
	<polygon fill="#B3B3B3" points="70,240.4 60.9,221.5 75.8,204.4 93.8,223 88.5,243.1 	"/>
	<polygon fill="#294915" points="75.8,204.4 77.7,226 93.8,223 	"/>
	<polygon fill="#808080" points="77.7,226 70,240.4 88.5,243.1 93.8,223 	"/>
</g>
<g>
	<polygon fill="#294915" points="27.5,297.3 53.6,267.3 94.4,280.4 75.6,325.7 36.7,331.5 	"/>
	<polygon fill="#808080" points="94.4,280.4 58.4,300 75.6,325.7 	"/>
	<polygon fill="#999999" points="58.4,300 27.5,297.3 36.7,331.5 75.6,325.7 	"/>
</g>
<g>
	<polygon fill="#B3B3B3" points="77.4,183.4 60.2,147.6 88.3,115.2 122.5,150.5 112.5,188.5 	"/>
	<polygon fill="#999999" points="88.3,115.2 92.1,156.1 122.5,150.5 	"/>
	<polygon fill="#808080" points="92.1,156.1 77.4,183.4 112.5,188.5 122.5,150.5 	"/>
</g>
<g>
	<polygon fill="#B3B3B3" points="104.9,307.4 82.8,294.1 86.6,266.5 117.7,273.5 125.7,297.7 	"/>
	<polygon fill="#294915" points="86.6,266.5 103.2,287.4 117.7,273.5 	"/>
	<polygon fill="#808080" points="103.2,287.4 104.9,307.4 125.7,297.7 117.7,273.5 	"/>
</g>
<g>
	<polygon fill="#B3B3B3" points="86.7,279.7 70.9,246.7 96.8,216.9 128.3,249.4 119,284.4 	"/>
	<polygon fill="#999999" points="96.8,216.9 100.3,254.6 128.3,249.4 	"/>
	<polygon fill="#808080" points="100.3,254.6 86.7,279.7 119,284.4 128.3,249.4 	"/>
</g>
<g>
	<polygon fill="#B3B3B3" points="282.5,313.4 231,279 243,213.1 317,233.3 333.7,292.4 	"/>
	<polygon fill="#999999" points="243,213.1 280.6,265.1 317,233.3 	"/>
	<polygon fill="#808080" points="280.6,265.1 282.5,313.4 333.7,292.4 317,233.3 	"/>
</g>
<g>
	<polygon fill="#999999" points="313,228.6 339,198.7 379.9,211.7 361.1,257.1 322.2,262.8 	"/>
	<polygon fill="#808080" points="379.9,211.7 343.8,231.3 361.1,257.1 	"/>
	<polygon fill="#B3B3B3" points="343.8,231.3 313,228.6 322.2,262.8 361.1,257.1 	"/>
</g>
<g>
	<polygon fill="#B3B3B3" points="257.4,218.4 240.2,182.6 268.3,150.2 302.5,185.5 292.5,223.5 	"/>
	<polygon fill="#999999" points="268.3,150.2 272.1,191.1 302.5,185.5 	"/>
	<polygon fill="#808080" points="272.1,191.1 257.4,218.4 292.5,223.5 302.5,185.5 	"/>
</g>
<g>
	<polygon fill="#B3B3B3" points="276.7,245.7 260.9,212.7 286.8,182.9 318.3,215.4 309,250.4 	"/>
	<polygon fill="#999999" points="286.8,182.9 290.3,220.6 318.3,215.4 	"/>
	<polygon fill="#808080" points="290.3,220.6 276.7,245.7 309,250.4 318.3,215.4 	"/>
</g>
<g>
	<polygon fill="#B3B3B3" points="131.2,208.6 101.1,182.8 113.8,141.8 159.3,160.3 165.4,199.1 	"/>
	<polygon fill="#294915" points="113.8,141.8 133.7,177.7 159.3,160.3 	"/>
	<polygon fill="#808080" points="133.7,177.7 131.2,208.6 165.4,199.1 159.3,160.3 	"/>
</g>
<g>
	<polygon fill="#B3B3B3" points="147.4,76 138.4,57.1 153.2,40 171.3,58.6 166,78.7 	"/>
	<polygon fill="#999999" points="153.2,40 155.2,61.6 171.3,58.6 	"/>
	<polygon fill="#808080" points="155.2,61.6 147.4,76 166,78.7 171.3,58.6 	"/>
</g>
<g>
	<polygon fill="#B3B3B3" points="138.2,300.6 115.7,257.1 149.2,216.1 192.7,258.3 181.7,305.6 	"/>
	<polygon fill="#294915" points="149.2,216.1 155.4,266.4 192.7,258.3 	"/>
	<polygon fill="#808080" points="155.4,266.4 138.2,300.6 181.7,305.6 192.7,258.3 	"/>
</g>
<g>
	<polygon fill="#B3B3B3" points="144.6,354.7 106.4,323.9 120.6,272.9 177.4,294 186.4,341.7 	"/>
	<polygon fill="#999999" points="120.6,272.9 146.5,316.5 177.4,294 	"/>
	<polygon fill="#808080" points="146.5,316.5 144.6,354.7 186.4,341.7 177.4,294 	"/>
</g>
<g>
	<polygon fill="#B3B3B3" points="165.3,219 100.5,178.4 112.9,96.7 204.9,118.8 227.7,191.1 	"/>
	<polygon fill="#999999" points="112.9,96.7 161.2,159.4 204.9,118.8 	"/>
	<polygon fill="#808080" points="161.2,159.4 165.3,219 227.7,191.1 204.9,118.8 	"/>
</g>
<g>
	<polygon fill="#999999" points="165.4,200.9 196.4,163 247.3,177.5 225.7,234.2 178,242.8 	"/>
	<polygon fill="#808080" points="247.3,177.5 203.5,203.1 225.7,234.2 	"/>
	<polygon fill="#B3B3B3" points="203.5,203.1 165.4,200.9 178,242.8 225.7,234.2 	"/>
</g>
<g>
	<polygon fill="#999999" points="159.4,299.9 190.4,262 241.3,276.5 219.7,333.2 172,341.8 	"/>
	<polygon fill="#808080" points="241.3,276.5 197.5,302.1 219.7,333.2 	"/>
	<polygon fill="#B3B3B3" points="197.5,302.1 159.4,299.9 172,341.8 219.7,333.2 	"/>
</g>
<g>
	<polygon fill="#B3B3B3" points="97.2,97.6 74.7,54.1 108.2,13.1 151.7,55.3 140.7,102.6 	"/>
	<polygon fill="#999999" points="108.2,13.1 114.4,63.4 151.7,55.3 	"/>
	<polygon fill="#808080" points="114.4,63.4 97.2,97.6 140.7,102.6 151.7,55.3 	"/>
</g>
<g>
	<polygon fill="#B3B3B3" points="230.7,280.9 189.5,234.1 218.2,173.1 285,211.9 286,273.6 	"/>
	<polygon fill="#999999" points="218.2,173.1 241.4,233.4 285,211.9 	"/>
	<polygon fill="#808080" points="241.4,233.4 230.7,280.9 286,273.6 285,211.9 	"/>
</g>
<g>
	<polygon fill="#294915" points="118.4,37.9 149.4,0 200.3,14.5 178.7,71.2 131,79.8 	"/>
	<polygon fill="#808080" points="200.3,14.5 156.5,40.1 178.7,71.2 	"/>
	<polygon fill="#999999" points="156.5,40.1 118.4,37.9 131,79.8 178.7,71.2 	"/>
</g>
<g>
	<polygon fill="#B3B3B3" points="169.2,323.6 146.7,280.1 180.2,239.1 223.7,281.3 212.7,328.6 	"/>
	<polygon fill="#999999" points="180.2,239.1 186.4,289.4 223.7,281.3 	"/>
	<polygon fill="#808080" points="186.4,289.4 169.2,323.6 212.7,328.6 223.7,281.3 	"/>
</g>
<g>
	<polygon fill="#B3B3B3" points="194.6,383.7 156.4,352.9 170.6,301.9 227.4,323 236.4,370.7 	"/>
	<polygon fill="#999999" points="170.6,301.9 196.5,345.5 227.4,323 	"/>
	<polygon fill="#808080" points="196.5,345.5 194.6,383.7 236.4,370.7 227.4,323 	"/>
</g>
<g>
	<polygon fill="#B3B3B3" points="344.7,298.1 317,282.5 320.6,248.4 359.2,255.8 370,285.3 	"/>
	<polygon fill="#294915" points="320.6,248.4 341.8,273.5 359.2,255.8 	"/>
	<polygon fill="#808080" points="341.8,273.5 344.7,298.1 370,285.3 359.2,255.8 	"/>
</g>
<g>
	<polygon fill="#B3B3B3" points="154.5,135.4 133.7,95.4 164.6,57.6 204.6,96.5 194.5,140 	"/>
	<polygon fill="#999999" points="164.6,57.6 170.3,104 204.6,96.5 	"/>
	<polygon fill="#808080" points="170.3,104 154.5,135.4 194.5,140 204.6,96.5 	"/>
</g>
<g>
	<polygon fill="#294915" points="200.4,332.9 231.4,295 282.3,309.5 260.7,366.2 213,374.8 	"/>
	<polygon fill="#808080" points="282.3,309.5 238.5,335.1 260.7,366.2 	"/>
	<polygon fill="#B3B3B3" points="238.5,335.1 200.4,332.9 213,374.8 260.7,366.2 	"/>
</g>
<g>
	<polygon fill="#B3B3B3" points="201.2,291.6 178.7,248.1 212.2,207.1 255.7,249.3 244.7,296.6 	"/>
	<polygon fill="#999999" points="212.2,207.1 218.4,257.4 255.7,249.3 	"/>
	<polygon fill="#808080" points="218.4,257.4 201.2,291.6 244.7,296.6 255.7,249.3 	"/>
</g>
<g>
	<polygon fill="#B3B3B3" points="219.6,198.7 181.4,167.9 195.6,116.9 252.4,138 261.4,185.7 	"/>
	<polygon fill="#294915" points="195.6,116.9 221.5,160.5 252.4,138 	"/>
	<polygon fill="#808080" points="221.5,160.5 219.6,198.7 261.4,185.7 252.4,138 	"/>
</g>
<g>
	<polygon fill="#B3B3B3" points="167.7,350.8 155.8,327.9 173.5,306.2 196.5,328.5 190.7,353.5 	"/>
	<polygon fill="#999999" points="173.5,306.2 176.8,332.8 196.5,328.5 	"/>
	<polygon fill="#808080" points="176.8,332.8 167.7,350.8 190.7,353.5 196.5,328.5 	"/>
</g>
<g>
	<polygon fill="#B3B3B3" points="167.7,261.8 155.8,238.9 173.5,217.2 196.5,239.5 190.7,264.5 	"/>
	<polygon fill="#294915" points="173.5,217.2 176.8,243.8 196.5,239.5 	"/>
	<polygon fill="#808080" points="176.8,243.8 167.7,261.8 190.7,264.5 196.5,239.5 	"/>
</g>
</svg>
