<?xml version="1.0" encoding="utf-8"?>
<!-- Generator: Adobe Illustrator 17.1.0, SVG Export Plug-In . SVG Version: 6.00 Build 0)  -->
<!DOCTYPE svg PUBLIC "-//W3C//DTD SVG 1.1//EN" "http://www.w3.org/Graphics/SVG/1.1/DTD/svg11.dtd">
<svg version="1.1" id="Layer_1" xmlns="http://www.w3.org/2000/svg" xmlns:xlink="http://www.w3.org/1999/xlink" x="0px" y="0px"
	 viewBox="0 0 346.2 346.1" enable-background="new 0 0 346.2 346.1" xml:space="preserve">
<g>
	<g>
		<path fill="#A1A1A1" d="M174.5,36.9c36.8,0,71.3,14.3,97.3,40.3c26,26,40.3,60.5,40.3,97.3s-14.3,71.3-40.3,97.3
			c-26,26-60.6,40.3-97.3,40.3s-71.3-14.3-97.3-40.3c-26-26-40.3-60.5-40.3-97.3s14.3-71.3,40.3-97.3
			C103.2,51.2,137.7,36.9,174.5,36.9 M174.5,2.9C79.7,2.9,2.9,79.7,2.9,174.5s76.9,171.6,171.7,171.6s171.7-76.8,171.7-171.6
			S269.3,2.9,174.5,2.9L174.5,2.9z"/>
	</g>
	<g>
		<path fill="#ACACAC" d="M171.7,34c36.8,0,71.3,14.3,97.3,40.3c26,26,40.3,60.5,40.3,97.3S295,242.9,269,268.9
			c-26,26-60.6,40.3-97.3,40.3s-71.3-14.3-97.3-40.3c-26-26-40.3-60.5-40.3-97.3s14.3-71.3,40.3-97.3C100.3,48.3,134.9,34,171.7,34
			 M171.7,0C76.9,0,0,76.8,0,171.6s76.9,171.6,171.7,171.6s171.7-76.8,171.7-171.6S266.5,0,171.7,0L171.7,0z"/>
	</g>
	<g>
		<g>
			
				<ellipse fill="none" stroke="#FBCC54" stroke-width="2" stroke-miterlimit="10" stroke-dasharray="14.2015,18.2591" cx="171.5" cy="171.4" rx="155.1" ry="154.9"/>
		</g>
	</g>
</g>
</svg>
