<?xml version="1.0" encoding="utf-8"?>
<!-- Generator: Adobe Illustrator 17.1.0, SVG Export Plug-In . SVG Version: 6.00 Build 0)  -->
<!DOCTYPE svg PUBLIC "-//W3C//DTD SVG 1.1//EN" "http://www.w3.org/Graphics/SVG/1.1/DTD/svg11.dtd">
<svg version="1.1" id="Layer_1" xmlns="http://www.w3.org/2000/svg" xmlns:xlink="http://www.w3.org/1999/xlink" x="0px" y="0px"
	 viewBox="0 0 142 275.5" enable-background="new 0 0 142 275.5" xml:space="preserve">
<g>
	<path fill="#007F39" d="M127.3,181c0,0,29.3-27.1-4.7-38.1c0,0,37.7-17.3,5-30.6c0,0,22-28.9-5-38.7c0,0-45.7-16.9-53.7-68.3
		L68.7,1c0,0.4-0.1,0.8-0.2,1.3c-0.1-0.4-0.1-0.8-0.2-1.3l-0.3,4.4c-8,51.4-43.7,68.3-43.7,68.3c-27,9.8-5,38.7-5,38.7
		c-32.7,13.3,5,30.6,5,30.6c-34,11-4.7,38.1-4.7,38.1c-35.3,16.2,4.3,38.1,4.3,38.1c-18-1.2-24.3,23.7,9.3,34.7
		c16.7,5.4,30.5,3.1,40.2-0.7c9.7,3.8,23.5,6.1,40.2,0.7c33.7-11,27.3-35.8,9.3-34.7C123,219.2,162.7,197.2,127.3,181z"/>
	<polygon fill="#603813" points="74.7,275.5 65,275.5 64,273.5 64.8,249.5 74,247.5 74.7,249.5 	"/>
	<rect x="63.7" y="247.5" fill="#754C24" width="10" height="26"/>
	<path fill="#39B54A" d="M122.3,179c0,0,29.3-27.1-4.7-38.1c0,0,37.7-17.3,5-30.6c0,0,22-28.9-5-38.7c0,0-40.7-15.9-48.7-67.3
		L68.7,0c0,0.4-0.1,0.8-0.2,1.3c-0.1-0.4-0.1-0.8-0.2-1.3l-0.3,4.4c-8,51.4-48.7,67.3-48.7,67.3c-27,9.8-5,38.7-5,38.7
		c-32.7,13.3,5,30.6,5,30.6c-34,11-4.7,38.1-4.7,38.1c-35.3,16.2,4.3,38.1,4.3,38.1c-18-1.2-24.3,23.7,9.3,34.7
		c16.7,5.4,30.5,3.1,40.2-0.7c9.7,3.8,23.5,6.1,40.2,0.7c33.7-11,27.3-35.8,9.3-34.7C118,217.2,157.7,195.2,122.3,179z"/>
</g>
</svg>
