<?xml version="1.0" encoding="utf-8"?>
<!-- Generator: Adobe Illustrator 17.1.0, SVG Export Plug-In . SVG Version: 6.00 Build 0)  -->
<!DOCTYPE svg PUBLIC "-//W3C//DTD SVG 1.1//EN" "http://www.w3.org/Graphics/SVG/1.1/DTD/svg11.dtd">
<svg version="1.1" id="Layer_1" xmlns="http://www.w3.org/2000/svg" xmlns:xlink="http://www.w3.org/1999/xlink" x="0px" y="0px"
	 viewBox="0 0 212.7 440" enable-background="new 0 0 212.7 440" xml:space="preserve">
<g>
	<path fill="#01602E" d="M190.7,271.2c0,0,43.9-40.7-7-57.1c0,0,56.4-26,7.5-45.9c0,0,33-43.3-7.5-58c0,0-68.5-25.3-80.5-102.3
		l-0.4-6.5c-0.1,0.6-0.2,1.3-0.2,1.9c-0.1-0.6-0.2-1.3-0.2-1.9L102,8c-12,77-65.5,102.3-65.5,102.3c-40.4,14.7-7.5,58-7.5,58
		c-48.9,19.9,7.5,45.9,7.5,45.9c-50.9,16.4-7,57.1-7,57.1c-52.9,24.2,6.5,57.1,6.5,57.1c-27-1.7-36.5,35.5,14,51.9
		c25,8.1,45.7,4.6,60.2-1c14.5,5.6,35.2,9.2,60.2,1c50.4-16.4,40.9-53.6,14-51.9C184.3,328.3,243.7,295.4,190.7,271.2z"/>
	<polygon fill="#603813" points="117.2,440 107.4,440 106.3,438.3 107.2,351.4 116.4,349.4 117.2,351.5 	"/>
	<rect x="106.2" y="349" fill="#754C24" width="10" height="89"/>
	<path fill="#007239" d="M183.3,268.2c0,0,43.9-40.7-7-57.1c0,0,56.4-26,7.5-45.9c0,0,33-43.3-7.5-58c0,0-61-23.8-73-100.8L102.8,0
		c-0.1,0.6-0.2,1.3-0.2,1.9c-0.1-0.6-0.2-1.3-0.2-1.9L102,6.5c-12,77-73,100.8-73,100.8c-40.4,14.7-7.5,58-7.5,58
		c-48.9,19.9,7.5,45.9,7.5,45.9c-50.9,16.4-7,57.1-7,57.1c-52.9,24.2,6.5,57.1,6.5,57.1c-27-1.7-36.5,35.5,14,51.9
		c25,8.1,45.7,4.6,60.2-1c14.5,5.6,35.2,9.2,60.2,1c50.4-16.4,40.9-53.6,14-51.9C176.8,325.3,236.2,292.4,183.3,268.2z"/>
</g>
</svg>
